ply
format ascii 1.0
comment VCGLIB generated
element vertex 97
property float x
property float y
property float z
property float nx
property float ny
property float nz
property uchar red
property uchar green
property uchar blue
property uchar alpha
property float texture_u
property float texture_v
element face 190
property list uchar int vertex_indices
end_header
0 0.1 -0.2 0.00325037 0.099029 -0.995079 192 192 192 255 0 0.1
0 0.1 0.2 -0.0322697 0.98308 0.180313 192 192 192 255 0 0.1
0.019509 0.098079 -0.2 0.215426 0.923481 -0.317451 192 192 192 255 0.019509 0.098079
0.019509 0.098079 0.2 0.160134 0.970486 0.180314 192 192 192 255 0.019509 0.098079
0.038268 0.092388 -0.2 0.343013 0.756849 -0.556347 192 192 192 255 0.038268 0.092388
0.038268 0.092388 0.2 0.346408 0.920591 0.180315 192 192 192 255 0.038268 0.092388
0.055557 0.083147 -0.2 0.484061 0.675398 -0.556347 192 192 192 255 0.055557 0.083147
0.055557 0.083147 0.2 0.519326 0.835337 0.180315 192 192 192 255 0.055557 0.083147
0.070711 0.070711 -0.2 0.606538 0.567969 -0.556348 192 192 192 255 0.070711 0.070711
0.070711 0.070711 0.2 0.672315 0.717968 0.180316 192 192 192 255 0.070711 0.070711
0.083147 0.055557 -0.2 0.705691 0.438723 -0.556347 192 192 192 255 0.083147 0.055557
0.083147 0.055557 0.2 0.799478 0.572993 0.180316 192 192 192 255 0.083147 0.055557
0.092388 0.038268 -0.2 0.777714 0.292641 -0.556347 192 192 192 255 0.092388 0.038268
0.092388 0.038268 0.2 0.895893 0.406033 0.180315 192 192 192 255 0.092388 0.038268
0.098079 0.019509 -0.2 0.819864 0.135275 -0.556348 192 192 192 255 0.098079 0.019509
0.098079 0.019509 0.2 0.95789 0.223459 0.180315 192 192 192 255 0.098079 0.019509
0.1 0 -0.2 0.830503 -0.0272591 -0.556346 192 192 192 255 0.1 0
0.1 -0 0.2 0.98308 0.0322697 0.180313 192 192 192 255 0.1 -0
0.098079 -0.019509 -0.2 0.809223 -0.188772 -0.556348 192 192 192 255 0.098079 -0.019509
0.098079 -0.019509 0.2 0.970486 -0.160134 0.180314 192 192 192 255 0.098079 -0.019509
0.092388 -0.038268 -0.2 0.756849 -0.343013 -0.556347 192 192 192 255 0.092388 -0.038268
0.092388 -0.038268 0.2 0.920591 -0.346408 0.180315 192 192 192 255 0.092388 -0.038268
0.083147 -0.055557 -0.2 0.675398 -0.484061 -0.556347 192 192 192 255 0.083147 -0.055557
0.083147 -0.055557 0.2 0.835337 -0.519326 0.180315 192 192 192 255 0.083147 -0.055557
0.070711 -0.070711 -0.2 0.567969 -0.606538 -0.556348 192 192 192 255 0.070711 -0.070711
0.070711 -0.070711 0.2 0.717969 -0.672315 0.180316 192 192 192 255 0.070711 -0.070711
0.055557 -0.083147 -0.2 0.438723 -0.705691 -0.556347 192 192 192 255 0.055557 -0.083147
0.055557 -0.083147 0.2 0.572993 -0.799478 0.180316 192 192 192 255 0.055557 -0.083147
0.038268 -0.092388 -0.2 0.292641 -0.777714 -0.556347 192 192 192 255 0.038268 -0.092388
0.038268 -0.092388 0.2 0.406033 -0.895893 0.180315 192 192 192 255 0.038268 -0.092388
0.019509 -0.098079 -0.2 0.135275 -0.819864 -0.556348 192 192 192 255 0.019509 -0.098079
0.019509 -0.098079 0.2 0.223459 -0.95789 0.180315 192 192 192 255 0.019509 -0.098079
-0 -0.1 -0.2 -0.0272591 -0.830503 -0.556346 192 192 192 255 -0 -0.1
-0 -0.1 0.2 0.0322697 -0.98308 0.180313 192 192 192 255 -0 -0.1
-0.019509 -0.098079 -0.2 -0.188772 -0.809223 -0.556348 192 192 192 255 -0.019509 -0.098079
-0.019509 -0.098079 0.2 -0.160134 -0.970486 0.180314 192 192 192 255 -0.019509 -0.098079
-0.038268 -0.092388 -0.2 -0.343013 -0.756849 -0.556347 192 192 192 255 -0.038268 -0.092388
-0.038268 -0.092388 0.2 -0.346408 -0.920591 0.180315 192 192 192 255 -0.038268 -0.092388
-0.055557 -0.083147 -0.2 -0.484061 -0.675398 -0.556347 192 192 192 255 -0.055557 -0.083147
-0.055557 -0.083147 0.2 -0.519326 -0.835337 0.180315 192 192 192 255 -0.055557 -0.083147
-0.070711 -0.070711 -0.2 -0.606538 -0.567969 -0.556348 192 192 192 255 -0.070711 -0.070711
-0.070711 -0.070711 0.2 -0.672315 -0.717969 0.180316 192 192 192 255 -0.070711 -0.070711
-0.083147 -0.055557 -0.2 -0.705691 -0.438723 -0.556347 192 192 192 255 -0.083147 -0.055557
-0.083147 -0.055557 0.2 -0.799478 -0.572993 0.180316 192 192 192 255 -0.083147 -0.055557
-0.092388 -0.038268 -0.2 -0.777714 -0.292641 -0.556347 192 192 192 255 -0.092388 -0.038268
-0.092388 -0.038268 0.2 -0.895893 -0.406033 0.180315 192 192 192 255 -0.092388 -0.038268
-0.098079 -0.019509 -0.2 -0.819864 -0.135275 -0.556348 192 192 192 255 -0.098079 -0.019509
-0.098079 -0.019509 0.2 -0.95789 -0.223459 0.180315 192 192 192 255 -0.098079 -0.019509
-0.1 0 -0.2 -0.830503 0.0272591 -0.556346 192 192 192 255 -0.1 0
-0.1 0 0.2 -0.98308 -0.0322697 0.180313 192 192 192 255 -0.1 0
-0.098079 0.019509 -0.2 -0.809223 0.188772 -0.556348 192 192 192 255 -0.098079 0.019509
-0.098079 0.019509 0.2 -0.970486 0.160134 0.180314 192 192 192 255 -0.098079 0.019509
-0.092388 0.038268 -0.2 -0.756849 0.343013 -0.556347 192 192 192 255 -0.092388 0.038268
-0.092388 0.038268 0.2 -0.920592 0.346405 0.180314 192 192 192 255 -0.092388 0.038268
-0.083147 0.055557 -0.2 -0.675398 0.484061 -0.556347 192 192 192 255 -0.083147 0.055557
-0.083147 0.055557 0.2 -0.835338 0.519324 0.180315 192 192 192 255 -0.083147 0.055557
-0.070711 0.070711 -0.2 -0.567969 0.606538 -0.556348 192 192 192 255 -0.070711 0.070711
-0.070711 0.070711 0.2 -0.717964 0.67232 0.180316 192 192 192 255 -0.070711 0.070711
-0.055557 0.083147 -0.2 -0.438723 0.705691 -0.556347 192 192 192 255 -0.055557 0.083147
-0.055557 0.083147 0.2 -0.572993 0.799478 0.180316 192 192 192 255 -0.055557 0.083147
-0.038268 0.092388 -0.2 -0.292641 0.777714 -0.556347 192 192 192 255 -0.038268 0.092388
-0.038268 0.092388 0.2 -0.406033 0.895893 0.180315 192 192 192 255 -0.038268 0.092388
-0.019509 0.098079 -0.2 -0.154375 0.935625 -0.317451 192 192 192 255 -0.019509 0.098079
-0.019509 0.098079 0.2 -0.223459 0.95789 0.180315 192 192 192 255 -0.019509 0.098079
0 0.048753 0.335047 0.0184413 0.949482 0.31328 192 192 192 255 0 0.048753
0.009511 0.047816 0.335047 0.203351 0.927633 0.313281 192 192 192 255 0.009511 0.047816
0.018657 0.045041 0.335047 0.380409 0.870141 0.31328 192 192 192 255 0.018657 0.045041
0.027085 0.040536 0.335047 0.542832 0.779223 0.31328 192 192 192 255 0.027085 0.040536
0.034473 0.034473 0.335047 0.684428 0.658341 0.313281 192 192 192 255 0.034473 0.034473
0.040536 0.027085 0.335047 0.799714 0.512166 0.31328 192 192 192 255 0.040536 0.027085
0.045041 0.018657 0.335047 0.884254 0.346338 0.31328 192 192 192 255 0.045041 0.018657
0.047816 0.009511 0.335047 0.934832 0.167167 0.31328 192 192 192 255 0.047816 0.009511
0.048753 0 0.335047 0.949482 -0.0184413 0.31328 192 192 192 255 0.048753 0
0.047816 -0.009511 0.335047 0.927633 -0.203351 0.313281 192 192 192 255 0.047816 -0.009511
0.045041 -0.018657 0.335047 0.870141 -0.380409 0.31328 192 192 192 255 0.045041 -0.018657
0.040536 -0.027085 0.335047 0.779223 -0.542832 0.31328 192 192 192 255 0.040536 -0.027085
0.034473 -0.034473 0.335047 0.658341 -0.684428 0.313281 192 192 192 255 0.034473 -0.034473
0.027085 -0.040536 0.335047 0.512166 -0.799714 0.31328 192 192 192 255 0.027085 -0.040536
0.018657 -0.045041 0.335047 0.346338 -0.884254 0.31328 192 192 192 255 0.018657 -0.045041
0.009511 -0.047816 0.335047 0.167167 -0.934832 0.31328 192 192 192 255 0.009511 -0.047816
-0 -0.048753 0.335047 -0.0184413 -0.949482 0.31328 192 192 192 255 -0 -0.048753
-0.009511 -0.047816 0.335047 -0.203351 -0.927633 0.313281 192 192 192 255 -0.009511 -0.047816
-0.018657 -0.045041 0.335047 -0.380409 -0.870141 0.31328 192 192 192 255 -0.018657 -0.045041
-0.027085 -0.040536 0.335047 -0.542832 -0.779223 0.31328 192 192 192 255 -0.027085 -0.040536
-0.034473 -0.034473 0.335047 -0.684428 -0.658341 0.313281 192 192 192 255 -0.034473 -0.034473
-0.040536 -0.027085 0.335047 -0.799714 -0.512166 0.31328 192 192 192 255 -0.040536 -0.027085
-0.045041 -0.018657 0.335047 -0.884254 -0.346338 0.31328 192 192 192 255 -0.045041 -0.018657
-0.047816 -0.009511 0.335047 -0.934832 -0.167167 0.31328 192 192 192 255 -0.047816 -0.009511
-0.048753 0 0.335047 -0.949482 0.0184413 0.31328 192 192 192 255 -0.048753 0
-0.047816 0.009511 0.335047 -0.927633 0.203351 0.313281 192 192 192 255 -0.047816 0.009511
-0.045041 0.018657 0.335047 -0.870147 0.380394 0.313279 192 192 192 255 -0.045041 0.018657
-0.040536 0.027086 0.335047 -0.779218 0.542839 0.313281 192 192 192 255 -0.040536 0.027086
-0.034473 0.034473 0.335047 -0.658329 0.68444 0.313281 192 192 192 255 -0.034473 0.034473
-0.027085 0.040536 0.335047 -0.512166 0.799714 0.31328 192 192 192 255 -0.027085 0.040536
-0.018657 0.045041 0.335047 -0.346338 0.884254 0.31328 192 192 192 255 -0.018657 0.045041
-0.009511 0.047816 0.335047 -0.167167 0.934832 0.31328 192 192 192 255 -0.009511 0.047816
-0 0 0.523875 2.36519e-006 8.57007e-007 1 192 192 192 255 -0 0
3 0 1 3 
3 0 3 2 
3 2 3 5 
3 2 5 4 
3 4 5 7 
3 4 7 6 
3 6 7 9 
3 6 9 8 
3 8 9 11 
3 8 11 10 
3 10 11 13 
3 10 13 12 
3 12 13 15 
3 12 15 14 
3 14 15 17 
3 14 17 16 
3 16 17 19 
3 16 19 18 
3 18 19 21 
3 18 21 20 
3 20 21 23 
3 20 23 22 
3 22 23 25 
3 22 25 24 
3 24 25 27 
3 24 27 26 
3 26 27 29 
3 26 29 28 
3 28 29 31 
3 28 31 30 
3 30 31 33 
3 30 33 32 
3 32 33 35 
3 32 35 34 
3 34 35 37 
3 34 37 36 
3 36 37 39 
3 36 39 38 
3 38 39 41 
3 38 41 40 
3 40 41 43 
3 40 43 42 
3 42 43 45 
3 42 45 44 
3 44 45 47 
3 44 47 46 
3 46 47 49 
3 46 49 48 
3 48 49 51 
3 48 51 50 
3 50 51 53 
3 50 53 52 
3 52 53 55 
3 52 55 54 
3 54 55 57 
3 54 57 56 
3 56 57 59 
3 56 59 58 
3 58 59 61 
3 58 61 60 
3 55 53 90 
3 55 90 91 
3 60 61 63 
3 60 63 62 
3 62 63 1 
3 62 1 0 
3 0 2 4 
3 0 4 6 
3 0 6 8 
3 0 8 10 
3 0 10 12 
3 0 12 14 
3 0 14 16 
3 0 16 18 
3 0 18 20 
3 0 20 22 
3 0 22 24 
3 0 24 26 
3 0 26 28 
3 0 28 30 
3 0 30 32 
3 0 32 34 
3 0 34 36 
3 0 36 38 
3 0 38 40 
3 0 40 42 
3 0 42 44 
3 0 44 46 
3 0 46 48 
3 0 48 50 
3 0 50 52 
3 0 52 54 
3 0 54 56 
3 0 56 58 
3 0 58 60 
3 0 60 62 
3 76 75 96 
3 11 9 68 
3 11 68 69 
3 29 27 77 
3 29 77 78 
3 47 45 86 
3 47 86 87 
3 3 1 64 
3 3 64 65 
3 1 63 95 
3 1 95 64 
3 21 19 73 
3 21 73 74 
3 39 37 82 
3 39 82 83 
3 57 55 91 
3 57 91 92 
3 13 11 69 
3 13 69 70 
3 31 29 78 
3 31 78 79 
3 49 47 87 
3 49 87 88 
3 5 3 65 
3 5 65 66 
3 23 21 74 
3 23 74 75 
3 41 39 83 
3 41 83 84 
3 59 57 92 
3 59 92 93 
3 15 13 70 
3 15 70 71 
3 33 31 79 
3 33 79 80 
3 51 49 88 
3 51 88 89 
3 7 5 66 
3 7 66 67 
3 25 23 75 
3 25 75 76 
3 43 41 84 
3 43 84 85 
3 61 59 93 
3 61 93 94 
3 17 15 71 
3 17 71 72 
3 35 33 80 
3 35 80 81 
3 53 51 89 
3 53 89 90 
3 9 7 67 
3 9 67 68 
3 27 25 76 
3 27 76 77 
3 45 43 85 
3 45 85 86 
3 63 61 94 
3 63 94 95 
3 19 17 72 
3 19 72 73 
3 37 35 81 
3 37 81 82 
3 90 89 96 
3 77 76 96 
3 91 90 96 
3 78 77 96 
3 65 64 96 
3 92 91 96 
3 79 78 96 
3 66 65 96 
3 93 92 96 
3 80 79 96 
3 67 66 96 
3 94 93 96 
3 81 80 96 
3 68 67 96 
3 95 94 96 
3 82 81 96 
3 69 68 96 
3 64 95 96 
3 83 82 96 
3 70 69 96 
3 84 83 96 
3 71 70 96 
3 85 84 96 
3 72 71 96 
3 86 85 96 
3 73 72 96 
3 87 86 96 
3 74 73 96 
3 88 87 96 
3 75 74 96 
3 89 88 96 
