ply
format ascii 1.0
comment VCGLIB generated
comment TextureFile LowPolyTexture_Variant1.png
element vertex 42
property float x
property float y
property float z
property float nx
property float ny
property float nz
property uchar red
property uchar green
property uchar blue
property uchar alpha
property float texture_u
property float texture_v
element face 80
property list uchar int vertex_indices
end_header
-0.534634 -0.272019 7.78952 -2.00712 -2.53778 2.37033 40 114 51 255 0.341558 0.872501
0.336255 -0.297825 7.65217 2.78591 -2.26051 2.2772 40 114 51 255 0.341558 0.872501
-0.475556 0.879044 7.73541 -1.58772 2.77007 1.5518 40 114 51 255 0.341558 0.872501
0.401223 0.874571 7.73541 1.21854 1.70324 1.45235 40 114 51 255 0.341558 0.872501
-0.475556 0.879045 6.83024 -1.83773 2.59119 -1.88378 40 114 51 255 0.341558 0.872501
0.461988 0.874571 6.83056 1.68544 2.6695 -1.70635 40 114 51 255 0.341558 0.872501
-0.53419 -0.272006 6.77286 -2.5002 -3.35326 -1.43047 40 114 51 255 0.341558 0.872501
0.54667 -0.272104 6.76626 2.50959 -1.76056 -0.619235 40 114 51 255 0.341558 0.872501
-0.639994 0.55357 7.86201 -2.73289 2.00835 3.59268 40 114 51 255 0.341558 0.872501
0.464538 0.553766 7.89018 2.90693 1.13345 3.59244 40 114 51 255 0.341558 0.872501
0.713805 0.553542 6.7259 3.77915 1.7032 -2.37773 40 114 51 255 0.341558 0.872501
-0.635339 0.553728 6.6773 -3.56579 2.16452 -3.34575 40 114 51 255 0.341558 0.872501
-0.646974 0.219339 7.80821 -3.23184 -0.157304 3.99384 40 114 51 255 0.341558 0.872501
0.359854 0.219909 7.75621 3.47262 -1.06462 3.88847 40 114 51 255 0.341558 0.872501
0.673459 0.219329 6.72962 4.38073 -1.10267 -2.16374 40 114 51 255 0.341558 0.872501
-0.629431 0.21964 6.6402 -4.12415 -0.0754506 -3.74339 40 114 51 255 0.341558 0.872501
-0.642961 -0.015624 7.83915 -3.10273 -1.36917 3.68683 40 114 51 255 0.341558 0.872501
0.471499 -0.015929 7.63788 3.99194 -0.886352 3.54319 40 114 51 255 0.341558 0.872501
0.600835 -0.015674 6.8294 4.38028 -1.41076 -2.06962 40 114 51 255 0.341558 0.872501
-0.633098 -0.015395 6.65883 -4.19092 -1.19422 -3.39985 40 114 51 255 0.341558 0.872501
-0.031057 -0.308124 7.79197 0.362975 -4.42073 2.43808 40 114 51 255 0.341558 0.872501
-0.142189 -0.272374 6.41283 0.0545601 -3.67807 -3.69508 40 114 51 255 0.341558 0.872501
-0.045751 -0.016591 6.36902 0.0845093 -1.2216 -5.02633 40 114 51 255 0.341558 0.872501
-0.046328 0.217362 6.32874 0.0941244 0.0707427 -5.25422 40 114 51 255 0.341558 0.872501
-0.008954 0.550461 6.4167 -0.102971 2.53164 -4.86271 40 114 51 255 0.341558 0.872501
-0.162727 1.04968 6.83006 -0.295706 4.71145 -2.20734 40 114 51 255 0.341558 0.872501
-0.156632 0.964445 7.73541 0.160261 4.21357 4.5478 40 114 51 255 0.341558 0.872501
-0.036239 0.553766 7.89018 0.043531 0.427234 5.76408 40 114 51 255 0.341558 0.872501
-0.137543 0.219909 7.9383 0.502226 -0.509147 5.74237 40 114 51 255 0.341558 0.872501
-0.036025 -0.018542 7.89997 0.920814 -1.22587 5.56514 40 114 51 255 0.341558 0.872501
-0.475556 0.939267 7.28273 -4.34011 5.14623 -0.0481867 40 114 51 255 0.341558 0.872501
-0.028196 1.17586 7.28273 -0.575873 4.48548 0.416074 40 114 51 255 0.341558 0.872501
0.44331 0.925844 7.28273 4.73643 5.54188 0.687523 40 114 51 255 0.341558 0.872501
0.659043 0.553766 7.28273 5.4647 0.10737 1.17213 40 114 51 255 0.341558 0.872501
0.612294 0.219852 7.24385 5.67172 -0.953031 1.37741 40 114 51 255 0.341558 0.872501
0.543085 -0.018407 7.24149 5.54408 -1.73828 1.17295 40 114 51 255 0.341558 0.872501
0.403956 -0.316289 7.28273 2.45684 -4.63882 0.413783 40 114 51 255 0.341558 0.872501
-0.031057 -0.427835 7.28273 -0.228979 -4.87844 -0.0589751 40 114 51 255 0.341558 0.872501
-0.596386 -0.282443 7.2784 -2.1714 -3.99603 0.120024 40 114 51 255 0.341558 0.872501
-0.808789 -0.015777 7.12174 -5.15571 -2.3796 -0.127466 40 114 51 255 0.341558 0.872501
-0.877167 0.218268 7.30731 -5.57765 -0.457985 -0.104478 40 114 51 255 0.341558 0.872501
-0.862282 0.55326 7.20994 -5.23002 1.31391 -0.0278813 40 114 51 255 0.341558 0.872501
3 26 27 9 
3 26 9 3 
3 25 31 32 
3 25 32 5 
3 24 25 5 
3 24 5 10 
3 36 37 21 
3 36 21 7 
3 32 33 10 
3 32 10 5 
3 11 41 30 
3 11 30 4 
3 27 28 13 
3 27 13 9 
3 33 34 14 
3 33 14 10 
3 23 24 10 
3 23 10 14 
3 15 40 41 
3 15 41 11 
3 28 29 17 
3 28 17 13 
3 34 35 18 
3 34 18 14 
3 22 23 14 
3 22 14 18 
3 19 39 40 
3 19 40 15 
3 29 20 1 
3 29 1 17 
3 35 36 7 
3 35 7 18 
3 21 22 18 
3 21 18 7 
3 6 38 39 
3 6 39 19 
3 6 21 37 
3 6 37 38 
3 19 22 21 
3 19 21 6 
3 15 23 22 
3 15 22 19 
3 11 24 23 
3 11 23 15 
3 4 25 24 
3 4 24 11 
3 30 31 25 
3 30 25 4 
3 8 27 26 
3 8 26 2 
3 12 28 27 
3 12 27 8 
3 16 29 28 
3 16 28 12 
3 0 20 29 
3 0 29 16 
3 2 26 31 
3 2 31 30 
3 32 31 26 
3 32 26 3 
3 9 33 32 
3 9 32 3 
3 13 34 33 
3 13 33 9 
3 17 35 34 
3 17 34 13 
3 1 36 35 
3 1 35 17 
3 20 37 36 
3 20 36 1 
3 38 37 20 
3 38 20 0 
3 39 38 0 
3 39 0 16 
3 40 39 16 
3 40 16 12 
3 41 40 12 
3 41 12 8 
3 30 41 8 
3 30 8 2 
