ply
format ascii 1.0
comment VCGLIB generated
comment TextureFile LowPolyTexture_Variant1.png
element vertex 51
property float x
property float y
property float z
property float nx
property float ny
property float nz
property uchar red
property uchar green
property uchar blue
property uchar alpha
property float texture_u
property float texture_v
element face 94
property list uchar int vertex_indices
end_header
3.03757 0.19045 -10.4701 -3.38957 -1.87966 0.210245 255 110 253 255 0.070976 0.949126
3.04741 0.191987 -10.456 0.0187365 -0.839856 2.56357 255 110 253 255 0.070976 0.949126
3.05993 0.186536 -10.4611 2.59309 -0.917323 1.06395 255 110 253 255 0.070976 0.949126
3.05241 0.183697 -10.474 -0.982938 -2.3721 -1.22858 255 110 253 255 0.070976 0.949126
3.03857 0.239328 -10.4704 -4.03593 1.17654 -0.012122 255 110 253 255 0.070976 0.949126
3.04984 0.225971 -10.4556 -0.77559 0.617729 3.31972 255 110 253 255 0.070976 0.949126
3.06114 0.236111 -10.4704 3.56327 0.851937 0.850345 255 110 253 255 0.070976 0.949126
3.04984 0.225972 -10.4851 1.61157 0.701656 -3.79449 255 110 253 255 0.070976 0.949126
3.03822 0.22232 -10.4703 -4.52841 0.017432 -0.238538 255 110 253 255 0.070976 0.949126
3.049 0.214146 -10.4558 -0.336604 0.098895 3.93971 255 110 253 255 0.070976 0.949126
3.06072 0.21886 -10.4671 4.58293 0.0549052 0.667755 255 110 253 255 0.070976 0.949126
3.05071 0.211094 -10.4848 0.376619 -0.590825 -3.40045 255 110 253 255 0.070976 0.949126
3.05547 0.231028 -10.463 4.94608 0.965185 4.77489 255 110 253 255 0.070976 0.949126
3.05484 0.216497 -10.4614 3.72019 0.311899 4.64127 255 110 253 255 0.070976 0.949126
3.05366 0.189269 -10.4585 -0.0430516 -3.46928 2.97665 255 110 253 255 0.070976 0.949126
3.04497 0.187083 -10.4721 -1.81837 -2.10017 -0.867264 255 110 253 255 0.070976 0.949126
3.04445 0.216722 -10.4776 -4.04191 -0.653589 -4.30001 255 110 253 255 0.070976 0.949126
3.04419 0.232668 -10.4777 -4.99298 0.777028 -4.67206 255 110 253 255 0.070976 0.949126
3.04959 0.257161 -10.4704 2.3465e-006 1.64656e-005 -2.42793e-007 255 110 253 255 0.070976 0.949126
3.04662 0.256667 -10.4704 -2.05416 2.3761 -0.755101 255 110 253 255 0.070976 0.949126
3.04811 0.257372 -10.4704 -0.809287 1.80978 0.7469 255 110 253 255 0.070976 0.949126
3.04823 0.254804 -10.4725 -2.69614 2.66433 -4.44069 255 110 253 255 0.070976 0.949126
3.04893 0.256428 -10.4714 -0.83548 1.79902 -2.25062 255 110 253 255 0.070976 0.949126
3.04984 0.252998 -10.4662 -0.045375 2.90797 5.0708 255 110 253 255 0.070976 0.949126
3.04989 0.255335 -10.4682 0.524049 1.75879 2.17981 255 110 253 255 0.070976 0.949126
3.05141 0.254506 -10.4683 3.19534 2.54289 4.22835 255 110 253 255 0.070976 0.949126
3.05071 0.256009 -10.4691 1.22137 1.71874 2.13388 255 110 253 255 0.070976 0.949126
3.053 0.255895 -10.4704 3.2377 2.52433 0.0111845 255 110 253 255 0.070976 0.949126
3.0517 0.25686 -10.4704 1.25298 1.69792 -0.713566 255 110 253 255 0.070976 0.949126
3.04984 0.252998 -10.4745 -0.0152721 2.57619 -4.32925 255 110 253 255 0.070976 0.949126
3.04988 0.255231 -10.4728 -0.146829 1.76874 -2.20343 255 110 253 255 0.070976 0.949126
3.05073 -0.036861 -10.4604 -2.12135 -1 0.706911 40 114 51 255 0.343983 0.874535
3.05806 -0.036861 -10.453 0.707141 -2 2.12117 40 114 51 255 0.343983 0.874535
3.04251 0.206339 -10.4704 -2.09456 1.8787 -0.70267 40 114 51 255 0.343983 0.874535
3.04984 0.206339 -10.4631 -0.693036 1.49973 2.09129 40 114 51 255 0.343983 0.874535
3.04984 0.206339 -10.4777 0.69286 0.500226 -2.09176 40 114 51 255 0.343983 0.874535
3.05717 0.206339 -10.4704 2.0947 2.12125 0.702204 40 114 51 255 0.343983 0.874535
3.05806 -0.036861 -10.4677 -0.707038 -2 -2.12157 40 114 51 255 0.343983 0.874535
3.06539 -0.036861 -10.4604 2.12118 -1 -0.707337 40 114 51 255 0.343983 0.874535
3.04149 0.155112 -10.4585 -4.19763 -0.0252121 -0.0296439 40 114 51 255 0.343983 0.874535
3.04882 0.155112 -10.4512 0.0254998 0.0722153 4.18518 40 114 51 255 0.343983 0.874535
3.05614 0.155112 -10.4585 4.19761 0.0252389 0.0286915 40 114 51 255 0.343983 0.874535
3.04882 0.155112 -10.4658 -0.0255239 -0.0722405 -4.18613 40 114 51 255 0.343983 0.874535
3.05162 0.090379 -10.4676 -4.20703 -0.469378 -0.0300977 40 114 51 255 0.343983 0.874535
3.05895 0.090379 -10.4603 0.0184204 0.0466343 4.22066 40 114 51 255 0.343983 0.874535
3.06628 0.090379 -10.4676 4.20694 0.46935 0.0292829 40 114 51 255 0.343983 0.874535
3.05895 0.090379 -10.4749 -0.0184224 -0.046613 -4.22149 40 114 51 255 0.343983 0.874535
3.05073 0.021033 -10.4604 -4.23627 0.100638 -0.00374985 40 114 51 255 0.343983 0.874535
3.05806 0.021033 -10.453 -0.000576079 0.21205 4.23695 40 114 51 255 0.343983 0.874535
3.06539 0.021033 -10.4604 4.23623 -0.100688 0.00299442 40 114 51 255 0.343983 0.874535
3.05806 0.021033 -10.4677 0.000484526 -0.212101 -4.2377 40 114 51 255 0.343983 0.874535
3 14 15 3 
3 14 3 2 
3 8 9 5 
3 8 5 4 
3 12 13 10 
3 12 10 6 
3 10 11 7 
3 10 7 6 
3 11 16 17 
3 11 17 7 
3 0 1 9 
3 0 9 8 
3 13 14 2 
3 13 2 10 
3 2 3 11 
3 2 11 10 
3 3 15 16 
3 3 16 11 
3 9 13 12 
3 9 12 5 
3 1 14 13 
3 1 13 9 
3 0 15 14 
3 0 14 1 
3 16 15 0 
3 16 0 8 
3 17 16 8 
3 17 8 4 
3 19 20 22 
3 19 22 21 
3 20 19 23 
3 20 23 24 
3 21 22 30 
3 21 30 29 
3 24 23 25 
3 24 25 26 
3 26 25 27 
3 26 27 28 
3 28 27 29 
3 28 29 30 
3 30 18 28 
3 4 19 21 
3 4 21 17 
3 4 5 23 
3 4 23 19 
3 12 25 23 
3 12 23 5 
3 6 27 25 
3 6 25 12 
3 7 29 27 
3 7 27 6 
3 17 21 29 
3 17 29 7 
3 28 18 26 
3 22 18 30 
3 24 18 20 
3 22 20 18 
3 26 18 24 
3 39 40 34 
3 39 34 33 
3 33 34 36 
3 33 36 35 
3 35 36 41 
3 35 41 42 
3 37 38 32 
3 37 32 31 
3 40 41 36 
3 40 36 34 
3 42 39 33 
3 42 33 35 
3 43 44 40 
3 43 40 39 
3 44 45 41 
3 44 41 40 
3 42 41 45 
3 42 45 46 
3 46 43 39 
3 46 39 42 
3 47 48 44 
3 47 44 43 
3 48 49 45 
3 48 45 44 
3 46 45 49 
3 46 49 50 
3 50 47 43 
3 50 43 46 
3 31 32 48 
3 31 48 47 
3 32 38 49 
3 32 49 48 
3 50 49 38 
3 50 38 37 
3 37 31 47 
3 37 47 50 
