ply
format ascii 1.0
comment VCGLIB generated
comment TextureFile LowPolyTexture_Variant1.png
element vertex 143
property float x
property float y
property float z
property float nx
property float ny
property float nz
property uchar red
property uchar green
property uchar blue
property uchar alpha
property float texture_u
property float texture_v
element face 262
property list uchar int vertex_indices
end_header
2.73046 -0.066535 -10.3964 -1.32417 -1.13308 2.1178 40 114 51 255 0.338007 0.872738
2.75147 -0.066649 -10.3921 1.80071 -1.73295 1.08689 40 114 51 255 0.338007 0.872738
2.73934 0.286164 -10.393 -0.803891 2.29615 2.08955 40 114 51 255 0.338007 0.872738
2.7474 0.286437 -10.3992 2.25798 1.54258 0.951811 40 114 51 255 0.338007 0.872738
2.73364 0.286179 -10.4035 -1.89081 0.833034 -0.926446 40 114 51 255 0.338007 0.872738
2.74494 0.286515 -10.4089 1.17903 2.06203 -1.6495 40 114 51 255 0.338007 0.872738
2.72751 -0.066504 -10.4171 -1.95393 -2.21355 -0.706659 40 114 51 255 0.338007 0.872738
2.75183 -0.06659 -10.4166 1.02492 -0.847912 -1.94892 40 114 51 255 0.338007 0.872738
2.75273 0.206735 -10.3856 1.58316 0.102617 4.17252 40 114 51 255 0.338007 0.872738
2.75631 0.206775 -10.3969 4.75628 -0.249601 -0.708317 40 114 51 255 0.338007 0.872738
2.74116 0.207429 -10.4089 -0.283906 0.101924 -3.85939 40 114 51 255 0.338007 0.872738
2.73094 0.206349 -10.3901 -3.4983 0.448053 1.06516 40 114 51 255 0.338007 0.872738
2.74171 0.155497 -10.3868 0.0500864 -0.30039 3.97285 40 114 51 255 0.338007 0.872738
2.75009 0.154235 -10.3976 3.87483 -0.459405 0.715789 40 114 51 255 0.338007 0.872738
2.73831 0.155607 -10.4131 0.640236 0.215142 -3.25979 40 114 51 255 0.338007 0.872738
2.72419 0.15761 -10.3969 -3.09108 0.39891 0.038637 40 114 51 255 0.338007 0.872738
2.71764 0.049516 -10.3965 -2.33666 -0.351485 3.74533 40 114 51 255 0.338007 0.872738
2.73465 0.04703 -10.3943 2.88994 -0.122315 2.46529 40 114 51 255 0.338007 0.872738
2.73673 0.047057 -10.4162 2.20338 0.442685 -2.98327 40 114 51 255 0.338007 0.872738
2.71434 0.050181 -10.4166 -2.96359 0.123891 -1.63128 40 114 51 255 0.338007 0.872738
2.73372 0.258365 -10.3976 -3.99066 0.0779199 0.304665 40 114 51 255 0.338007 0.872738
2.74542 0.258952 -10.4085 0.372504 -0.118914 -4.06009 40 114 51 255 0.338007 0.872738
2.75294 0.258756 -10.3975 4.97697 0.584492 0.0132965 40 114 51 255 0.338007 0.872738
2.74644 0.258392 -10.3887 0.825782 0.761544 4.36306 40 114 51 255 0.338007 0.872738
2.72912 0.350605 -10.4008 -4.11828 -0.497348 0.821874 212 0 0 255 0.033186 0.990463
2.74218 0.350605 -10.392 -0.754127 -0.669483 4.98038 212 0 0 255 0.033186 0.990463
2.75808 0.350605 -10.3964 3.38178 -0.92872 0.906438 212 0 0 255 0.033186 0.990463
2.73773 0.350605 -10.4226 -0.217553 -0.512425 -3.03308 212 0 0 255 0.033186 0.990463
2.72487 0.374823 -10.4011 -2.4389 -0.141377 0.0290116 212 0 0 255 0.033186 0.990463
2.74155 0.374823 -10.3881 -0.658122 0.0884922 2.43461 212 0 0 255 0.033186 0.990463
2.7636 0.374823 -10.4068 1.72468 0.0991817 0.940329 212 0 0 255 0.033186 0.990463
2.73613 0.374823 -10.4266 0.390917 -0.516535 -1.8239 212 0 0 255 0.033186 0.990463
2.75231 0.408512 -10.4072 -5.82077e-011 0.00152347 0 212 0 0 255 0.033186 0.990463
2.73247 0.29447 -10.3875 -2.38804 0.147891 3.14076 212 0 0 255 0.033186 0.990463
2.72711 0.306018 -10.4194 -2.42581 -0.765106 -2.62278 212 0 0 255 0.033186 0.990463
2.75603 0.295135 -10.4091 3.53468 -0.630317 -1.56011 212 0 0 255 0.033186 0.990463
2.74434 0.29479 -10.3911 3.48603 0.29359 4.20941 212 0 0 255 0.033186 0.990463
2.71996 0.330068 -10.407 -4.17646 -0.328057 0.668789 212 0 0 255 0.033186 0.990463
2.74058 0.330068 -10.4261 -0.285303 -0.363467 -3.60727 212 0 0 255 0.033186 0.990463
2.75948 0.330068 -10.4023 3.70983 -0.743936 0.523187 212 0 0 255 0.033186 0.990463
2.73802 0.330068 -10.3888 -0.370307 -0.726694 4.90664 212 0 0 255 0.033186 0.990463
2.72618 0.356054 -10.4004 -4.32366 -1.34616 1.31593 212 0 0 255 0.033186 0.990463
2.74209 0.356054 -10.3892 -0.265104 -0.704639 4.90362 212 0 0 255 0.033186 0.990463
2.76162 0.356054 -10.3973 3.19965 -1.17738 0.615941 212 0 0 255 0.033186 0.990463
2.73625 0.356054 -10.4257 -0.592005 -1.46866 -3.02428 212 0 0 255 0.033186 0.990463
2.74025 0.283051 -10.3889 0.15517 -2.29958 1.88611 212 0 0 255 0.033186 0.990463
2.73177 0.283013 -10.406 -1.81405 -1.86065 -0.55417 212 0 0 255 0.033186 0.990463
2.74758 0.283529 -10.4109 1.0736 -2.85711 -1.63989 212 0 0 255 0.033186 0.990463
2.75017 0.283445 -10.3984 2.42071 -1.4472 1.39601 212 0 0 255 0.033186 0.990463
2.72759 0.317181 -10.3988 -3.90716 -0.243939 1.99598 212 0 0 255 0.033186 0.990463
2.73456 0.317258 -10.4192 -1.02271 -1.00411 -3.56324 212 0 0 255 0.033186 0.990463
2.75391 0.317407 -10.4065 3.79068 -0.862639 -0.223298 212 0 0 255 0.033186 0.990463
2.74092 0.31727 -10.3949 1.26798 -0.153576 4.84349 212 0 0 255 0.033186 0.990463
2.92234 0.159583 -10.395 0.682625 -1.48268 -1.37845 40 114 51 255 0.346154 0.873779
2.73977 0.093221 -10.41 -1.96861 -0.226019 -1.55409 40 114 51 255 0.346154 0.873779
2.92368 0.161576 -10.3966 2.0095 1.78536 0.775624 40 114 51 255 0.346154 0.873779
2.73973 0.101798 -10.4097 -2.86828 1.50456 -1.06459 40 114 51 255 0.346154 0.873779
2.90989 0.171779 -10.3834 1.66113 0.811888 2.72366 40 114 51 255 0.346154 0.873779
2.74098 0.115719 -10.394 -3.70965 0.670691 1.77928 40 114 51 255 0.346154 0.873779
2.90861 0.169819 -10.3817 1.40416 -1.86917 1.9729 40 114 51 255 0.346154 0.873779
2.74084 0.106867 -10.3943 0.0652281 -1.23858 1.18071 40 114 51 255 0.346154 0.873779
2.8605 0.18416 -10.409 0.0645082 -4.08645 -2.61386 40 114 51 255 0.346154 0.873779
2.8525 0.168361 -10.3624 0.535088 -2.47986 3.4975 40 114 51 255 0.346154 0.873779
2.85632 0.172035 -10.3619 0.645057 3.5948 2.67038 40 114 51 255 0.346154 0.873779
2.86465 0.188001 -10.4087 0.540322 1.52619 -3.50179 40 114 51 255 0.346154 0.873779
2.79567 0.170375 -10.4179 1.52204 -1.82589 -2.82765 40 114 51 255 0.346154 0.873779
2.79952 0.179003 -10.416 -1.52333 3.10137 -2.5249 40 114 51 255 0.346154 0.873779
2.79607 0.174388 -10.3643 -2.14809 1.98417 2.81673 40 114 51 255 0.346154 0.873779
2.7925 0.166798 -10.366 0.0316647 -2.71417 2.50299 40 114 51 255 0.346154 0.873779
2.7574 0.126489 -10.5792 -0.608759 -1.71769 -1.26519 40 114 51 255 0.346154 0.873779
2.71652 0.060833 -10.4119 -1.77421 -0.854318 0.991717 40 114 51 255 0.346154 0.873779
2.75466 0.127426 -10.5796 -0.951126 2.25178 -1.61747 40 114 51 255 0.346154 0.873779
2.71675 0.069496 -10.4121 -2.02531 1.54601 1.52588 40 114 51 255 0.346154 0.873779
2.76362 0.140763 -10.5657 1.3937 2.28616 -1.71539 40 114 51 255 0.346154 0.873779
2.73135 0.081009 -10.4104 0.626205 1.19073 3.77995 40 114 51 255 0.346154 0.873779
2.76636 0.139832 -10.5653 2.26668 -0.205927 -2.24664 40 114 51 255 0.346154 0.873779
2.73088 0.072984 -10.41 1.44701 -1.37231 0.844797 40 114 51 255 0.346154 0.873779
2.74319 0.12235 -10.5216 0.00877398 -4.68482 -0.925944 40 114 51 255 0.346154 0.873779
2.79358 0.137251 -10.5229 4.17266 -0.389771 -0.794097 40 114 51 255 0.346154 0.873779
2.79093 0.142562 -10.5257 0.0990318 4.37437 -0.0817427 40 114 51 255 0.346154 0.873779
2.74054 0.127429 -10.5242 -3.95038 -0.2646 -0.850764 40 114 51 255 0.346154 0.873779
2.73246 0.109175 -10.476 -1.50011 -3.26026 -1.78732 40 114 51 255 0.346154 0.873779
2.73199 0.117218 -10.4794 -3.97891 2.16687 -0.316229 40 114 51 255 0.346154 0.873779
2.78158 0.140117 -10.4761 1.2804 3.29516 2.01148 40 114 51 255 0.346154 0.873779
2.78227 0.131245 -10.4728 3.46567 -2.01871 0.979815 40 114 51 255 0.346154 0.873779
2.76273 0.13899 -10.23 1.70754 -0.763097 0.839251 40 114 51 255 0.346154 0.873779
2.72905 0.059134 -10.3987 1.31442 -0.860083 -1.98654 40 114 51 255 0.346154 0.873779
2.76144 0.141184 -10.2303 -0.639744 2.33837 1.76588 40 114 51 255 0.346154 0.873779
2.73078 0.067621 -10.3986 1.18759 1.45399 -2.54772 40 114 51 255 0.346154 0.873779
2.74453 0.134821 -10.2414 -2.28276 1.31134 2.24524 40 114 51 255 0.346154 0.873779
2.72456 0.081379 -10.3967 -2.04518 1.14868 -3.03197 40 114 51 255 0.346154 0.873779
2.74253 0.13259 -10.2411 -1.31606 -1.43409 2.4022 40 114 51 255 0.346154 0.873779
2.72261 0.073575 -10.3969 -1.63036 -1.29235 0.0310277 40 114 51 255 0.346154 0.873779
2.76074 0.134711 -10.289 2.6304 -4.03503 0.502443 40 114 51 255 0.346154 0.873779
2.71229 0.122633 -10.2749 -3.13929 -1.72961 1.5302 40 114 51 255 0.346154 0.873779
2.71286 0.131451 -10.2729 -2.41361 3.99476 0.481262 40 114 51 255 0.346154 0.873779
2.7621 0.143666 -10.2872 3.63651 1.64074 -0.097697 40 114 51 255 0.346154 0.873779
2.75766 0.113138 -10.3349 2.47228 -2.87283 1.12154 40 114 51 255 0.346154 0.873779
2.75942 0.125365 -10.332 2.92253 2.3506 -1.5767 40 114 51 255 0.346154 0.873779
2.7147 0.134116 -10.3231 -2.63502 2.70916 -1.70824 40 114 51 255 0.346154 0.873779
2.71479 0.124435 -10.3258 -3.06551 -2.38292 0.537762 40 114 51 255 0.346154 0.873779
2.57585 0.207523 -10.3907 -1.51361 0.720586 0.754474 40 114 51 255 0.346154 0.873779
2.73679 0.156135 -10.3922 2.16509 -0.998878 1.32514 40 114 51 255 0.346154 0.873779
2.57696 0.209648 -10.3891 0.53955 2.45741 -0.0292726 40 114 51 255 0.346154 0.873779
2.73833 0.161759 -10.3922 1.54768 0.777423 1.29704 40 114 51 255 0.346154 0.873779
2.59254 0.20367 -10.4022 0.734872 2.44332 -2.37352 40 114 51 255 0.346154 0.873779
2.73971 0.171786 -10.4072 1.60301 0.922376 -1.91474 40 114 51 255 0.346154 0.873779
2.59143 0.201546 -10.4039 -1.91873 0.547358 -2.1688 40 114 51 255 0.346154 0.873779
2.738 0.165153 -10.4073 1.9764 -1.3836 -1.16123 40 114 51 255 0.346154 0.873779
2.62679 0.181037 -10.3764 -0.756483 -1.05326 2.89236 40 114 51 255 0.346154 0.873779
2.61677 0.163323 -10.4231 -1.12691 -1.34388 -1.36752 40 114 51 255 0.346154 0.873779
2.61824 0.169008 -10.4195 0.850308 3.73924 -4.22739 40 114 51 255 0.346154 0.873779
2.62821 0.186309 -10.3809 1.32238 4.58111 1.72865 40 114 51 255 0.346154 0.873779
2.67019 0.169117 -10.3733 0.268099 -1.06464 2.07756 40 114 51 255 0.346154 0.873779
2.6711 0.174985 -10.3789 0.788288 3.75264 2.34381 40 114 51 255 0.346154 0.873779
2.67082 0.171109 -10.4218 -0.133377 3.77754 -3.42543 40 114 51 255 0.346154 0.873779
2.66986 0.165177 -10.4253 0.576346 -0.934125 -2.38639 40 114 51 255 0.346154 0.873779
2.58368 0.207071 -10.3948 0.694418 5.00445 -2.90978 40 114 51 255 0.346154 0.873779
2.62387 0.185736 -10.3975 1.82058 5.16976 -2.12513 40 114 51 255 0.346154 0.873779
2.67114 0.173966 -10.3974 0.0151158 6.82993 -0.646937 40 114 51 255 0.346154 0.873779
2.73882 0.165701 -10.3987 4.79115 2.65474 0.749993 40 114 51 255 0.346154 0.873779
2.73739 0.160128 -10.3987 0.890895 -4.17182 -1.04573 40 114 51 255 0.346154 0.873779
2.67025 0.168405 -10.3957 0.104904 -6.83904 0.828219 40 114 51 255 0.346154 0.873779
2.62246 0.180387 -10.3966 -1.99985 -5.17886 1.97275 40 114 51 255 0.346154 0.873779
2.58256 0.204947 -10.3964 -2.47511 -0.937594 -1.08291 40 114 51 255 0.346154 0.873779
2.60455 0.191844 -10.3827 -2.0579 -2.78111 2.47837 40 114 51 255 0.346154 0.873779
2.60505 0.186434 -10.3965 -3.36635 -4.56865 1.25286 40 114 51 255 0.346154 0.873779
2.60571 0.179291 -10.4148 -0.641923 0.650946 -2.90565 40 114 51 255 0.346154 0.873779
2.60701 0.183486 -10.412 2.38108 4.01173 -2.81922 40 114 51 255 0.346154 0.873779
2.60635 0.190527 -10.3963 2.74872 4.99503 -1.37983 40 114 51 255 0.346154 0.873779
2.60585 0.19586 -10.3844 0.629676 3.01209 3.23217 40 114 51 255 0.346154 0.873779
2.65424 0.173072 -10.3744 -0.244353 -0.959038 2.55378 40 114 51 255 0.346154 0.873779
2.65265 0.170006 -10.396 -0.830306 -4.67138 1.083 40 114 51 255 0.346154 0.873779
2.65006 0.157481 -10.4245 -0.213221 -2.88516 -1.43388 40 114 51 255 0.346154 0.873779
2.65119 0.163103 -10.4253 -0.255756 3.48588 -3.95929 40 114 51 255 0.346154 0.873779
2.65369 0.175456 -10.3974 0.653213 4.55191 -1.58087 40 114 51 255 0.346154 0.873779
2.65528 0.178683 -10.3796 1.28586 5.82396 1.66704 40 114 51 255 0.346154 0.873779
2.70216 0.165796 -10.3821 0.0921144 -1.4013 1.58293 40 114 51 255 0.346154 0.873779
2.70267 0.171597 -10.397 -0.493725 -4.80209 -0.576331 40 114 51 255 0.346154 0.873779
2.70216 0.167722 -10.4168 0.420349 -3.359 -2.63655 40 114 51 255 0.346154 0.873779
2.70329 0.173286 -10.4149 0.874816 3.8195 -2.73446 40 114 51 255 0.346154 0.873779
2.70369 0.176947 -10.3979 0.364684 4.79314 0.36419 40 114 51 255 0.346154 0.873779
2.70335 0.171351 -10.3851 1.46242 4.60075 3.82999 40 114 51 255 0.346154 0.873779
3 8 9 22 
3 8 22 23 
3 2 3 5 
3 2 5 4 
3 20 21 10 
3 20 10 11 
3 6 7 1 
3 6 1 0 
3 9 10 21 
3 9 21 22 
3 11 8 23 
3 11 23 20 
3 12 13 9 
3 12 9 8 
3 13 14 10 
3 13 10 9 
3 11 10 14 
3 11 14 15 
3 15 12 8 
3 15 8 11 
3 16 17 13 
3 16 13 12 
3 17 18 14 
3 17 14 13 
3 15 14 18 
3 15 18 19 
3 19 16 12 
3 19 12 15 
3 0 1 17 
3 0 17 16 
3 1 7 18 
3 1 18 17 
3 19 18 7 
3 19 7 6 
3 6 0 16 
3 6 16 19 
3 4 5 21 
3 4 21 20 
3 22 21 5 
3 22 5 3 
3 23 22 3 
3 23 3 2 
3 20 23 2 
3 20 2 4 
3 45 46 47 
3 45 47 48 
3 41 42 29 
3 41 29 28 
3 42 43 30 
3 42 30 29 
3 43 44 31 
3 43 31 30 
3 44 41 28 
3 44 28 31 
3 28 29 32 
3 29 30 32 
3 30 31 32 
3 31 28 32 
3 49 50 34 
3 49 34 33 
3 50 51 35 
3 50 35 34 
3 51 52 36 
3 51 36 35 
3 52 49 33 
3 52 33 36 
3 24 27 38 
3 24 38 37 
3 27 26 39 
3 27 39 38 
3 26 25 40 
3 26 40 39 
3 25 24 37 
3 25 37 40 
3 24 25 42 
3 24 42 41 
3 25 26 43 
3 25 43 42 
3 26 27 44 
3 26 44 43 
3 27 24 41 
3 27 41 44 
3 33 34 46 
3 33 46 45 
3 34 35 47 
3 34 47 46 
3 35 36 48 
3 35 48 47 
3 36 33 45 
3 36 45 48 
3 37 38 50 
3 37 50 49 
3 38 39 51 
3 38 51 50 
3 39 40 52 
3 39 52 51 
3 40 37 49 
3 40 49 52 
3 64 61 65 
3 64 65 66 
3 63 64 66 
3 63 66 67 
3 62 63 67 
3 62 67 68 
3 61 62 68 
3 61 68 65 
3 54 60 58 
3 54 58 56 
3 59 53 55 
3 59 55 57 
3 59 62 61 
3 59 61 53 
3 57 63 62 
3 57 62 59 
3 55 64 63 
3 55 63 57 
3 53 61 64 
3 53 64 55 
3 66 65 54 
3 66 54 56 
3 67 66 56 
3 67 56 58 
3 68 67 58 
3 68 58 60 
3 65 68 60 
3 65 60 54 
3 80 77 81 
3 80 81 82 
3 79 80 82 
3 79 82 83 
3 78 79 83 
3 78 83 84 
3 77 78 84 
3 77 84 81 
3 70 76 74 
3 70 74 72 
3 75 69 71 
3 75 71 73 
3 75 78 77 
3 75 77 69 
3 73 79 78 
3 73 78 75 
3 71 80 79 
3 71 79 73 
3 69 77 80 
3 69 80 71 
3 82 81 70 
3 82 70 72 
3 83 82 72 
3 83 72 74 
3 84 83 74 
3 84 74 76 
3 81 84 76 
3 81 76 70 
3 96 93 97 
3 96 97 98 
3 95 96 98 
3 95 98 99 
3 94 95 99 
3 94 99 100 
3 93 94 100 
3 93 100 97 
3 86 92 90 
3 86 90 88 
3 91 85 87 
3 91 87 89 
3 91 94 93 
3 91 93 85 
3 89 95 94 
3 89 94 91 
3 87 96 95 
3 87 95 89 
3 85 93 96 
3 85 96 87 
3 98 97 86 
3 98 86 88 
3 99 98 88 
3 99 88 90 
3 100 99 90 
3 100 90 92 
3 97 100 92 
3 97 92 86 
3 136 131 113 
3 136 113 114 
3 134 135 119 
3 134 119 115 
3 133 134 115 
3 133 115 116 
3 122 132 133 
3 122 133 116 
3 120 121 108 
3 120 108 106 
3 107 124 117 
3 107 117 105 
3 126 127 110 
3 126 110 123 
3 127 128 111 
3 127 111 110 
3 128 129 118 
3 128 118 111 
3 130 125 109 
3 130 109 112 
3 142 137 102 
3 142 102 104 
3 140 141 120 
3 140 120 106 
3 139 140 106 
3 139 106 108 
3 121 138 139 
3 121 139 108 
3 129 130 112 
3 129 112 118 
3 119 135 136 
3 119 136 114 
3 120 141 142 
3 120 142 104 
3 102 121 120 
3 102 120 104 
3 137 138 121 
3 137 121 102 
3 131 132 122 
3 131 122 113 
3 125 126 123 
3 125 123 109 
3 117 124 101 
3 117 101 103 
3 124 126 125 
3 124 125 101 
3 107 127 126 
3 107 126 124 
3 105 128 127 
3 105 127 107 
3 117 129 128 
3 117 128 105 
3 103 130 129 
3 103 129 117 
3 101 125 130 
3 101 130 103 
3 109 123 132 
3 109 132 131 
3 133 132 123 
3 133 123 110 
3 110 111 134 
3 110 134 133 
3 111 118 135 
3 111 135 134 
3 136 135 118 
3 136 118 112 
3 112 109 131 
3 112 131 136 
3 113 122 138 
3 113 138 137 
3 139 138 122 
3 139 122 116 
3 116 115 140 
3 116 140 139 
3 115 119 141 
3 115 141 140 
3 142 141 119 
3 142 119 114 
3 114 113 137 
3 114 137 142 
