ply
format ascii 1.0
comment VCGLIB generated
comment TextureFile LowPolyTexture_Variant1.png
element vertex 192
property float x
property float y
property float z
property float nx
property float ny
property float nz
property uchar red
property uchar green
property uchar blue
property uchar alpha
property float texture_u
property float texture_v
element face 330
property list uchar int vertex_indices
end_header
2.3279 0.60152 6.06476 -3.77444 1.26293 -0.247659 40 114 51 255 0.338045 0.871517
3.54085 3.14984 6.06476 -3.0562 5.5744 -1.11142 40 114 51 255 0.342319 0.870398
4.75381 3.23044 6.06476 -0.253888 5.75134 -1.31151 40 114 51 255 0.342441 0.870366
5.96676 3.2625 6.06476 -0.597986 5.48226 -2.1261 40 114 51 255 0.34197 0.870489
7.17971 3.45958 6.06476 -0.738721 5.31954 -2.5736 40 114 51 255 0.3419 0.870507
8.39266 3.56503 6.06476 -0.0823372 5.47869 -2.34013 40 114 51 255 0.342479 0.870356
9.60562 3.50254 6.06476 -0.031779 5.60765 -1.99003 40 114 51 255 0.342576 0.87033
10.8186 3.61791 6.06476 0.217073 5.634 -1.79076 40 114 51 255 0.342541 0.87034
12.0315 3.41634 6.06476 0.747104 5.69736 -1.47798 40 114 51 255 0.342444 0.870365
13.2445 3.31028 6.06476 0.422987 5.80743 -1.16443 40 114 51 255 0.34258 0.870329
14.458 3.2454 6.06476 1.13548 5.72398 -0.862736 40 114 51 255 0.34248 0.870356
2.3279 0.601518 4.85181 -2.74651 1.18309 0.063643 40 114 51 255 0.338045 0.871517
3.54085 2.79936 4.85181 -2.38819 4.61096 -1.83461 40 114 51 255 0.341732 0.870552
4.75381 2.85661 4.85181 0.169466 5.57004 -2.14407 40 114 51 255 0.341827 0.870526
5.96676 2.60984 4.85181 0.1772 5.49633 -2.32541 40 114 51 255 0.34141 0.870636
7.17971 2.64063 4.85181 -0.519316 5.3189 -2.66819 40 114 51 255 0.341405 0.870637
8.39266 2.87533 4.85181 -0.427336 5.25428 -2.83449 40 114 51 255 0.341852 0.87052
9.60562 2.96853 4.85181 -0.254643 5.33064 -2.73561 40 114 51 255 0.342012 0.870478
10.8186 3.01289 4.85181 -0.00469759 5.41542 -2.54766 40 114 51 255 0.342048 0.870468
12.0315 2.91385 4.85181 0.366998 5.49849 -2.35876 40 114 51 255 0.34192 0.870502
13.2445 2.88999 4.85181 0.241612 5.56364 -2.22297 40 114 51 255 0.341883 0.870512
14.4574 2.86004 4.85181 1.05248 5.53255 -1.86125 40 114 51 255 0.341833 0.870525
2.3279 0.601517 12.2387 -2.54356 1.58395 0.0876175 40 114 51 255 0.338045 0.871517
3.54085 2.70139 12.2387 -2.89795 4.44399 1.10282 40 114 51 255 0.341567 0.870595
4.75381 2.82888 12.2387 -0.277917 5.66051 1.89239 40 114 51 255 0.341781 0.870539
5.96676 2.76228 12.2387 -0.110968 5.56525 2.19937 40 114 51 255 0.341669 0.870568
7.17971 2.86656 12.2387 -1.08458 5.48578 2.06397 40 114 51 255 0.341829 0.870526
8.39266 3.31043 12.2387 -1.04732 5.53664 1.85524 40 114 51 255 0.342589 0.870327
9.60562 3.36726 12.2387 0.215237 5.65043 1.90504 40 114 51 255 0.342684 0.870302
10.8186 3.19728 12.2387 0.59365 5.65973 1.84881 40 114 51 255 0.342387 0.87038
12.0315 3.12517 12.2387 -0.189816 5.69062 1.66532 40 114 51 255 0.342278 0.870408
13.2445 3.34674 12.2387 -0.345289 5.70951 1.53755 40 114 51 255 0.342649 0.870311
14.471 3.31583 12.2387 0.738935 5.62878 1.54799 40 114 51 255 0.342598 0.870325
2.3279 0.60152 7.40304 -2.96046 0.364171 -0.17202 40 114 51 255 0.338045 0.871517
3.54085 3.14984 7.40304 -2.61783 4.9821 -0.0544094 40 114 51 255 0.342319 0.870398
4.75381 3.31862 7.40304 -1.0541 5.86229 -0.534989 40 114 51 255 0.342482 0.870355
5.96676 3.6806 7.40304 -1.26602 5.72246 -0.946693 40 114 51 255 0.342086 0.870459
7.17971 4.02166 7.40304 -0.617638 5.76062 -0.946558 40 114 51 255 0.341947 0.870495
8.39266 3.95313 7.40304 0.263555 5.86928 -0.781887 40 114 51 255 0.342521 0.870345
9.60562 3.79652 7.40304 0.0425544 5.91494 -0.729967 40 114 51 255 0.342619 0.870319
10.8186 3.86951 7.40304 0.615361 5.86815 -0.531597 40 114 51 255 0.342416 0.870372
12.0315 3.55943 7.40304 1.15607 5.85212 -0.211496 40 114 51 255 0.342327 0.870395
13.2445 3.35515 7.40304 0.487945 5.97181 -0.110036 40 114 51 255 0.34259 0.870327
14.4711 3.30831 7.40304 1.14918 5.81381 -0.0722675 40 114 51 255 0.342585 0.870328
2.3279 0.601519 9.53456 -2.91186 0.451737 0.350947 40 114 51 255 0.338045 0.871517
3.54085 3.16971 9.53456 -2.99376 4.67946 0.484282 40 114 51 255 0.342353 0.870389
4.75381 3.48183 9.53456 -1.30576 5.76968 0.531869 40 114 51 255 0.342802 0.870271
5.96676 3.74209 9.53456 -1.06858 5.76686 0.829495 40 114 51 255 0.342569 0.870332
7.17971 3.90737 9.53456 -0.430669 5.80612 1.03995 40 114 51 255 0.342323 0.870396
8.39266 3.91863 9.53456 -0.102294 5.87756 0.764609 40 114 51 255 0.342851 0.870258
9.60562 3.93827 9.53456 0.0314195 5.93586 0.483455 40 114 51 255 0.343049 0.870206
10.8186 3.87892 9.53456 0.976216 5.82847 0.51775 40 114 51 255 0.342625 0.870317
12.0315 3.44273 9.53456 0.992718 5.86215 0.281059 40 114 51 255 0.342281 0.870407
13.2445 3.37658 9.53456 0.215243 5.98228 -0.157889 40 114 51 255 0.342644 0.870313
14.4574 3.30511 9.53456 1.19444 5.78142 -0.439716 40 114 51 255 0.34258 0.870329
2.3279 0.601518 10.8709 -2.70928 1.16181 0.237152 40 114 51 255 0.338045 0.871517
3.54085 2.90231 10.8709 -3.16858 4.39409 0.90546 40 114 51 255 0.341904 0.870506
4.75381 3.16776 10.8709 -0.898325 5.74207 1.42454 40 114 51 255 0.34234 0.870392
5.96676 3.32065 10.8709 -0.468593 5.65765 1.91463 40 114 51 255 0.342261 0.870413
7.17971 3.38211 10.8709 -0.670804 5.6235 1.92683 40 114 51 255 0.342109 0.870453
8.39266 3.62082 10.8709 -0.760433 5.73129 1.47008 40 114 51 255 0.342768 0.87028
9.60562 3.70657 10.8709 0.0999739 5.84051 1.29421 40 114 51 255 0.343005 0.870218
10.8186 3.58886 10.8709 0.908869 5.78561 1.18195 40 114 51 255 0.342631 0.870316
12.0315 3.39076 10.8709 0.276462 5.86957 0.676884 40 114 51 255 0.342484 0.870355
13.2445 3.5172 10.8709 -0.150343 5.93332 0.177291 40 114 51 255 0.342929 0.870238
14.4638 3.44838 10.8709 1.06719 5.82077 -0.0239796 40 114 51 255 0.34282 0.870266
2.3279 0.601502 16.7495 -0.320414 0.9397 0.119578 40 114 51 255 0.338045 0.871517
3.54085 0.601502 16.7495 -0.325169 2.5026 1.57172 40 114 51 255 0.338045 0.871517
4.75381 0.601502 16.7495 0.00492324 2.48757 1.67629 40 114 51 255 0.338045 0.871517
5.96676 0.601502 16.7495 -0.0200141 2.48093 1.68611 40 114 51 255 0.338045 0.871517
7.17971 0.601502 16.7495 -0.157274 2.39574 1.79462 40 114 51 255 0.338045 0.871517
8.39266 0.601502 16.7495 -0.0738813 2.29192 1.93048 40 114 51 255 0.338045 0.871517
9.60562 0.601502 16.7495 0.0319178 2.27476 1.95538 40 114 51 255 0.338045 0.871517
10.8186 0.601502 16.7495 0.0962228 2.33285 1.88258 40 114 51 255 0.338045 0.871517
12.0315 0.601502 16.7495 0.00363535 2.37964 1.82485 40 114 51 255 0.338045 0.871517
13.2445 0.601502 16.7495 -0.0461016 2.36093 1.85005 40 114 51 255 0.338045 0.871517
14.4574 0.601502 16.7495 0.0250678 1.58929 1.21199 40 114 51 255 0.338045 0.871517
2.3279 0.601512 13.7856 -2.2383 1.96922 0.160737 40 114 51 255 0.338045 0.871517
3.54085 2.17586 13.7856 -2.33988 4.7051 1.76682 40 114 51 255 0.340686 0.870825
4.75381 2.20778 13.7856 0.069021 5.53425 2.29007 40 114 51 255 0.340739 0.870811
5.96676 2.091 13.7856 -0.0614457 5.52882 2.28832 40 114 51 255 0.340543 0.870863
7.17971 2.22335 13.7856 -1.10946 5.38325 2.29883 40 114 51 255 0.340765 0.870805
8.39266 2.67277 13.7856 -0.866678 5.31969 2.50867 40 114 51 255 0.341519 0.870607
9.60562 2.69204 13.7856 0.213558 5.36377 2.63541 40 114 51 255 0.341552 0.870599
10.8186 2.59172 13.7856 0.406071 5.3857 2.58184 40 114 51 255 0.341383 0.870643
12.0315 2.50793 13.7856 -0.134067 5.34779 2.62929 40 114 51 255 0.341243 0.87068
13.2445 2.64896 13.7856 -0.339873 5.31383 2.71761 40 114 51 255 0.341479 0.870618
14.4613 2.71557 13.7856 0.404949 5.26286 2.74542 40 114 51 255 0.341591 0.870588
2.3279 0.601504 15.4698 -1.343 2.5887 0.301109 40 114 51 255 0.338045 0.871517
3.54085 1.42868 15.4698 -1.3387 5.03015 2.53435 40 114 51 255 0.339433 0.871154
4.75381 1.48515 15.4698 0.0562737 5.25728 2.8207 40 114 51 255 0.339527 0.871129
5.96676 1.4496 15.4698 -0.0705153 5.25672 2.80906 40 114 51 255 0.339468 0.871145
7.17971 1.49679 15.4698 -0.649235 5.09875 2.98556 40 114 51 255 0.339547 0.871124
8.39266 1.71505 15.4698 -0.39944 4.92686 3.31735 40 114 51 255 0.339913 0.871028
9.60562 1.72033 15.4698 0.115064 4.87558 3.44045 40 114 51 255 0.339922 0.871026
10.8186 1.66682 15.4698 0.276448 4.91704 3.38017 40 114 51 255 0.339832 0.871049
12.0315 1.54424 15.4698 -0.00294371 4.95146 3.349 40 114 51 255 0.339626 0.871103
13.2445 1.59918 15.4698 -0.195922 4.92272 3.40838 40 114 51 255 0.339719 0.871079
14.4574 1.64269 15.4698 0.150661 4.89031 3.43654 40 114 51 255 0.339792 0.87106
2.3279 0.601514 3.63886 -2.54214 1.52111 -0.223916 40 114 51 255 0.338045 0.871517
3.54085 2.21736 3.63886 -2.00338 4.68621 -2.41515 40 114 51 255 0.340755 0.870807
4.75381 2.27142 3.63886 0.0797765 5.30946 -2.75307 40 114 51 255 0.340846 0.870783
5.96676 2.20375 3.63886 0.261534 5.38324 -2.57371 40 114 51 255 0.340733 0.870813
7.17971 2.20426 3.63886 -0.212595 5.39749 -2.54949 40 114 51 255 0.340733 0.870813
8.39266 2.27341 3.63886 -0.277976 5.28328 -2.79028 40 114 51 255 0.340849 0.870783
9.60562 2.26995 3.63886 -0.240042 5.16746 -3.02589 40 114 51 255 0.340844 0.870784
10.8186 2.41844 3.63886 -0.150845 5.13804 -3.05259 40 114 51 255 0.341093 0.870719
12.0315 2.42137 3.63886 0.143091 5.19941 -2.92867 40 114 51 255 0.341098 0.870718
13.2445 2.3705 3.63886 0.150121 5.25098 -2.84338 40 114 51 255 0.341012 0.87074
14.4574 2.29928 3.63886 0.909872 6.23377 -2.92356 40 114 51 255 0.340893 0.870771
19.4307 0.601503 6.06476 2.07195 2.16708 -0.0808357 40 114 51 255 0.338045 0.871517
19.4307 0.601504 4.85181 1.96088 2.2671 -0.0981582 40 114 51 255 0.338045 0.871517
19.4307 0.601504 3.63886 1.14116 1.62298 -0.16568 40 114 51 255 0.338045 0.871517
19.4307 0.601503 7.40304 2.13391 2.10708 -0.0359173 40 114 51 255 0.338045 0.871517
19.4307 0.601503 9.53456 2.12312 2.11813 0.0140197 40 114 51 255 0.338045 0.871517
19.4307 0.601503 10.8709 2.14857 2.09102 -0.0834582 40 114 51 255 0.338045 0.871517
19.4307 0.601502 12.2387 2.17991 2.05637 0.0207496 40 114 51 255 0.338045 0.871517
19.4307 0.601502 13.7856 2.00448 2.2133 0.200959 40 114 51 255 0.338045 0.871517
19.4307 0.601502 15.4698 1.47048 2.52709 0.399285 40 114 51 255 0.338045 0.871517
19.4307 0.601502 16.7495 0.564839 1.84928 0.510991 40 114 51 255 0.338045 0.871517
16.7334 2.34685 6.06476 2.21647 5.46571 -0.99845 40 114 51 255 0.340972 0.87075
16.9836 2.49769 7.40304 2.34448 5.48483 -0.167278 40 114 51 255 0.341226 0.870684
16.8278 2.37106 9.53456 2.41056 5.45046 -0.217636 40 114 51 255 0.341013 0.87074
17.0067 2.54206 10.8709 2.52236 5.37371 -0.529225 40 114 51 255 0.3413 0.870665
17.0786 2.65769 12.2387 2.24407 5.39207 0.720582 40 114 51 255 0.341494 0.870614
16.8204 2.19685 13.7856 1.46499 5.41679 1.98207 40 114 51 255 0.340721 0.870816
16.6753 1.42784 15.4698 0.598558 5.18275 2.87767 40 114 51 255 0.339431 0.871154
16.6753 0.601502 16.7495 0.110154 2.47177 1.69167 40 114 51 255 0.338045 0.871517
18.3288 1.66591 6.06476 3.21811 4.88632 -0.496922 40 114 51 255 0.33983 0.871049
18.369 1.73637 7.40304 3.44851 4.78723 -0.162531 40 114 51 255 0.339949 0.871018
18.2932 1.67714 9.53456 3.49586 4.77459 -0.0282864 40 114 51 255 0.339849 0.871044
18.3563 1.73053 10.8709 3.65113 4.65239 -0.378602 40 114 51 255 0.339939 0.871021
18.3901 1.78229 12.2387 3.67152 4.63135 0.194938 40 114 51 255 0.340026 0.870998
18.2945 1.59502 13.7856 3.02256 4.95536 0.974174 40 114 51 255 0.339712 0.871081
18.2729 1.30873 15.4698 1.62654 5.36431 1.69976 40 114 51 255 0.339231 0.871206
18.2729 0.601502 16.7495 0.346339 2.63938 1.28292 40 114 51 255 0.338045 0.871517
16.6111 2.1049 4.85181 1.79279 5.53892 -1.34876 40 114 51 255 0.340567 0.870857
16.6111 1.80794 3.63886 1.18732 5.55504 -1.78656 40 114 51 255 0.340069 0.870987
18.3448 1.56557 4.85181 2.83422 5.07279 -0.557813 40 114 51 255 0.339662 0.871093
18.3448 1.4512 3.63886 2.67213 5.13076 -0.833661 40 114 51 255 0.33947 0.871144
2.3279 0.601505 0.831182 -0.311154 0.944317 -0.106995 40 114 51 255 0.338045 0.871517
3.54085 0.601505 0.831182 -0.293445 1.72476 -0.925557 40 114 51 255 0.338045 0.871517
4.75381 0.601505 0.831182 -0.00710626 2.59007 -1.51346 40 114 51 255 0.338045 0.871517
5.96676 0.601505 0.831182 0.0237526 2.59639 -1.50258 40 114 51 255 0.338045 0.871517
7.17971 0.601505 0.831182 -0.0123604 2.60077 -1.49512 40 114 51 255 0.338045 0.871517
8.39266 0.601505 0.831182 -0.0154282 2.59014 -1.51329 40 114 51 255 0.338045 0.871517
9.60562 0.601505 0.831182 0.0112341 2.58863 -1.51604 40 114 51 255 0.338045 0.871517
10.8186 0.601505 0.831182 -0.00666186 2.59041 -1.51308 40 114 51 255 0.338045 0.871517
12.0315 0.601505 0.831182 0.0146811 2.59347 -1.50784 40 114 51 255 0.338045 0.871517
13.2445 0.601505 0.831182 -0.0034721 2.59774 -1.50052 40 114 51 255 0.338045 0.871517
14.4574 0.601505 0.831182 0.0323709 2.61971 -1.45755 40 114 51 255 0.338045 0.871517
16.6111 0.601505 0.831182 0.138367 2.71881 -1.24919 40 114 51 255 0.338045 0.871517
18.3448 0.601505 0.831182 0.28343 2.84704 -0.833836 40 114 51 255 0.338045 0.871517
19.4307 0.601505 0.831182 0.375919 1.94224 -0.293893 40 114 51 255 0.338045 0.871517
2.3279 0.601509 2.2201 -1.43642 2.44974 -0.363571 40 114 51 255 0.338045 0.871517
3.54085 1.40085 2.2201 -1.18518 5.03491 -2.74758 40 114 51 255 0.339386 0.871166
4.75381 1.42759 2.2201 -0.0071418 5.17989 -3.02469 40 114 51 255 0.339431 0.871154
5.96676 1.39411 2.2201 0.0834664 5.19633 -2.99683 40 114 51 255 0.339375 0.871169
7.17971 1.39437 2.2201 -0.0617731 5.1963 -2.99797 40 114 51 255 0.339375 0.871169
8.39266 1.42857 2.2201 -0.0577873 5.17173 -3.03868 40 114 51 255 0.339432 0.871154
9.60562 1.40346 2.2201 -0.0416389 5.13664 -3.0953 40 114 51 255 0.33939 0.871165
10.8186 1.42207 2.2201 -0.103184 5.07496 -3.18773 40 114 51 255 0.339421 0.871157
12.0315 1.40356 2.2201 0.0386541 5.04615 -3.2341 40 114 51 255 0.33939 0.871165
13.2445 1.39936 2.2201 0.0440392 5.07044 -3.19821 40 114 51 255 0.339383 0.871167
14.4574 1.41752 2.2201 0.265272 5.19569 -2.96178 40 114 51 255 0.339414 0.871159
16.6111 1.19831 2.2201 0.572685 5.44751 -2.4008 40 114 51 255 0.339046 0.871255
18.3448 1.02184 2.2201 1.21005 5.59494 -1.44747 40 114 51 255 0.33875 0.871332
19.4307 0.601504 2.2201 1.18909 2.68303 -0.405987 40 114 51 255 0.338045 0.871517
2.80549 0.601505 0.831182 -1.22217 3.70914 -0.784879 40 114 51 255 0.338045 0.871517
2.80549 0.916242 2.2201 -3.47818 4.40048 -1.35366 40 114 51 255 0.338573 0.871379
2.50573 1.23774 3.63886 -4.87834 3.24756 -0.308624 40 114 51 255 0.339112 0.871238
2.80549 1.4669 4.85181 -5.40047 2.26286 -0.685138 40 114 51 255 0.339497 0.871137
2.63404 1.6049 6.06476 -4.75684 1.32652 -0.355921 40 114 51 255 0.339728 0.871076
2.53184 1.6049 7.40304 -5.59972 1.83363 -0.213961 40 114 51 255 0.339728 0.871076
2.2433 1.61272 9.53456 -5.36384 1.92467 0.634196 40 114 51 255 0.339741 0.871073
2.80549 1.50743 10.8709 -5.32571 2.38017 0.816093 40 114 51 255 0.339565 0.871119
2.80549 1.42833 12.2387 -5.12078 3.09474 0.3063 40 114 51 255 0.339432 0.871154
2.80549 1.2214 13.7856 -4.58701 3.75949 0.575711 40 114 51 255 0.339085 0.871245
2.80549 0.927196 15.4698 -3.03047 4.85455 1.04527 40 114 51 255 0.338591 0.871374
2.80549 0.601502 16.7495 -0.946996 2.77732 0.555392 40 114 51 255 0.338045 0.871517
3.17214 0.601505 0.831182 -0.867792 2.63365 -1.12653 40 114 51 255 0.338045 0.871517
3.17214 1.15786 2.2201 -2.64234 4.83935 -2.10574 40 114 51 255 0.338978 0.871273
2.97806 1.72617 3.63886 -4.14787 3.96489 -1.42101 40 114 51 255 0.339931 0.871023
3.17214 2.13125 4.85181 -4.74329 3.29101 -1.07524 40 114 51 255 0.340611 0.870845
2.66098 2.37521 6.06476 -4.23794 2.05956 -0.817787 40 114 51 255 0.34102 0.870738
2.85467 2.37519 7.40304 -4.95845 3.04485 0.116573 40 114 51 255 0.34102 0.870738
2.89025 2.38902 9.53456 -4.8029 3.46245 0.383123 40 114 51 255 0.341043 0.870732
3.17214 2.2029 10.8709 -4.93742 3.15995 1.07175 40 114 51 255 0.340731 0.870814
3.17214 2.06306 12.2387 -5.15293 3.02092 0.455519 40 114 51 255 0.340497 0.870875
3.17214 1.69729 13.7856 -4.68182 3.5716 0.944103 40 114 51 255 0.339883 0.871036
3.17214 1.17723 15.4698 -3.33868 4.512 1.63196 40 114 51 255 0.339011 0.871264
3.17214 0.601502 16.7495 -1.18528 3.47615 1.55349 40 114 51 255 0.338045 0.871517
3 183 184 1 
3 183 1 12 
3 1 2 13 
3 1 13 12 
3 2 3 14 
3 2 14 13 
3 3 4 15 
3 3 15 14 
3 4 5 16 
3 4 16 15 
3 5 6 17 
3 5 17 16 
3 6 7 18 
3 6 18 17 
3 7 8 19 
3 7 19 18 
3 8 9 20 
3 8 20 19 
3 9 10 21 
3 9 21 20 
3 182 183 12 
3 182 12 100 
3 12 13 101 
3 12 101 100 
3 13 14 102 
3 13 102 101 
3 14 15 103 
3 14 103 102 
3 15 16 104 
3 15 104 103 
3 16 17 105 
3 16 105 104 
3 17 18 106 
3 17 106 105 
3 18 19 107 
3 18 107 106 
3 19 20 108 
3 19 108 107 
3 20 21 109 
3 20 109 108 
3 1 184 185 
3 1 185 34 
3 2 1 34 
3 2 34 35 
3 3 2 35 
3 3 35 36 
3 4 3 36 
3 4 36 37 
3 5 4 37 
3 5 37 38 
3 6 5 38 
3 6 38 39 
3 7 6 39 
3 7 39 40 
3 8 7 40 
3 8 40 41 
3 9 8 41 
3 9 41 42 
3 10 9 42 
3 10 42 43 
3 34 185 186 
3 34 186 45 
3 35 34 45 
3 35 45 46 
3 36 35 46 
3 36 46 47 
3 37 36 47 
3 37 47 48 
3 38 37 48 
3 38 48 49 
3 39 38 49 
3 39 49 50 
3 40 39 50 
3 40 50 51 
3 41 40 51 
3 41 51 52 
3 42 41 52 
3 42 52 53 
3 43 42 53 
3 43 53 54 
3 45 186 187 
3 45 187 56 
3 46 45 56 
3 46 56 57 
3 47 46 57 
3 47 57 58 
3 48 47 58 
3 48 58 59 
3 49 48 59 
3 49 59 60 
3 50 49 60 
3 50 60 61 
3 51 50 61 
3 51 61 62 
3 52 51 62 
3 52 62 63 
3 53 52 63 
3 53 63 64 
3 54 53 64 
3 54 64 65 
3 56 187 188 
3 56 188 23 
3 57 56 23 
3 57 23 24 
3 58 57 24 
3 58 24 25 
3 59 58 25 
3 59 25 26 
3 60 59 26 
3 60 26 27 
3 61 60 27 
3 61 27 28 
3 62 61 28 
3 62 28 29 
3 63 62 29 
3 63 29 30 
3 64 63 30 
3 64 30 31 
3 65 64 31 
3 65 31 32 
3 23 188 189 
3 23 189 78 
3 24 23 78 
3 24 78 79 
3 25 24 79 
3 25 79 80 
3 26 25 80 
3 26 80 81 
3 27 26 81 
3 27 81 82 
3 28 27 82 
3 28 82 83 
3 29 28 83 
3 29 83 84 
3 30 29 84 
3 30 84 85 
3 31 30 85 
3 31 85 86 
3 32 31 86 
3 32 86 87 
3 78 189 190 
3 78 190 89 
3 79 78 89 
3 79 89 90 
3 80 79 90 
3 80 90 91 
3 81 80 91 
3 81 91 92 
3 82 81 92 
3 82 92 93 
3 83 82 93 
3 83 93 94 
3 84 83 94 
3 84 94 95 
3 85 84 95 
3 85 95 96 
3 86 85 96 
3 86 96 97 
3 87 86 97 
3 87 97 98 
3 89 190 191 
3 89 191 67 
3 90 89 67 
3 90 67 68 
3 91 90 68 
3 91 68 69 
3 92 91 69 
3 92 69 70 
3 93 92 70 
3 93 70 71 
3 94 93 71 
3 94 71 72 
3 95 94 72 
3 95 72 73 
3 96 95 73 
3 96 73 74 
3 97 96 74 
3 97 74 75 
3 98 97 75 
3 98 75 76 
3 21 10 120 
3 21 120 136 
3 109 21 136 
3 109 136 137 
3 128 129 113 
3 128 113 110 
3 129 130 114 
3 129 114 113 
3 130 131 115 
3 130 115 114 
3 131 132 116 
3 131 116 115 
3 132 133 117 
3 132 117 116 
3 133 134 118 
3 133 118 117 
3 134 135 119 
3 134 119 118 
3 10 43 121 
3 10 121 120 
3 43 54 122 
3 43 122 121 
3 54 65 123 
3 54 123 122 
3 65 32 124 
3 65 124 123 
3 32 87 125 
3 32 125 124 
3 87 98 126 
3 87 126 125 
3 98 76 127 
3 98 127 126 
3 120 121 129 
3 120 129 128 
3 121 122 130 
3 121 130 129 
3 122 123 131 
3 122 131 130 
3 123 124 132 
3 123 132 131 
3 124 125 133 
3 124 133 132 
3 125 126 134 
3 125 134 133 
3 126 127 135 
3 126 135 134 
3 136 120 128 
3 136 128 138 
3 137 136 138 
3 137 138 139 
3 138 128 110 
3 138 110 111 
3 139 138 111 
3 139 111 112 
3 180 181 155 
3 180 155 141 
3 155 156 142 
3 155 142 141 
3 156 157 143 
3 156 143 142 
3 157 158 144 
3 157 144 143 
3 158 159 145 
3 158 145 144 
3 159 160 146 
3 159 146 145 
3 160 161 147 
3 160 147 146 
3 161 162 148 
3 161 148 147 
3 162 163 149 
3 162 149 148 
3 163 164 150 
3 163 150 149 
3 164 165 151 
3 164 151 150 
3 165 166 152 
3 165 152 151 
3 166 167 153 
3 166 153 152 
3 181 182 100 
3 181 100 155 
3 100 101 156 
3 100 156 155 
3 101 102 157 
3 101 157 156 
3 102 103 158 
3 102 158 157 
3 103 104 159 
3 103 159 158 
3 104 105 160 
3 104 160 159 
3 105 106 161 
3 105 161 160 
3 106 107 162 
3 106 162 161 
3 107 108 163 
3 107 163 162 
3 108 109 164 
3 108 164 163 
3 109 137 165 
3 109 165 164 
3 137 139 166 
3 137 166 165 
3 139 112 167 
3 139 167 166 
3 154 169 168 
3 154 168 140 
3 99 170 169 
3 99 169 154 
3 11 171 170 
3 11 170 99 
3 0 172 171 
3 0 171 11 
3 173 172 0 
3 173 0 33 
3 174 173 33 
3 174 33 44 
3 175 174 44 
3 175 44 55 
3 176 175 55 
3 176 55 22 
3 177 176 22 
3 177 22 77 
3 178 177 77 
3 178 77 88 
3 179 178 88 
3 179 88 66 
3 168 169 181 
3 168 181 180 
3 169 170 182 
3 169 182 181 
3 170 171 183 
3 170 183 182 
3 171 172 184 
3 171 184 183 
3 185 184 172 
3 185 172 173 
3 186 185 173 
3 186 173 174 
3 187 186 174 
3 187 174 175 
3 188 187 175 
3 188 175 176 
3 189 188 176 
3 189 176 177 
3 190 189 177 
3 190 177 178 
3 191 190 178 
3 191 178 179 
