ply
format ascii 1.0
comment VCGLIB generated
comment TextureFile LowPolyTexture_Variant1.png
element vertex 264
property float x
property float y
property float z
property float nx
property float ny
property float nz
property uchar red
property uchar green
property uchar blue
property uchar alpha
property float texture_u
property float texture_v
element face 400
property list uchar int vertex_indices
end_header
-0.071665 3.55238 4.89312 -1.95099 1.77909 2.49874 230 230 230 255 0.184266 0.988458
0.071665 3.55238 4.89312 0.975788 0.88835 2.74297 230 230 230 255 0.184266 0.988458
-0.050836 3.47309 4.46247 1.90811 -2.59926 0.999997 230 230 230 255 0.184266 0.988458
0.050836 3.47309 4.46247 -0.954056 -1.29963 2 230 230 230 255 0.184266 0.988458
0.050836 3.47309 4.81409 -1.90811 -2.59926 -0.999997 230 230 230 255 0.184266 0.988458
-0.050836 3.47309 4.81409 0.954056 -1.29963 -2 230 230 230 255 0.184266 0.988458
-0.055323 3.58506 4.39667 -1.41421 4.15363 -0.673256 230 230 230 255 0.184266 0.988458
-0.071665 3.56872 4.37872 -1.68261 2.38866 -3.33989 230 230 230 255 0.184266 0.988458
0.071665 3.56872 4.37872 3.3658 2.58243 -1.67295 230 230 230 255 0.184266 0.988458
0.055323 3.58506 4.39667 0.707105 3.18593 -1.34651 230 230 230 255 0.184266 0.988458
-0.055323 3.58506 4.86044 -0.707105 3.18602 1.34641 230 230 230 255 0.184266 0.988458
-0.071665 3.56872 4.87839 -3.36522 3.26308 1.429 230 230 230 255 0.184266 0.988458
0.055323 3.58506 4.86044 1.41421 4.15367 0.673207 230 230 230 255 0.184266 0.988458
0.071665 3.56872 4.87839 2.65868 3.96272 2.83235 230 230 230 255 0.184266 0.988458
0.08843 3.49391 4.37936 2.9432 0.551525 -2.99988 230 230 230 255 0.184266 0.988458
-0.08843 3.49391 4.37936 -3.91019 0.811681 -2.97997 230 230 230 255 0.184266 0.988458
-0.08843 3.49391 4.89312 -2.94289 0.579596 3.0068 230 230 230 255 0.184266 0.988458
0.08843 3.49391 4.89312 3.91107 0.83593 3.00055 230 230 230 255 0.184266 0.988458
-0.090972 3.39394 4.44464 1.23018 -5.3236 0.663021 230 230 230 255 0.184266 0.988458
-0.070721 3.40977 4.46247 1.5671 -2.58306 3.32747 230 230 230 255 0.184266 0.988458
0.090687 3.39394 4.44497 -0.618505 -5.28343 1.32843 230 230 230 255 0.184266 0.988458
0.070813 3.40948 4.46247 -3.14102 -2.92286 1.66493 230 230 230 255 0.184266 0.988458
0.090972 3.39394 4.83192 -1.23018 -5.32361 -0.663011 230 230 230 255 0.184266 0.988458
0.070721 3.40977 4.81409 -1.56709 -2.58308 -3.32745 230 230 230 255 0.184266 0.988458
-0.090687 3.39394 4.83158 0.618509 -5.28345 -1.32841 230 230 230 255 0.184266 0.988458
-0.070813 3.40948 4.81409 3.14103 -2.92287 -1.66492 230 230 230 255 0.184266 0.988458
0.100614 -0.249485 5.43619 2.38014 -0.0134979 -1.67302 129 129 129 255 0.183547 0.909214
0.05809 -0.249485 5.39367 1.22477 -0.0134978 -2.63895 129 129 129 255 0.183547 0.909214
0 -0.249485 5.37811 -0.25883 -0.013498 -2.89777 129 129 129 255 0.183547 0.909214
-0.05809 -0.249485 5.39367 -1.67304 -0.0134978 -2.38014 129 129 129 255 0.183547 0.909214
-0.100614 -0.249485 5.43619 -2.63896 -0.0134979 -1.22472 129 129 129 255 0.183547 0.909214
-0.116179 -0.249485 5.49429 -2.89778 -0.0134978 0.258835 129 129 129 255 0.183547 0.909214
-0.100614 -0.249485 5.55238 -2.38013 -0.0134973 1.67305 129 129 129 255 0.183547 0.909214
-0.05809 -0.249485 5.5949 -1.22473 -0.0134973 2.63897 129 129 129 255 0.183547 0.909214
0 -0.249485 5.61046 0.258815 -0.0134975 2.89778 129 129 129 255 0.183547 0.909214
0.05809 -0.249485 5.5949 1.67302 -0.0134973 2.38015 129 129 129 255 0.183547 0.909214
0.100614 -0.249485 5.55238 2.63895 -0.0134973 1.22475 129 129 129 255 0.183547 0.909214
0.116179 -0.249485 5.49429 2.89778 -0.0134978 -0.258794 129 129 129 255 0.183547 0.909214
0.100614 -0.030642 5.43619 2.63896 3 -1.22472 129 129 129 255 0.183547 0.909214
0.05809 -0.030642 5.39367 1.67304 3 -2.38014 129 129 129 255 0.183547 0.909214
0 -0.030642 5.37811 0.25883 3 -2.89777 129 129 129 255 0.183547 0.909214
-0.05809 -0.030642 5.39367 -1.22477 3 -2.63895 129 129 129 255 0.183547 0.909214
-0.100614 -0.030642 5.43619 -2.38014 3 -1.67302 129 129 129 255 0.183547 0.909214
-0.116179 -0.030642 5.49429 -2.89778 3 -0.258794 129 129 129 255 0.183547 0.909214
-0.100614 -0.030642 5.55238 -2.63895 3 1.22475 129 129 129 255 0.183547 0.909214
-0.05809 -0.030642 5.5949 -1.67302 3 2.38015 129 129 129 255 0.183547 0.909214
0 -0.030642 5.61046 -0.258815 3 2.89778 129 129 129 255 0.183547 0.909214
0.05809 -0.030642 5.5949 1.22473 3 2.63897 129 129 129 255 0.183547 0.909214
0.100614 -0.030642 5.55238 2.38013 3 1.67305 129 129 129 255 0.183547 0.909214
0.116179 -0.030642 5.49429 2.89778 3 0.258835 129 129 129 255 0.183547 0.909214
0 -0.249485 5.49429 0 -0.0809859 0 129 129 129 255 0.183547 0.909214
0.071078 -0.030642 5.45325 0 0 0 193 193 193 255 0.183547 0.909214
0.041037 -0.030642 5.42321 0 0 0 153 102 203 255 0.183547 0.909214
0 -0.030642 5.41221 0 0 0 193 193 193 255 0.183547 0.909214
-0.041037 -0.030642 5.42321 0 0 0 130 130 132 255 0.183547 0.909214
-0.071078 -0.030642 5.45325 0 0 0 144 150 122 255 0.183547 0.909214
-0.082074 -0.030642 5.49429 0 0 0 115 194 251 255 0.183547 0.909214
-0.071078 -0.030642 5.53532 0 0 0 75 83 32 255 0.183547 0.909214
-0.041037 -0.030642 5.56536 0 0 0 193 193 193 255 0.183547 0.909214
0 -0.030642 5.57636 0 0 0 193 193 193 255 0.183547 0.909214
0.041037 -0.030642 5.56536 0 0 0 193 193 193 255 0.183547 0.909214
0.071078 -0.030642 5.53532 0 0 0 193 193 193 255 0.183547 0.909214
0.082074 -0.030642 5.49429 0 0 0 193 193 193 255 0.183547 0.909214
0.071078 3.03875 5.45325 2.63898 3 -1.22472 154 154 154 255 0.185812 0.930301
0.041037 3.03875 5.42321 1.67306 3 -2.3801 154 154 154 255 0.185812 0.930301
0 3.03875 5.41221 0.258809 3 -2.89779 154 154 154 255 0.185812 0.930301
-0.041037 3.03875 5.42321 -1.22474 3 -2.63894 154 154 154 255 0.185812 0.930301
-0.071078 3.03875 5.45325 -2.38018 3 -1.67299 154 154 154 255 0.185812 0.930301
-0.082074 3.03875 5.49429 -2.89777 3 -0.258791 154 154 154 255 0.185812 0.930301
-0.071078 3.03875 5.53532 -2.63895 3 1.22479 154 154 154 255 0.185812 0.930301
-0.041037 3.03875 5.56536 -1.67303 3 2.38014 154 154 154 255 0.185812 0.930301
0 3.03875 5.57636 -0.258809 3 2.89779 154 154 154 255 0.185812 0.930301
0.041037 3.03875 5.56536 1.22473 3 2.63896 154 154 154 255 0.185812 0.930301
0.071078 3.03875 5.53532 2.38014 3 1.67305 154 154 154 255 0.185812 0.930301
0.082074 3.03875 5.49429 2.89777 3 0.258867 154 154 154 255 0.185812 0.930301
0.050091 3.03875 5.46537 2.38025 3 -1.67293 149 200 217 255 0.185812 0.930301
0.02892 3.03875 5.44419 1.22453 3 -2.63897 149 200 217 255 0.185812 0.930301
0 3.03875 5.43645 -0.258685 3 -2.89789 149 200 217 255 0.185812 0.930301
-0.02892 3.03875 5.44419 -1.67301 3 -2.38006 149 200 217 255 0.185812 0.930301
-0.050091 3.03875 5.46537 -2.63901 3 -1.2247 149 200 217 255 0.185812 0.930301
-0.05784 3.03875 5.49429 -2.89778 3 0.258803 149 200 217 255 0.185812 0.930301
-0.050091 3.03875 5.52321 -2.38003 3 1.67314 149 200 217 255 0.185812 0.930301
-0.02892 3.03875 5.54438 -1.22475 3 2.639 149 200 217 255 0.185812 0.930301
0 3.03875 5.55213 0.258878 3.00001 2.89775 149 200 217 255 0.185812 0.930301
0.02892 3.03875 5.54438 1.67295 3.00001 2.38025 149 200 217 255 0.185812 0.930301
0.050091 3.03875 5.52321 2.6389 3 1.2248 149 200 217 255 0.185812 0.930301
0.05784 3.03875 5.49429 2.89777 3 -0.258839 149 200 217 255 0.185812 0.930301
0.050091 3.19079 5.46537 4.96897 -0.631899 -2.83851 149 200 217 255 0.105396 0.930297
0.02892 3.19079 5.44419 2.8444 -0.978154 -4.86342 149 200 217 255 0.105396 0.930297
0 3.19079 5.43645 0.0150839 -1.06786 -5.60447 149 200 217 255 0.105396 0.930297
-0.02892 3.19079 5.44419 -2.83656 -0.888416 -4.89907 149 200 217 255 0.105396 0.930297
-0.050091 3.19079 5.46537 -4.98764 -0.465035 -2.86363 149 200 217 255 0.105396 0.930297
-0.05784 3.19079 5.49429 -5.78263 0.097702 -0.00265902 149 200 217 255 0.105396 0.930297
-0.050091 3.19079 5.52321 -4.97009 0.61899 2.84225 149 200 217 255 0.105396 0.930297
-0.02892 3.19079 5.54438 -2.84621 0.95054 4.87337 149 200 217 255 0.105396 0.930297
0 3.19079 5.55213 -0.0145633 1.03548 5.61636 149 200 217 255 0.105396 0.930297
0.02892 3.19079 5.54437 2.83856 0.865603 4.90664 149 200 217 255 0.105396 0.930297
0.050091 3.19079 5.52321 4.98805 0.457327 2.86593 149 200 217 255 0.105396 0.930297
0.05784 3.19079 5.49429 5.78259 -0.100249 0.00310677 149 200 217 255 0.105396 0.930297
0.050091 3.36676 5.33829 4.89168 -2.42676 -1.87656 149 200 217 255 0.105396 0.930297
0.02892 3.35369 5.32163 2.7161 -4.06144 -3.15073 149 200 217 255 0.105396 0.930297
-0 3.34891 5.31553 -0.00424749 -4.61799 -3.56042 149 200 217 255 0.105396 0.930297
-0.02892 3.35369 5.32163 -2.71584 -4.06958 -3.13628 149 200 217 255 0.105396 0.930297
-0.050091 3.36676 5.33829 -4.88763 -2.41759 -1.89553 149 200 217 255 0.105396 0.930297
-0.05784 3.38461 5.36104 -5.75575 0.0219204 -0.0328543 149 200 217 255 0.105396 0.930297
-0.050091 3.40246 5.3838 -4.90135 2.40703 1.85975 149 200 217 255 0.105396 0.930297
-0.02892 3.41552 5.40046 -2.74383 3.97643 3.17163 149 200 217 255 0.105396 0.930297
0 3.4203 5.40655 -0.00623846 4.48836 3.64531 149 200 217 255 0.105396 0.930297
0.02892 3.41552 5.40046 2.74153 3.93498 3.23173 149 200 217 255 0.105396 0.930297
0.050091 3.40245 5.3838 4.90885 2.33211 1.94566 149 200 217 255 0.105396 0.930297
0.05784 3.38461 5.36104 5.7567 -0.0371293 0.034738 149 200 217 255 0.105396 0.930297
0.050093 3.45325 5.14327 4.976 -2.94156 -0.267944 149 200 217 255 0.105396 0.930297
0.028922 3.43215 5.14327 2.81735 -5.03741 -0.463331 149 200 217 255 0.105396 0.930297
-2e-006 3.42442 5.14327 -0.0182382 -5.76346 -0.523691 149 200 217 255 0.105396 0.930297
-0.02892 3.43214 5.14327 -2.82749 -5.01332 -0.493501 149 200 217 255 0.105396 0.930297
-0.050089 3.45325 5.14327 -4.95331 -2.94163 -0.350566 149 200 217 255 0.105396 0.930297
-0.05784 3.48209 5.14327 -5.77762 -0.0142026 -0.0550682 149 200 217 255 0.105396 0.930297
-0.050091 3.51092 5.14327 -4.97444 2.92891 0.330399 149 200 217 255 0.105396 0.930297
-0.028918 3.53203 5.14327 -2.8141 4.99628 0.650186 149 200 217 255 0.105396 0.930297
0 3.53975 5.14327 0.019457 5.7021 0.790709 149 200 217 255 0.105396 0.930297
0.028918 3.53202 5.14327 2.82447 4.96233 0.720436 149 200 217 255 0.105396 0.930297
0.050091 3.51092 5.14327 4.95049 2.91979 0.455155 149 200 217 255 0.105396 0.930297
0.05784 3.48209 5.14327 5.7776 0.0105287 0.0753056 149 200 217 255 0.105396 0.930297
0.050093 3.45325 4.85366 2.63754 -1.22713 -0.00333633 149 200 217 255 1.39097 0.846309
0.028922 3.43215 4.85366 1.67014 -2.38246 -0.00333569 149 200 217 255 1.33378 0.903501
0 3.48209 4.85366 0 0 -0.0200123 193 193 193 255 1.25566 0.761934
-2e-006 3.42442 4.85366 0.258052 -2.89841 -0.00333551 149 200 217 255 1.25566 0.924434
-0.02892 3.43214 4.85366 -1.22215 -2.64038 -0.00333651 149 200 217 255 1.17753 0.903501
-0.050089 3.45325 4.85366 -2.37794 -1.67579 -0.00333826 149 200 217 255 1.12034 0.846309
-0.05784 3.48209 4.85366 -2.89716 -0.259616 -0.00333614 149 200 217 255 1.09941 0.768184
-0.050091 3.51092 4.85366 -2.63748 1.22733 -0.00333417 149 200 217 255 1.12034 0.690059
-0.028918 3.53203 4.85366 -1.67019 2.38248 -0.00333148 149 200 217 255 1.17753 0.632868
0 3.53975 4.85366 -0.258066 2.89831 -0.00333 149 200 217 255 1.25566 0.611934
0.028918 3.53203 4.85366 1.2224 2.64039 -0.0033299 149 200 217 255 1.33378 0.632868
0.050091 3.51092 4.85366 2.37775 1.67597 -0.00333193 149 200 217 255 1.39097 0.690059
0.05784 3.48209 4.85366 2.8972 0.259644 -0.0033348 149 200 217 255 1.41191 0.768184
0.050091 3.29046 5.42645 4.90412 -1.81338 -2.33631 149 200 217 255 0.105396 0.930297
0.02892 3.28357 5.40765 2.74574 -2.97231 -3.95894 149 200 217 255 0.105396 0.930297
-0 3.28105 5.40078 0.0110666 -3.33996 -4.53715 149 200 217 255 0.105396 0.930297
-0.02892 3.28357 5.40765 -2.74144 -2.87372 -4.05036 149 200 217 255 0.105396 0.930297
-0.050091 3.29046 5.42645 -4.91733 -1.62116 -2.46973 149 200 217 255 0.105396 0.930297
-0.05784 3.29986 5.45212 -5.7643 0.0928359 -0.0568591 149 200 217 255 0.105396 0.930297
-0.050091 3.30927 5.47779 -4.92771 1.6895 2.43036 149 200 217 255 0.105396 0.930297
-0.02892 3.31616 5.49658 -2.77731 2.72514 4.18917 149 200 217 255 0.105396 0.930297
0 3.31868 5.50346 -0.00235958 3.05185 4.81808 149 200 217 255 0.105396 0.930297
0.02892 3.31616 5.49658 2.77473 2.65323 4.23671 149 200 217 255 0.105396 0.930297
0.050091 3.30927 5.47779 4.93116 1.53747 2.52699 149 200 217 255 0.105396 0.930297
0.05784 3.29986 5.45212 5.76354 -0.120864 0.0724877 149 200 217 255 0.105396 0.930297
0.050092 3.43149 5.24593 4.90654 -2.78359 -1.10044 149 200 217 255 0.105396 0.930297
0.028921 3.41421 5.23885 2.73924 -4.61677 -1.93103 149 200 217 255 0.105396 0.930297
-1e-006 3.40789 5.23626 -0.00297526 -5.21093 -2.25354 149 200 217 255 0.105396 0.930297
-0.02892 3.41421 5.23885 -2.74145 -4.56272 -2.04698 149 200 217 255 0.105396 0.930297
-0.05009 3.43149 5.24593 -4.90254 -2.70333 -1.28861 149 200 217 255 0.105396 0.930297
-0.05784 3.45509 5.2556 -5.75755 0.0395914 -0.0888998 149 200 217 255 0.105396 0.930297
-0.050091 3.47869 5.26526 -4.90221 2.79237 1.16324 149 200 217 255 0.105396 0.930297
-0.028919 3.49596 5.27234 -2.73215 4.6553 2.03066 149 200 217 255 0.105396 0.930297
0 3.50229 5.27493 0.0033489 5.27578 2.33654 149 200 217 255 0.105396 0.930297
0.028919 3.49596 5.27234 2.73426 4.62961 2.07819 149 200 217 255 0.105396 0.930297
0.050091 3.47868 5.26527 4.89802 2.74152 1.28062 149 200 217 255 0.105396 0.930297
0.05784 3.45509 5.2556 5.75758 -0.033065 0.0958775 149 200 217 255 0.105396 0.930297
0.071078 0.377434 5.45325 2.38018 3 -1.67299 129 129 129 255 0.185812 0.930301
0.041037 0.377434 5.42321 1.22474 3 -2.63894 129 129 129 255 0.185812 0.930301
0 0.377434 5.41221 -0.258809 3 -2.89779 129 129 129 255 0.185812 0.930301
-0.041037 0.377434 5.42321 -1.67306 3 -2.3801 129 129 129 255 0.185812 0.930301
-0.071078 0.377434 5.45325 -2.63898 3 -1.22472 129 129 129 255 0.185812 0.930301
-0.082074 0.377434 5.49429 -2.89777 3 0.258867 129 129 129 255 0.185812 0.930301
-0.071078 0.377434 5.53532 -2.38014 3 1.67305 129 129 129 255 0.185812 0.930301
-0.041037 0.377434 5.56536 -1.22473 3 2.63896 129 129 129 255 0.185812 0.930301
0 0.377434 5.57636 0.258809 3 2.89779 129 129 129 255 0.185812 0.930301
0.041037 0.377434 5.56536 1.67303 3 2.38014 129 129 129 255 0.185812 0.930301
0.071078 0.377434 5.53532 2.63895 3 1.22479 129 129 129 255 0.185812 0.930301
0.082074 0.377434 5.49429 2.89777 3 -0.258791 129 129 129 255 0.185812 0.930301
0.080558 -0.030642 5.44778 2.38018 -3 -1.673 193 193 193 255 0.183547 0.909214
0.04651 -0.030642 5.41373 1.22483 -3 -2.63892 153 102 203 255 0.183547 0.909214
0.04651 0.377434 5.41373 1.67311 3 -2.38009 129 129 129 255 0.183547 0.909214
0.080558 0.377434 5.44778 2.63898 3 -1.22473 129 129 129 255 0.183547 0.909214
0 -0.030642 5.40127 -0.258853 -3 -2.89775 193 193 193 255 0.183547 0.909214
0 0.377434 5.40127 0.258853 3 -2.89775 129 129 129 255 0.183547 0.909214
-0.04651 -0.030642 5.41373 -1.67311 -3 -2.38009 130 130 132 255 0.183547 0.909214
-0.04651 0.377434 5.41373 -1.22483 3 -2.63892 129 129 129 255 0.183547 0.909214
-0.080558 -0.030642 5.44778 -2.63898 -3 -1.22473 144 150 122 255 0.183547 0.909214
-0.080558 0.377434 5.44778 -2.38018 3 -1.673 129 129 129 255 0.183547 0.909214
-0.09302 -0.030642 5.49429 -2.89778 -3 0.258814 115 194 251 255 0.183547 0.909214
-0.09302 0.377434 5.49429 -2.89777 3 -0.258829 129 129 129 255 0.183547 0.909214
-0.080558 -0.030642 5.5408 -2.3801 -3 1.67307 75 83 32 255 0.183547 0.909214
-0.080558 0.377434 5.5408 -2.63894 3 1.22476 129 129 129 255 0.183547 0.909214
-0.04651 -0.030642 5.57484 -1.22479 -3 2.63896 193 193 193 255 0.183547 0.909214
-0.04651 0.377434 5.57484 -1.67303 3 2.38017 129 129 129 255 0.183547 0.909214
0 -0.030642 5.58731 0.258853 -3 2.89775 193 193 193 255 0.183547 0.909214
0 0.377434 5.58731 -0.258853 3 2.89775 129 129 129 255 0.183547 0.909214
0.04651 -0.030642 5.57484 1.67303 -3 2.38017 193 193 193 255 0.183547 0.909214
0.04651 0.377434 5.57484 1.22479 3 2.63896 129 129 129 255 0.183547 0.909214
0.080558 -0.030642 5.5408 2.63894 -3 1.22476 193 193 193 255 0.183547 0.909214
0.080558 0.377434 5.5408 2.3801 3 1.67307 129 129 129 255 0.183547 0.909214
0.09302 -0.030642 5.49429 2.89777 -3 -0.258829 193 193 193 255 0.183547 0.909214
0.09302 0.377434 5.49429 2.89778 3 0.258814 129 129 129 255 0.183547 0.909214
-0.104877 3.40394 4.89312 -1.74806 -1.88702 3.40174 230 230 230 255 0.184266 0.988458
-0.097005 3.39394 4.88342 -1.53355 -4.99485 0.69984 230 230 230 255 0.184266 0.988458
0.104877 3.40394 4.89312 3.50594 -1.63306 1.70273 230 230 230 255 0.184266 0.988458
0.096081 3.39394 4.8825 0.771686 -5.06578 1.40319 230 230 230 255 0.184266 0.988458
-0.104881 3.40392 4.38023 -3.50424 -1.64816 -1.69915 230 230 230 255 0.184266 0.988458
-0.096081 3.39394 4.39095 -0.77094 -5.07349 -1.39633 230 230 230 255 0.184266 0.988458
0.104881 3.40392 4.38023 1.74881 -1.91188 -3.39479 230 230 230 255 0.184266 0.988458
0.097052 3.39394 4.38998 1.53526 -4.99604 -0.6963 230 230 230 255 0.184266 0.988458
0.050091 3.03875 5.46537 2.38025 3 -1.67293 149 200 217 255 0.105396 0.930297
0.02892 3.03875 5.44419 1.22453 3 -2.63897 149 200 217 255 0.105396 0.930297
0 3.03875 5.43645 -0.258685 3 -2.89789 149 200 217 255 0.105396 0.930297
-0.02892 3.03875 5.44419 -1.67301 3 -2.38006 149 200 217 255 0.105396 0.930297
-0.050091 3.03875 5.46537 -2.63901 3 -1.2247 149 200 217 255 0.105396 0.930297
-0.05784 3.03875 5.49429 -2.89778 3 0.258803 149 200 217 255 0.105396 0.930297
-0.050091 3.03875 5.52321 -2.38003 3 1.67314 149 200 217 255 0.105396 0.930297
-0.02892 3.03875 5.54438 -1.22475 3 2.639 149 200 217 255 0.105396 0.930297
0 3.03875 5.55213 0.258878 3.00001 2.89775 149 200 217 255 0.105396 0.930297
0.02892 3.03875 5.54438 1.67295 3.00001 2.38025 149 200 217 255 0.105396 0.930297
0.050091 3.03875 5.52321 2.6389 3 1.2248 149 200 217 255 0.105396 0.930297
0.05784 3.03875 5.49429 2.89777 3 -0.258839 149 200 217 255 0.105396 0.930297
0.028922 3.43215 4.85366 1.67014 -2.38246 -0.00333569 149 200 217 255 0.105396 0.930297
0.050093 3.45325 4.85366 2.63754 -1.22713 -0.00333633 149 200 217 255 0.105396 0.930297
-2e-006 3.42442 4.85366 0.258052 -2.89841 -0.00333551 149 200 217 255 0.105396 0.930297
-0.02892 3.43214 4.85366 -1.22215 -2.64038 -0.00333651 149 200 217 255 0.105396 0.930297
-0.050089 3.45325 4.85366 -2.37794 -1.67579 -0.00333826 149 200 217 255 0.105396 0.930297
-0.05784 3.48209 4.85366 -2.89716 -0.259616 -0.00333614 149 200 217 255 0.105396 0.930297
-0.050091 3.51092 4.85366 -2.63748 1.22733 -0.00333417 149 200 217 255 0.105396 0.930297
-0.028918 3.53203 4.85366 -1.67019 2.38248 -0.00333148 149 200 217 255 0.105396 0.930297
0 3.53975 4.85366 -0.258066 2.89831 -0.00333 149 200 217 255 0.105396 0.930297
0.028918 3.53203 4.85366 1.2224 2.64039 -0.0033299 149 200 217 255 0.105396 0.930297
0.050091 3.51092 4.85366 2.37775 1.67597 -0.00333193 149 200 217 255 0.105396 0.930297
0.05784 3.48209 4.85366 2.8972 0.259644 -0.0033348 149 200 217 255 0.105396 0.930297
0.071078 -0.030642 5.45325 0 0 0 193 193 193 255 1.39097 0.846309
0.041037 -0.030642 5.42321 0 0 0 153 102 203 255 1.33378 0.903501
0.04651 -0.030642 5.41373 1.22483 -3 -2.63892 153 102 203 255 1.33378 0.903501
0.080558 -0.030642 5.44778 2.38018 -3 -1.673 193 193 193 255 1.39097 0.846309
0.041037 0.377434 5.42321 1.22474 3 -2.63894 129 129 129 255 0.183547 0.909214
0.071078 0.377434 5.45325 2.38018 3 -1.67299 129 129 129 255 0.183547 0.909214
0 -0.030642 5.41221 0 0 0 193 193 193 255 1.25566 0.924434
0 -0.030642 5.40127 -0.258853 -3 -2.89775 193 193 193 255 1.25566 0.924434
0 0.377434 5.41221 -0.258809 3 -2.89779 129 129 129 255 0.183547 0.909214
-0.041037 -0.030642 5.42321 0 0 0 130 130 132 255 1.17753 0.903501
-0.04651 -0.030642 5.41373 -1.67311 -3 -2.38009 130 130 132 255 1.17753 0.903501
-0.041037 0.377434 5.42321 -1.67306 3 -2.3801 129 129 129 255 0.183547 0.909214
-0.071078 -0.030642 5.45325 0 0 0 144 150 122 255 1.12034 0.846309
-0.080558 -0.030642 5.44778 -2.63898 -3 -1.22473 144 150 122 255 1.12034 0.846309
-0.071078 0.377434 5.45325 -2.63898 3 -1.22472 129 129 129 255 0.183547 0.909214
-0.082074 -0.030642 5.49429 0 0 0 115 194 251 255 1.09941 0.768184
-0.09302 -0.030642 5.49429 -2.89778 -3 0.258814 115 194 251 255 1.09941 0.768184
-0.082074 0.377434 5.49429 -2.89777 3 0.258867 129 129 129 255 0.183547 0.909214
-0.071078 -0.030642 5.53532 0 0 0 75 83 32 255 1.12034 0.690059
-0.080558 -0.030642 5.5408 -2.3801 -3 1.67307 75 83 32 255 1.12034 0.690059
-0.071078 0.377434 5.53532 -2.38014 3 1.67305 129 129 129 255 0.183547 0.909214
-0.041037 -0.030642 5.56536 0 0 0 193 193 193 255 1.17753 0.632868
-0.04651 -0.030642 5.57484 -1.22479 -3 2.63896 193 193 193 255 1.17753 0.632868
-0.041037 0.377434 5.56536 -1.22473 3 2.63896 129 129 129 255 0.183547 0.909214
0 -0.030642 5.57636 0 0 0 193 193 193 255 1.25566 0.611934
0 -0.030642 5.58731 0.258853 -3 2.89775 193 193 193 255 1.25566 0.611934
0 0.377434 5.57636 0.258809 3 2.89779 129 129 129 255 0.183547 0.909214
0.041037 -0.030642 5.56536 0 0 0 193 193 193 255 1.33378 0.632868
0.04651 -0.030642 5.57484 1.67303 -3 2.38017 193 193 193 255 1.33378 0.632868
0.041037 0.377434 5.56536 1.67303 3 2.38014 129 129 129 255 0.183547 0.909214
0.071078 -0.030642 5.53532 0 0 0 193 193 193 255 1.39097 0.690059
0.080558 -0.030642 5.5408 2.63894 -3 1.22476 193 193 193 255 1.39097 0.690059
0.071078 0.377434 5.53532 2.63895 3 1.22479 129 129 129 255 0.183547 0.909214
0.082074 -0.030642 5.49429 0 0 0 193 193 193 255 1.41191 0.768184
0.09302 -0.030642 5.49429 2.89777 -3 -0.258829 193 193 193 255 1.41191 0.768184
0.082074 0.377434 5.49429 2.89777 3 -0.258791 129 129 129 255 0.183547 0.909214
3 16 17 1 
3 16 1 0 
3 2 3 4 
3 2 4 5 
3 10 11 13 
3 10 13 12 
3 6 7 11 
3 6 11 10 
3 7 6 9 
3 7 9 8 
3 8 9 12 
3 8 12 13 
3 6 10 12 
3 6 12 9 
3 7 8 14 
3 7 14 15 
3 17 14 8 
3 17 8 13 
3 17 13 1 
3 15 16 0 
3 15 0 11 
3 15 11 7 
3 13 11 0 
3 13 0 1 
3 18 19 25 
3 18 25 24 
3 19 18 20 
3 19 20 21 
3 21 20 22 
3 21 22 23 
3 23 22 24 
3 23 24 25 
3 19 21 3 
3 19 3 2 
3 21 23 4 
3 21 4 3 
3 23 25 5 
3 23 5 4 
3 25 19 2 
3 25 2 5 
3 26 27 39 
3 26 39 38 
3 27 28 40 
3 27 40 39 
3 28 29 41 
3 28 41 40 
3 29 30 42 
3 29 42 41 
3 30 31 43 
3 30 43 42 
3 31 32 44 
3 31 44 43 
3 32 33 45 
3 32 45 44 
3 33 34 46 
3 33 46 45 
3 34 35 47 
3 34 47 46 
3 35 36 48 
3 35 48 47 
3 36 37 49 
3 36 49 48 
3 37 26 38 
3 37 38 49 
3 27 26 50 
3 28 27 50 
3 29 28 50 
3 30 29 50 
3 31 30 50 
3 32 31 50 
3 33 32 50 
3 34 33 50 
3 35 34 50 
3 36 35 50 
3 37 36 50 
3 26 37 50 
3 123 124 125 
3 124 126 125 
3 126 127 125 
3 127 128 125 
3 128 129 125 
3 129 130 125 
3 130 131 125 
3 131 132 125 
3 132 133 125 
3 133 134 125 
3 134 135 125 
3 135 123 125 
3 38 39 52 
3 38 52 51 
3 39 40 53 
3 39 53 52 
3 40 41 54 
3 40 54 53 
3 41 42 55 
3 41 55 54 
3 42 43 56 
3 42 56 55 
3 43 44 57 
3 43 57 56 
3 44 45 58 
3 44 58 57 
3 45 46 59 
3 45 59 58 
3 46 47 60 
3 46 60 59 
3 47 48 61 
3 47 61 60 
3 48 49 62 
3 48 62 61 
3 49 38 51 
3 49 51 62 
3 160 161 64 
3 160 64 63 
3 161 162 65 
3 161 65 64 
3 162 163 66 
3 162 66 65 
3 163 164 67 
3 163 67 66 
3 164 165 68 
3 164 68 67 
3 165 166 69 
3 165 69 68 
3 166 167 70 
3 166 70 69 
3 167 168 71 
3 167 71 70 
3 168 169 72 
3 168 72 71 
3 169 170 73 
3 169 73 72 
3 170 171 74 
3 170 74 73 
3 171 160 63 
3 171 63 74 
3 63 64 76 
3 63 76 75 
3 64 65 77 
3 64 77 76 
3 65 66 78 
3 65 78 77 
3 66 67 79 
3 66 79 78 
3 67 68 80 
3 67 80 79 
3 68 69 81 
3 68 81 80 
3 69 70 82 
3 69 82 81 
3 70 71 83 
3 70 83 82 
3 71 72 84 
3 71 84 83 
3 72 73 85 
3 72 85 84 
3 73 74 86 
3 73 86 85 
3 74 63 75 
3 74 75 86 
3 204 205 88 
3 204 88 87 
3 205 206 89 
3 205 89 88 
3 206 207 90 
3 206 90 89 
3 207 208 91 
3 207 91 90 
3 208 209 92 
3 208 92 91 
3 209 210 93 
3 209 93 92 
3 210 211 94 
3 210 94 93 
3 211 212 95 
3 211 95 94 
3 212 213 96 
3 212 96 95 
3 213 214 97 
3 213 97 96 
3 214 215 98 
3 214 98 97 
3 215 204 87 
3 215 87 98 
3 136 137 100 
3 136 100 99 
3 137 138 101 
3 137 101 100 
3 138 139 102 
3 138 102 101 
3 139 140 103 
3 139 103 102 
3 140 141 104 
3 140 104 103 
3 141 142 105 
3 141 105 104 
3 142 143 106 
3 142 106 105 
3 143 144 107 
3 143 107 106 
3 144 145 108 
3 144 108 107 
3 145 146 109 
3 145 109 108 
3 146 147 110 
3 146 110 109 
3 147 136 99 
3 147 99 110 
3 148 149 112 
3 148 112 111 
3 149 150 113 
3 149 113 112 
3 150 151 114 
3 150 114 113 
3 151 152 115 
3 151 115 114 
3 152 153 116 
3 152 116 115 
3 153 154 117 
3 153 117 116 
3 154 155 118 
3 154 118 117 
3 155 156 119 
3 155 119 118 
3 156 157 120 
3 156 120 119 
3 157 158 121 
3 157 121 120 
3 158 159 122 
3 158 122 121 
3 159 148 111 
3 159 111 122 
3 111 112 216 
3 111 216 217 
3 112 113 218 
3 112 218 216 
3 113 114 219 
3 113 219 218 
3 114 115 220 
3 114 220 219 
3 115 116 221 
3 115 221 220 
3 116 117 222 
3 116 222 221 
3 117 118 223 
3 117 223 222 
3 118 119 224 
3 118 224 223 
3 119 120 225 
3 119 225 224 
3 120 121 226 
3 120 226 225 
3 121 122 227 
3 121 227 226 
3 122 111 217 
3 122 217 227 
3 87 88 137 
3 87 137 136 
3 88 89 138 
3 88 138 137 
3 89 90 139 
3 89 139 138 
3 90 91 140 
3 90 140 139 
3 91 92 141 
3 91 141 140 
3 92 93 142 
3 92 142 141 
3 93 94 143 
3 93 143 142 
3 94 95 144 
3 94 144 143 
3 95 96 145 
3 95 145 144 
3 96 97 146 
3 96 146 145 
3 97 98 147 
3 97 147 146 
3 98 87 136 
3 98 136 147 
3 99 100 149 
3 99 149 148 
3 100 101 150 
3 100 150 149 
3 101 102 151 
3 101 151 150 
3 102 103 152 
3 102 152 151 
3 103 104 153 
3 103 153 152 
3 104 105 154 
3 104 154 153 
3 105 106 155 
3 105 155 154 
3 106 107 156 
3 106 156 155 
3 107 108 157 
3 107 157 156 
3 108 109 158 
3 108 158 157 
3 109 110 159 
3 109 159 158 
3 110 99 148 
3 110 148 159 
3 172 173 174 
3 172 174 175 
3 173 176 177 
3 173 177 174 
3 176 178 179 
3 176 179 177 
3 178 180 181 
3 178 181 179 
3 180 182 183 
3 180 183 181 
3 182 184 185 
3 182 185 183 
3 184 186 187 
3 184 187 185 
3 186 188 189 
3 186 189 187 
3 188 190 191 
3 188 191 189 
3 190 192 193 
3 190 193 191 
3 192 194 195 
3 192 195 193 
3 194 172 175 
3 194 175 195 
3 228 229 230 
3 228 230 231 
3 232 233 175 
3 232 175 174 
3 229 234 235 
3 229 235 230 
3 236 232 174 
3 236 174 177 
3 234 237 238 
3 234 238 235 
3 239 236 177 
3 239 177 179 
3 237 240 241 
3 237 241 238 
3 242 239 179 
3 242 179 181 
3 240 243 244 
3 240 244 241 
3 245 242 181 
3 245 181 183 
3 243 246 247 
3 243 247 244 
3 248 245 183 
3 248 183 185 
3 246 249 250 
3 246 250 247 
3 251 248 185 
3 251 185 187 
3 249 252 253 
3 249 253 250 
3 254 251 187 
3 254 187 189 
3 252 255 256 
3 252 256 253 
3 257 254 189 
3 257 189 191 
3 255 258 259 
3 255 259 256 
3 260 257 191 
3 260 191 193 
3 258 261 262 
3 258 262 259 
3 263 260 193 
3 263 193 195 
3 261 228 231 
3 261 231 262 
3 233 263 195 
3 233 195 175 
3 196 197 199 
3 196 199 198 
3 197 196 200 
3 197 200 201 
3 198 199 203 
3 198 203 202 
3 201 200 202 
3 201 202 203 
3 15 14 202 
3 15 202 200 
3 196 198 17 
3 196 17 16 
3 198 202 14 
3 198 14 17 
3 200 196 16 
3 200 16 15 
3 201 203 20 
3 201 20 18 
3 203 199 22 
3 203 22 20 
3 199 197 24 
3 199 24 22 
3 197 201 18 
3 197 18 24 
