ply
format ascii 1.0
comment VCGLIB generated
element vertex 4
property float x
property float y
property float z
property float nx
property float ny
property float nz
property uchar red
property uchar green
property uchar blue
property uchar alpha
property float texture_u
property float texture_v
element face 2
property list uchar int vertex_indices
end_header
-100 4.37114e-006 100 0 2 -8.74228e-008 255 255 255 255 -100 -100
100 4.37114e-006 100 0 1 -4.37114e-008 255 255 255 255 100 -100
100 -4.37114e-006 -100 0 2 -8.74228e-008 255 255 255 255 100 100
-100 -4.37114e-006 -100 0 1 -4.37114e-008 255 255 255 255 -100 100
3 0 1 2 
3 0 2 3 
