ply
format ascii 1.0
comment VCGLIB generated
comment TextureFile LowPolyTexture_Variant1.png
element vertex 58
property float x
property float y
property float z
property float nx
property float ny
property float nz
property uchar red
property uchar green
property uchar blue
property uchar alpha
property float texture_u
property float texture_v
element face 112
property list uchar int vertex_indices
end_header
0.009158 -0.059911 -2.35629 0.25026 -2.9505 0.492803 154 154 154 255 0.187368 0.930228
0.01704 -0.062663 -2.40217 -0.116354 -2.95775 -0.21307 154 154 154 255 0.187368 0.930228
-0.033255 -0.059438 -2.41268 -0.453577 -2.84721 -0.812217 154 154 154 255 0.187368 0.930228
-0.093819 -0.057673 -2.3887 -0.803118 -2.77495 -0.799242 154 154 154 255 0.187368 0.930228
-0.119156 -0.05826 -2.35311 -0.891647 -2.83625 -0.165438 154 154 154 255 0.187368 0.930228
-0.111092 -0.058559 -2.31623 -0.518808 -2.88458 0.532281 154 154 154 255 0.187368 0.930228
-0.077523 -0.05826 -2.29776 0.071447 -2.86287 0.855383 154 154 154 255 0.187368 0.930228
-0.033844 -0.057922 -2.30951 0.357618 -2.88476 0.752149 154 154 154 255 0.187368 0.930228
0.096932 -0.052884 -2.36507 0.957008 -5.71253 1.42078 154 154 154 255 0.187368 0.930228
0.127442 -0.066283 -2.45508 0.0832876 -5.73817 -0.507372 154 154 154 255 0.187368 0.930228
0.014898 -0.049735 -2.47414 -1.06123 -5.25259 -2.29649 154 154 154 255 0.187368 0.930228
-0.122913 -0.040356 -2.41693 -2.09134 -4.96697 -2.29879 154 154 154 255 0.187368 0.930228
-0.16806 -0.042583 -2.35064 -2.39454 -5.29456 -0.798054 154 154 154 255 0.187368 0.930228
-0.155271 -0.044419 -2.27973 -1.42714 -5.59439 1.09373 154 154 154 255 0.187368 0.930228
-0.0896 -0.04313 -2.24633 0.0611527 -5.47719 2.19578 154 154 154 255 0.187368 0.930228
-0.009883 -0.041874 -2.26725 0.981071 -5.45789 2.16746 154 154 154 255 0.187368 0.930228
0.167152 -0.039005 -2.36835 2.60789 -4.43997 2.4137 154 154 154 255 0.187368 0.930228
0.205865 -0.05831 -2.48748 1.21412 -4.37422 -1.42475 154 154 154 255 0.187368 0.930228
0.05439 -0.032417 -2.51827 -1.15153 -3.34444 -4.11301 154 154 154 255 0.187368 0.930228
-0.144789 -0.014162 -2.43355 -3.184 -2.8124 -3.63489 154 154 154 255 0.187368 0.930228
-0.206727 -0.018941 -2.34184 -4.10772 -3.5555 -1.25293 154 154 154 255 0.187368 0.930228
-0.195712 -0.024853 -2.23899 -2.43059 -4.36941 1.99284 154 154 154 255 0.187368 0.930228
-0.102212 -0.020793 -2.20288 0.196814 -4.17603 3.72396 154 154 154 255 0.187368 0.930228
0.006115 -0.017486 -2.23481 1.91018 -3.90383 3.7293 154 154 154 255 0.187368 0.930228
0.19265 -0.011846 -2.36838 3.94115 0.0702489 2.77315 154 154 154 255 0.187368 0.930228
0.234455 -0.032153 -2.49746 2.77543 -0.231122 -1.77266 154 154 154 255 0.187368 0.930228
0.070394 -0.00418 -2.53093 -0.662671 -0.201413 -5.34487 154 154 154 255 0.187368 0.930228
-0.151632 0.016741 -2.4363 -3.58494 0.0752275 -4.34007 154 154 154 255 0.187368 0.930228
-0.220373 0.010588 -2.33448 -5.03336 0.218296 -1.38176 154 154 154 255 0.187368 0.930228
-0.212921 0.002673 -2.22029 -3.46797 0.0560931 2.47159 154 154 154 255 0.187368 0.930228
-0.107838 0.008101 -2.18486 -0.0380539 -0.150829 4.84587 154 154 154 255 0.187368 0.930228
0.010122 0.012382 -2.22123 2.52356 -0.0327665 4.62449 154 154 154 255 0.187368 0.930228
0.167152 0.022328 -2.36835 3.15353 4.15253 1.82189 154 154 154 255 0.187368 0.930228
0.205865 0.003786 -2.48748 2.70737 4.32134 -1.33433 154 154 154 255 0.187368 0.930228
0.056764 0.03052 -2.51512 -0.101973 3.33835 -4.43406 154 154 154 255 0.187368 0.930228
-0.144267 0.046861 -2.43475 -2.87593 2.8252 -3.74331 154 154 154 255 0.187368 0.930228
-0.206995 0.042004 -2.3422 -3.91467 3.45275 -0.987083 154 154 154 255 0.187368 0.930228
-0.196134 0.033233 -2.23955 -2.88035 4.24444 1.839 154 154 154 255 0.187368 0.930228
-0.102212 0.037844 -2.20288 -0.345624 4.28325 3.65916 154 154 154 255 0.187368 0.930228
0.006115 0.041053 -2.23481 1.95077 3.94978 3.51076 154 154 154 255 0.187368 0.930228
0.096932 0.050961 -2.36507 1.73194 5.59152 0.713525 154 154 154 255 0.187368 0.930228
0.127442 0.03831 -2.45508 1.67696 5.64568 -0.589946 154 154 154 255 0.187368 0.930228
0.014898 0.0625 -2.47414 0.311245 5.30735 -2.18063 154 154 154 255 0.187368 0.930228
-0.122808 0.069685 -2.4174 -1.57335 4.97414 -2.28139 154 154 154 255 0.187368 0.930228
-0.168389 0.066568 -2.35108 -2.11889 5.30264 -0.224134 154 154 154 255 0.187368 0.930228
-0.155365 0.055874 -2.27986 -1.45611 5.60924 1.23627 154 154 154 255 0.187368 0.930228
-0.0896 0.059082 -2.24633 -0.348444 5.6529 1.69344 154 154 154 255 0.187368 0.930228
-0.009883 0.060908 -2.26725 0.94768 5.57096 1.58942 154 154 154 255 0.187368 0.930228
0.009158 0.06463 -2.35629 0.542265 2.95049 0.14764 154 154 154 255 0.187368 0.930228
0.01704 0.068176 -2.40217 0.64798 2.93251 -0.0929425 154 154 154 255 0.187368 0.930228
-0.033255 0.078478 -2.41268 0.364558 2.90259 -0.45914 154 154 154 255 0.187368 0.930228
-0.093481 0.079907 -2.3888 -0.386618 2.87652 -0.703156 154 154 154 255 0.187368 0.930228
-0.119494 0.078181 -2.35356 -0.637327 2.89873 -0.0269091 154 154 154 255 0.187368 0.930228
-0.111534 0.06965 -2.31682 -0.462153 2.90679 0.592734 154 154 154 255 0.187368 0.930228
-0.077523 0.067948 -2.29776 -0.194009 2.94415 0.531634 154 154 154 255 0.187368 0.930228
-0.033844 0.068486 -2.30951 0.216751 2.95919 0.415863 154 154 154 255 0.187368 0.930228
-0.06359 -0.063679 -2.35139 -0.000384041 -0.0211704 0.000199753 154 154 154 255 0.187368 0.930228
-0.06359 0.07457 -2.35139 0.00194237 0.0211916 0.00244029 154 154 154 255 0.187368 0.930228
3 0 1 9 
3 0 9 8 
3 1 2 10 
3 1 10 9 
3 2 3 11 
3 2 11 10 
3 3 4 12 
3 3 12 11 
3 4 5 13 
3 4 13 12 
3 5 6 14 
3 5 14 13 
3 6 7 15 
3 6 15 14 
3 7 0 8 
3 7 8 15 
3 8 9 17 
3 8 17 16 
3 9 10 18 
3 9 18 17 
3 10 11 19 
3 10 19 18 
3 11 12 20 
3 11 20 19 
3 12 13 21 
3 12 21 20 
3 13 14 22 
3 13 22 21 
3 14 15 23 
3 14 23 22 
3 15 8 16 
3 15 16 23 
3 16 17 25 
3 16 25 24 
3 17 18 26 
3 17 26 25 
3 18 19 27 
3 18 27 26 
3 19 20 28 
3 19 28 27 
3 20 21 29 
3 20 29 28 
3 21 22 30 
3 21 30 29 
3 22 23 31 
3 22 31 30 
3 23 16 24 
3 23 24 31 
3 24 25 33 
3 24 33 32 
3 25 26 34 
3 25 34 33 
3 26 27 35 
3 26 35 34 
3 27 28 36 
3 27 36 35 
3 28 29 37 
3 28 37 36 
3 29 30 38 
3 29 38 37 
3 30 31 39 
3 30 39 38 
3 31 24 32 
3 31 32 39 
3 32 33 41 
3 32 41 40 
3 33 34 42 
3 33 42 41 
3 34 35 43 
3 34 43 42 
3 35 36 44 
3 35 44 43 
3 36 37 45 
3 36 45 44 
3 37 38 46 
3 37 46 45 
3 38 39 47 
3 38 47 46 
3 39 32 40 
3 39 40 47 
3 40 41 49 
3 40 49 48 
3 41 42 50 
3 41 50 49 
3 42 43 51 
3 42 51 50 
3 43 44 52 
3 43 52 51 
3 44 45 53 
3 44 53 52 
3 45 46 54 
3 45 54 53 
3 46 47 55 
3 46 55 54 
3 47 40 48 
3 47 48 55 
3 1 0 56 
3 2 1 56 
3 3 2 56 
3 4 3 56 
3 5 4 56 
3 6 5 56 
3 7 6 56 
3 0 7 56 
3 48 49 57 
3 49 50 57 
3 50 51 57 
3 51 52 57 
3 52 53 57 
3 53 54 57 
3 54 55 57 
3 55 48 57 
