ply
format ascii 1.0
comment VCGLIB generated
comment TextureFile LowPolyTexture_Variant1.png
element vertex 92
property float x
property float y
property float z
property float nx
property float ny
property float nz
property uchar red
property uchar green
property uchar blue
property uchar alpha
property float texture_u
property float texture_v
element face 180
property list uchar int vertex_indices
end_header
0.04158 -0.165092 -3.56545 0.395848 -2.98665 -0.0393795 154 154 154 255 0.187068 0.93212
-0.007617 -0.171419 -3.61896 0.224255 -2.99736 -0.180947 154 154 154 255 0.187068 0.93212
-0.053349 -0.175765 -3.61874 0.0694788 -3.00385 -0.215669 154 154 154 255 0.187068 0.93212
-0.079642 -0.178382 -3.56545 -0.0158746 -3.01057 -0.0752957 154 154 154 255 0.187068 0.93212
-0.078275 -0.176443 -3.47468 0.0179383 -3.00849 0.135473 154 154 154 255 0.187068 0.93212
-0.052665 -0.170194 -3.3839 0.0871849 -3.00441 0.212131 154 154 154 255 0.187068 0.93212
-0.011539 -0.163336 -3.3278 0.169795 -3.00323 0.177933 154 154 154 255 0.187068 0.93212
0.03718 -0.158359 -3.3278 0.32654 -2.99339 0.115397 154 154 154 255 0.187068 0.93212
0.073218 -0.155735 -3.3839 0.427338 -2.98315 0.0823838 154 154 154 255 0.187068 0.93212
0.07507 -0.158228 -3.47468 0.458108 -2.97875 0.0609571 154 154 154 255 0.187068 0.93212
0.089184 -0.159015 -3.64308 1.1059 -5.83989 -0.459963 154 154 154 255 0.187068 0.93212
0.003404 -0.165363 -3.71628 0.547886 -5.76509 -1.15499 154 154 154 255 0.187068 0.93212
-0.083383 -0.167736 -3.7181 -0.302318 -5.76468 -1.21316 154 154 154 255 0.187068 0.93212
-0.140903 -0.175174 -3.63766 -0.760557 -5.84673 -0.538725 154 154 154 255 0.187068 0.93212
-0.144021 -0.177815 -3.47468 -0.633238 -5.91574 0.225481 154 154 154 255 0.187068 0.93212
-0.108607 -0.164953 -3.30202 -0.300892 -5.94272 0.588734 154 154 154 255 0.187068 0.93212
-0.033482 -0.156018 -3.19531 0.131194 -5.95418 0.613279 154 154 154 255 0.187068 0.93212
0.059378 -0.151801 -3.19985 0.724456 -5.92059 0.456823 154 154 154 255 0.187068 0.93212
0.134503 -0.144896 -3.30295 1.11652 -5.87982 0.242915 154 154 154 255 0.187068 0.93212
0.150117 -0.146557 -3.47468 1.23193 -5.85988 0.0383153 154 154 154 255 0.187068 0.93212
0.137849 -0.142973 -3.68709 2.62213 -3.97308 -2.12865 154 154 154 255 0.187068 0.93212
0.02635 -0.145543 -3.76176 1.03357 -3.58441 -3.58253 154 154 154 255 0.187068 0.93212
-0.092283 -0.14568 -3.76708 -1.34192 -3.45435 -3.58629 154 154 154 255 0.187068 0.93212
-0.181555 -0.156201 -3.68141 -2.99893 -4.08696 -1.75855 154 154 154 255 0.187068 0.93212
-0.196435 -0.168067 -3.47468 -3.04575 -4.66567 0.2928 154 154 154 255 0.187068 0.93212
-0.154358 -0.150087 -3.23703 -2.50092 -4.50592 1.76839 154 154 154 255 0.187068 0.93212
-0.050957 -0.142538 -3.0997 -0.476794 -4.18376 2.82867 154 154 154 255 0.187068 0.93212
0.076853 -0.140575 -3.12166 2.10515 -3.72536 2.35015 154 154 154 255 0.187068 0.93212
0.180254 -0.131452 -3.26051 3.37996 -3.63264 1.14601 154 154 154 255 0.187068 0.93212
0.212217 -0.130627 -3.47468 3.45493 -3.98558 -0.290947 154 154 154 255 0.187068 0.93212
0.177884 -0.058556 -3.70214 4.19862 -1.58925 -3.29254 154 154 154 255 0.187068 0.93212
0.049607 -0.059537 -3.77917 1.6407 -0.930462 -5.41673 154 154 154 255 0.187068 0.93212
-0.090441 -0.059537 -3.7857 -1.67443 -0.502889 -5.30543 154 154 154 255 0.187068 0.93212
-0.200408 -0.081529 -3.70044 -4.59268 -1.17808 -2.92263 154 154 154 255 0.187068 0.93212
-0.231429 -0.147749 -3.47468 -5.304 -2.13703 0.112334 154 154 154 255 0.187068 0.93212
-0.183732 -0.078897 -3.1966 -4.52493 -1.89099 2.69217 154 154 154 255 0.187068 0.93212
-0.062177 -0.059537 -3.06326 -1.45776 -0.799761 4.68849 154 154 154 255 0.187068 0.93212
0.086796 -0.058547 -3.08955 2.94888 0.0934494 4.20657 154 154 154 255 0.187068 0.93212
0.192095 -0.039927 -3.26178 5.18158 0.306724 2.39994 154 154 154 255 0.187068 0.93212
0.251681 -0.037282 -3.47568 5.54867 -1.04594 -0.0406016 154 154 154 255 0.187068 0.93212
0.201982 0.019455 -3.70042 4.32706 -0.0389872 -3.29439 154 154 154 255 0.187068 0.93212
0.068332 0.019455 -3.77643 1.57886 0.523991 -5.49663 154 154 154 255 0.187068 0.93212
-0.081304 0.019455 -3.78168 -1.59551 0.975147 -5.32512 154 154 154 255 0.187068 0.93212
-0.200584 0.001431 -3.69854 -4.65295 0.407139 -3.08501 154 154 154 255 0.187068 0.93212
-0.252745 -0.06444 -3.47468 -5.80955 -0.252846 -0.00519586 154 154 154 255 0.187068 0.93212
-0.194103 0.003054 -3.19788 -4.82816 0.561802 2.69943 154 154 154 255 0.187068 0.93212
-0.066043 0.019455 -3.07778 -1.37663 1.95208 4.49637 154 154 154 255 0.187068 0.93212
0.079565 0.019455 -3.11478 3.01238 2.52842 3.80569 154 154 154 255 0.187068 0.93212
0.167466 0.02591 -3.30633 4.83105 2.47496 2.4952 154 154 154 255 0.187068 0.93212
0.255456 0.026962 -3.48443 5.45135 1.10856 0.473131 154 154 154 255 0.187068 0.93212
0.203878 0.098446 -3.68554 4.12589 1.91489 -2.88519 154 154 154 255 0.187068 0.93212
0.078686 0.098446 -3.75466 1.43122 2.0818 -5.18266 154 154 154 255 0.187068 0.93212
-0.067268 0.098119 -3.75758 -1.4953 2.26541 -5.02906 154 154 154 255 0.187068 0.93212
-0.191254 0.076708 -3.68352 -4.44266 1.66593 -2.96942 154 154 154 255 0.187068 0.93212
-0.2563 0.011773 -3.47468 -5.70175 1.10299 -0.107965 154 154 154 255 0.187068 0.93212
-0.189401 0.080457 -3.23225 -4.40742 2.26055 2.38785 154 154 154 255 0.187068 0.93212
-0.062177 0.098446 -3.13753 -1.01227 3.70504 3.84127 154 154 154 255 0.187068 0.93212
0.066651 0.098446 -3.18559 3.08213 3.44705 3.18943 154 154 154 255 0.187068 0.93212
0.139112 0.097811 -3.35424 4.62914 2.85537 2.50252 154 154 154 255 0.187068 0.93212
0.232856 0.097045 -3.49156 4.97567 2.51436 0.994393 154 154 154 255 0.187068 0.93212
0.175157 0.165076 -3.65998 3.33548 3.87327 -2.03403 154 154 154 255 0.187068 0.93212
0.069581 0.163687 -3.71827 1.11729 3.707 -4.30972 154 154 154 255 0.187068 0.93212
-0.060139 0.160973 -3.72004 -1.44859 3.58227 -4.22792 154 154 154 255 0.187068 0.93212
-0.176001 0.135718 -3.6586 -4.03185 3.06694 -2.43051 154 154 154 255 0.187068 0.93212
-0.237882 0.081148 -3.47468 -5.20808 2.64884 -0.149416 154 154 154 255 0.187068 0.93212
-0.173902 0.139788 -3.28324 -3.86582 3.59335 1.83789 154 154 154 255 0.187068 0.93212
-0.051691 0.169006 -3.22998 -0.813688 4.72883 3.07121 154 154 154 255 0.187068 0.93212
0.058947 0.169262 -3.26891 2.69613 4.15793 2.8145 154 154 154 255 0.187068 0.93212
0.118722 0.160909 -3.38053 4.34156 3.37876 2.27634 154 154 154 255 0.187068 0.93212
0.190361 0.158341 -3.49031 4.19052 3.70803 1.18016 154 154 154 255 0.187068 0.93212
0.115645 0.210077 -3.62254 2.01302 5.30019 -0.966842 154 154 154 255 0.187068 0.93212
0.038065 0.207742 -3.67323 0.569416 5.182 -2.57288 154 154 154 255 0.187068 0.93212
-0.059919 0.202869 -3.67398 -1.38926 4.87378 -2.63527 154 154 154 255 0.187068 0.93212
-0.149499 0.177621 -3.61995 -3.36456 4.45869 -1.4339 154 154 154 255 0.187068 0.93212
-0.195429 0.143471 -3.47468 -4.21078 4.1496 -0.105004 154 154 154 255 0.187068 0.93212
-0.148444 0.179408 -3.34029 -3.2885 4.64692 0.996748 154 154 154 255 0.187068 0.93212
-0.050548 0.211781 -3.3173 -1.0025 5.40538 1.903 154 154 154 255 0.187068 0.93212
0.041839 0.215838 -3.34062 1.35854 5.3034 1.76539 154 154 154 255 0.187068 0.93212
0.095088 0.206706 -3.39811 2.78092 4.84717 1.31049 154 154 154 255 0.187068 0.93212
0.131288 0.202169 -3.48438 2.77452 5.00129 0.781218 154 154 154 255 0.187068 0.93212
0.03896 0.231782 -3.5635 0.683931 2.90252 -0.150442 154 154 154 255 0.187068 0.93212
-0.003639 0.22883 -3.6058 0.176952 2.9022 -0.733282 154 154 154 255 0.187068 0.93212
-0.057989 0.222991 -3.60509 -0.54398 2.80249 -0.818732 154 154 154 255 0.187068 0.93212
-0.107695 0.207015 -3.56135 -1.41955 2.59355 -0.431185 154 154 154 255 0.187068 0.93212
-0.129494 0.196255 -3.47485 -1.79908 2.4167 -0.023553 154 154 154 255 0.187068 0.93212
-0.107695 0.20707 -3.40464 -1.55344 2.53219 0.218271 154 154 154 255 0.187068 0.93212
-0.056753 0.224384 -3.38494 -0.730845 2.81646 0.584571 154 154 154 255 0.187068 0.93212
-0.002961 0.229475 -3.39544 0.204121 2.92993 0.540878 154 154 154 255 0.187068 0.93212
0.034463 0.227505 -3.42576 0.738505 2.90149 0.278905 154 154 154 255 0.187068 0.93212
0.047426 0.225486 -3.48181 0.847195 2.88717 0.138903 154 154 154 255 0.187068 0.93212
-0.003633 -0.168801 -3.47468 0.00785826 -0.0689827 0.00191971 154 154 154 255 0.187068 0.93212
-0.045349 0.226185 -3.4781 -0.0100202 0.0611691 5.47377e-005 154 154 154 255 0.187068 0.93212
3 0 1 11 
3 0 11 10 
3 1 2 12 
3 1 12 11 
3 2 3 13 
3 2 13 12 
3 3 4 14 
3 3 14 13 
3 4 5 15 
3 4 15 14 
3 5 6 16 
3 5 16 15 
3 6 7 17 
3 6 17 16 
3 7 8 18 
3 7 18 17 
3 8 9 19 
3 8 19 18 
3 9 0 10 
3 9 10 19 
3 10 11 21 
3 10 21 20 
3 11 12 22 
3 11 22 21 
3 12 13 23 
3 12 23 22 
3 13 14 24 
3 13 24 23 
3 14 15 25 
3 14 25 24 
3 15 16 26 
3 15 26 25 
3 16 17 27 
3 16 27 26 
3 17 18 28 
3 17 28 27 
3 18 19 29 
3 18 29 28 
3 19 10 20 
3 19 20 29 
3 20 21 31 
3 20 31 30 
3 21 22 32 
3 21 32 31 
3 22 23 33 
3 22 33 32 
3 23 24 34 
3 23 34 33 
3 24 25 35 
3 24 35 34 
3 25 26 36 
3 25 36 35 
3 26 27 37 
3 26 37 36 
3 27 28 38 
3 27 38 37 
3 28 29 39 
3 28 39 38 
3 29 20 30 
3 29 30 39 
3 30 31 41 
3 30 41 40 
3 31 32 42 
3 31 42 41 
3 32 33 43 
3 32 43 42 
3 33 34 44 
3 33 44 43 
3 34 35 45 
3 34 45 44 
3 35 36 46 
3 35 46 45 
3 36 37 47 
3 36 47 46 
3 37 38 48 
3 37 48 47 
3 38 39 49 
3 38 49 48 
3 39 30 40 
3 39 40 49 
3 40 41 51 
3 40 51 50 
3 41 42 52 
3 41 52 51 
3 42 43 53 
3 42 53 52 
3 43 44 54 
3 43 54 53 
3 44 45 55 
3 44 55 54 
3 45 46 56 
3 45 56 55 
3 46 47 57 
3 46 57 56 
3 47 48 58 
3 47 58 57 
3 48 49 59 
3 48 59 58 
3 49 40 50 
3 49 50 59 
3 50 51 61 
3 50 61 60 
3 51 52 62 
3 51 62 61 
3 52 53 63 
3 52 63 62 
3 53 54 64 
3 53 64 63 
3 54 55 65 
3 54 65 64 
3 55 56 66 
3 55 66 65 
3 56 57 67 
3 56 67 66 
3 57 58 68 
3 57 68 67 
3 58 59 69 
3 58 69 68 
3 59 50 60 
3 59 60 69 
3 60 61 71 
3 60 71 70 
3 61 62 72 
3 61 72 71 
3 62 63 73 
3 62 73 72 
3 63 64 74 
3 63 74 73 
3 64 65 75 
3 64 75 74 
3 65 66 76 
3 65 76 75 
3 66 67 77 
3 66 77 76 
3 67 68 78 
3 67 78 77 
3 68 69 79 
3 68 79 78 
3 69 60 70 
3 69 70 79 
3 70 71 81 
3 70 81 80 
3 71 72 82 
3 71 82 81 
3 72 73 83 
3 72 83 82 
3 73 74 84 
3 73 84 83 
3 74 75 85 
3 74 85 84 
3 75 76 86 
3 75 86 85 
3 76 77 87 
3 76 87 86 
3 77 78 88 
3 77 88 87 
3 78 79 89 
3 78 89 88 
3 79 70 80 
3 79 80 89 
3 1 0 90 
3 2 1 90 
3 3 2 90 
3 4 3 90 
3 5 4 90 
3 6 5 90 
3 7 6 90 
3 8 7 90 
3 9 8 90 
3 0 9 90 
3 80 81 91 
3 81 82 91 
3 82 83 91 
3 83 84 91 
3 84 85 91 
3 85 86 91 
3 86 87 91 
3 87 88 91 
3 88 89 91 
3 89 80 91 
