ply
format ascii 1.0
comment VCGLIB generated
comment TextureFile LowPolyTexture_Variant1.png
element vertex 106
property float x
property float y
property float z
property float nx
property float ny
property float nz
property uchar red
property uchar green
property uchar blue
property uchar alpha
property float texture_u
property float texture_v
element face 96
property list uchar int vertex_indices
end_header
1.20564 0.066695 -16.1242 -1.82247 1.52363 4.52954 75 75 75 255 0.18896 0.891781
1.18292 0.066695 -16.1469 -3.93781 3.04721 1.52361 75 75 75 255 0.18896 0.891781
1.22458 0.085628 -16.1431 -0.816483 4.04726 2.23067 75 75 75 255 0.18896 0.891781
1.20186 0.085628 -16.1658 -1.11535 5.5236 0.408252 75 75 75 255 0.18896 0.891781
1.22458 0.085628 -16.2946 -0.408243 3.52364 -1.11532 75 75 75 255 0.18896 0.891781
1.20186 0.085628 -16.2719 -2.2307 4.04722 -0.816473 75 75 75 255 0.18896 0.891781
1.18292 0.066695 -16.2908 -4.52958 1.52361 -1.82244 75 75 75 255 0.18896 0.891781
1.20564 0.066695 -16.3135 -1.5236 3.04727 -4.93774 75 75 75 255 0.18896 0.891781
1.35334 0.085628 -16.1658 2.23071 4.04721 0.816485 75 75 75 255 0.18896 0.891781
1.33062 0.085628 -16.1431 0.40825 3.52363 1.11533 75 75 75 255 0.18896 0.891781
1.37227 0.066695 -16.1469 4.52961 1.52361 1.82242 75 75 75 255 0.18896 0.891781
1.34955 0.066695 -16.1242 1.52363 3.04726 3.93774 75 75 75 255 0.18896 0.891781
1.33062 0.085628 -16.2946 0.816503 4.04727 -2.23062 75 75 75 255 0.18896 0.891781
1.35334 0.085628 -16.2719 1.11536 3.52361 -0.408227 75 75 75 255 0.18896 0.891781
1.34955 0.066695 -16.3135 1.82251 1.52364 -4.52948 75 75 75 255 0.18896 0.891781
1.37227 0.066695 -16.2908 3.93784 3.04723 -1.52354 75 75 75 255 0.18896 0.891781
1.34955 -0.180149 -16.1242 1.41425 -1 3.41417 193 193 193 255 0.18896 0.891781
1.37227 -0.180149 -16.1469 1.70713 -2 0.707086 193 193 193 255 0.18896 0.891781
1.18292 -0.180149 -16.1469 -3.41422 -1 1.4142 193 193 193 255 0.18896 0.891781
1.20564 -0.180149 -16.1242 -0.707112 -2 1.7071 193 193 193 255 0.18896 0.891781
1.37227 -0.180149 -16.2908 3.41425 -2 -1.41417 193 193 193 255 0.18896 0.891781
1.34955 -0.180149 -16.3135 0.707127 -2 -1.70709 193 193 193 255 0.18896 0.891781
1.20564 -0.180149 -16.3135 -1.41422 -1 -2.4142 75 75 75 255 0.404998 0.75
1.18292 -0.180149 -16.2908 -1.70711 -3 -0.707101 75 75 75 255 0.375 0.779997
1.2776 0.085628 -16.2946 0 8.12139 -2.12125 75 75 75 255 0.18896 0.891781
1.2776 0.066695 -16.3135 0 2.12139 -4.12125 75 75 75 255 0.18896 0.891781
1.2776 -0.180149 -16.3135 0 -3 -4 193 193 193 255 0.5 0.75
1.2776 0.085628 -16.1431 0 6.12139 2.12125 75 75 75 255 0.18896 0.891781
1.2776 0.066695 -16.1242 0 2.12139 5.12125 75 75 75 255 0.18896 0.891781
1.2776 -0.180149 -16.1242 0 -5 3 193 193 193 255 0.183007 0.870095
1.35334 0.085628 -16.2188 2.12132 8.12132 0 75 75 75 255 0.18896 0.891781
1.37227 0.066695 -16.2188 5.12132 2.12132 0 75 75 75 255 0.18896 0.891781
1.37227 -0.180149 -16.2188 3 -3 0 193 193 193 255 0.183007 0.870095
1.20186 0.085628 -16.2188 -2.12132 7.12132 0 75 75 75 255 0.18896 0.891781
1.18292 0.066695 -16.2188 -5.12132 2.12132 0 75 75 75 255 0.18896 0.891781
1.18292 -0.180149 -16.2188 -3 -4 0 193 193 193 255 0.375 0.875
1.21322 0.057254 -16.2188 2.12132 0.00828952 0.707092 48 48 48 255 0.185638 0.856946
1.2776 0.057254 -16.1545 0.707101 0.00828941 -2.12134 48 48 48 255 0.187588 0.87243
1.34198 0.057254 -16.2188 -2.12131 0.00828954 -0.707125 48 48 48 255 0.187588 0.87243
1.2776 0.057254 -16.2832 -0.707109 0.00828965 2.12131 48 48 48 255 0.185638 0.856946
1.2776 0.085628 -16.1464 0.499964 6.12135 -1.5 75 75 75 255 0.18896 0.891781
1.2776 0.079954 -16.1545 -1.20712 2.12132 -3.62135 75 75 75 255 0.18896 0.891781
1.20519 0.085628 -16.2188 1.49991 5.12145 0.499914 75 75 75 255 0.18896 0.891781
1.21322 0.079954 -16.2188 3.62124 2.12141 -1.20716 75 75 75 255 0.18896 0.891781
1.35 0.085628 -16.2188 -1.49998 5.12134 -0.500049 75 75 75 255 0.18896 0.891781
1.34198 0.079954 -16.2188 -3.62128 2.12138 1.20702 75 75 75 255 0.18896 0.891781
1.2776 0.085628 -16.2912 -0.5 5.12145 1.49989 75 75 75 255 0.18896 0.891781
1.2776 0.079954 -16.2832 1.20706 2.12147 3.62119 75 75 75 255 0.18896 0.891781
1.2776 -0.180149 -16.2188 0 -7 0 193 193 193 255 0.500001 0.875
1.2776 0.057254 -16.2188 0 0.0165791 0 48 48 48 255 0.185638 0.856946
1.20564 -0.180149 -16.3135 -1.41422 -1 -2.4142 75 75 75 255 0.18896 0.891781
1.18292 -0.180149 -16.2908 -1.70711 -3 -0.707101 75 75 75 255 0.18896 0.891781
1.2776 0.066695 -16.1242 0 2.12139 5.12125 75 75 75 255 0.183007 0.870095
1.34955 -0.180149 -16.1242 1.41425 -1 3.41417 193 193 193 255 0.183007 0.870095
1.34955 0.066695 -16.1242 1.52363 3.04726 3.93774 75 75 75 255 0.183007 0.870095
1.20564 0.066695 -16.3135 -1.5236 3.04727 -4.93774 75 75 75 255 0.183007 0.870095
1.2776 0.066695 -16.3135 0 2.12139 -4.12125 75 75 75 255 0.183007 0.870095
1.2776 -0.180149 -16.3135 0 -3 -4 193 193 193 255 0.183007 0.870095
1.20564 -0.180149 -16.3135 -1.41422 -1 -2.4142 75 75 75 255 0.183007 0.870095
1.37227 0.066695 -16.2188 5.12132 2.12132 0 75 75 75 255 0.183007 0.870095
1.37227 -0.180149 -16.2908 3.41425 -2 -1.41417 193 193 193 255 0.183007 0.870095
1.37227 0.066695 -16.2908 3.93784 3.04723 -1.52354 75 75 75 255 0.183007 0.870095
1.18292 0.066695 -16.2188 -5.12132 2.12132 0 75 75 75 255 0.183007 0.870095
1.18292 -0.180149 -16.2188 -3 -4 0 193 193 193 255 0.183007 0.870095
1.18292 -0.180149 -16.1469 -3.41422 -1 1.4142 193 193 193 255 0.183007 0.870095
1.18292 0.066695 -16.1469 -3.93781 3.04721 1.52361 75 75 75 255 0.183007 0.870095
1.34955 0.066695 -16.3135 1.82251 1.52364 -4.52948 75 75 75 255 0.183007 0.870095
1.34955 -0.180149 -16.3135 0.707127 -2 -1.70709 193 193 193 255 0.183007 0.870095
1.20564 0.066695 -16.1242 -1.82247 1.52363 4.52954 75 75 75 255 0.183007 0.870095
1.20564 -0.180149 -16.1242 -0.707112 -2 1.7071 193 193 193 255 0.183007 0.870095
1.37227 0.066695 -16.1469 4.52961 1.52361 1.82242 75 75 75 255 0.183007 0.870095
1.37227 -0.180149 -16.1469 1.70713 -2 0.707086 193 193 193 255 0.183007 0.870095
1.18292 0.066695 -16.2908 -4.52958 1.52361 -1.82244 75 75 75 255 0.183007 0.870095
1.18292 -0.180149 -16.2908 -1.70711 -3 -0.707101 75 75 75 255 0.183007 0.870095
1.20186 0.085628 -16.1658 -1.11535 5.5236 0.408252 75 75 75 255 0.183007 0.870095
1.22458 0.085628 -16.1431 -0.816483 4.04726 2.23067 75 75 75 255 0.183007 0.870095
1.2776 0.085628 -16.1431 0 6.12139 2.12125 75 75 75 255 0.183007 0.870095
1.2776 0.085628 -16.1464 0.499964 6.12135 -1.5 75 75 75 255 0.183007 0.870095
1.20519 0.085628 -16.2188 1.49991 5.12145 0.499914 75 75 75 255 0.183007 0.870095
1.20186 0.085628 -16.2188 -2.12132 7.12132 0 75 75 75 255 0.183007 0.870095
1.35334 0.085628 -16.2188 2.12132 8.12132 0 75 75 75 255 0.183007 0.870095
1.35 0.085628 -16.2188 -1.49998 5.12134 -0.500049 75 75 75 255 0.183007 0.870095
1.33062 0.085628 -16.1431 0.40825 3.52363 1.11533 75 75 75 255 0.183007 0.870095
1.35334 0.085628 -16.1658 2.23071 4.04721 0.816485 75 75 75 255 0.183007 0.870095
1.2776 0.085628 -16.2946 0 8.12139 -2.12125 75 75 75 255 0.183007 0.870095
1.2776 0.085628 -16.2912 -0.5 5.12145 1.49989 75 75 75 255 0.183007 0.870095
1.35334 0.085628 -16.2719 1.11536 3.52361 -0.408227 75 75 75 255 0.183007 0.870095
1.33062 0.085628 -16.2946 0.816503 4.04727 -2.23062 75 75 75 255 0.183007 0.870095
1.22458 0.085628 -16.2946 -0.408243 3.52364 -1.11532 75 75 75 255 0.183007 0.870095
1.20186 0.085628 -16.2719 -2.2307 4.04722 -0.816473 75 75 75 255 0.183007 0.870095
1.21322 0.079954 -16.2188 3.62124 2.12141 -1.20716 75 75 75 255 0.187588 0.87243
1.2776 0.079954 -16.1545 -1.20712 2.12132 -3.62135 75 75 75 255 0.187588 0.87243
1.21322 0.057254 -16.2188 2.12132 0.00828952 0.707092 48 48 48 255 0.187588 0.87243
1.34198 0.079954 -16.2188 -3.62128 2.12138 1.20702 75 75 75 255 0.187588 0.87243
1.2776 0.079954 -16.2832 1.20706 2.12147 3.62119 75 75 75 255 0.187588 0.87243
1.2776 0.057254 -16.2832 -0.707109 0.00828965 2.12131 48 48 48 255 0.187588 0.87243
1.2776 -0.180149 -16.1242 0 -5 3 193 193 193 255 0.5 1
1.20564 -0.180149 -16.1242 -0.707112 -2 1.7071 193 193 193 255 0.404998 1
1.18292 -0.180149 -16.1469 -3.41422 -1 1.4142 193 193 193 255 0.375 0.970003
1.34955 -0.180149 -16.3135 0.707127 -2 -1.70709 193 193 193 255 0.595003 0.75
1.37227 -0.180149 -16.2908 3.41425 -2 -1.41417 193 193 193 255 0.625 0.779997
1.37227 -0.180149 -16.2188 3 -3 0 193 193 193 255 0.625 0.875
1.37227 -0.180149 -16.1469 1.70713 -2 0.707086 193 193 193 255 0.625 0.970003
1.34955 -0.180149 -16.1242 1.41425 -1 3.41417 193 193 193 255 0.595003 1
1.34198 0.057254 -16.2188 -2.12131 0.00828954 -0.707125 48 48 48 255 0.185638 0.856946
1.2776 0.057254 -16.1545 0.707101 0.00828941 -2.12134 48 48 48 255 0.185638 0.856946
3 36 49 39 
3 23 22 26 
3 23 26 48 
3 23 48 35 
3 0 1 18 
3 0 18 19 
3 1 0 2 
3 1 2 3 
3 5 4 7 
3 5 7 6 
3 6 7 50 
3 6 50 51 
3 8 9 11 
3 8 11 10 
3 10 11 16 
3 10 16 17 
3 12 13 15 
3 12 15 14 
3 14 15 20 
3 14 20 21 
3 1 3 33 
3 1 33 34 
3 27 28 11 
3 27 11 9 
3 30 31 15 
3 30 15 13 
3 7 4 24 
3 7 24 25 
3 52 29 53 
3 52 53 54 
3 55 56 57 
3 55 57 58 
3 59 32 60 
3 59 60 61 
3 62 63 64 
3 62 64 65 
3 25 24 12 
3 25 12 14 
3 57 56 66 
3 57 66 67 
3 2 0 28 
3 2 28 27 
3 68 69 29 
3 68 29 52 
3 8 10 31 
3 8 31 30 
3 70 71 32 
3 70 32 59 
3 34 33 5 
3 34 5 6 
3 72 73 63 
3 72 63 62 
3 40 41 43 
3 40 43 42 
3 41 40 44 
3 41 44 45 
3 42 43 47 
3 42 47 46 
3 45 44 46 
3 45 46 47 
3 74 75 76 
3 74 76 77 
3 74 77 78 
3 74 78 79 
3 80 81 77 
3 80 77 76 
3 80 76 82 
3 80 82 83 
3 84 85 81 
3 84 81 80 
3 84 80 86 
3 84 86 87 
3 79 78 85 
3 79 85 84 
3 79 84 88 
3 79 88 89 
3 90 91 37 
3 90 37 92 
3 91 93 38 
3 91 38 37 
3 93 94 95 
3 93 95 38 
3 94 90 92 
3 94 92 95 
3 35 48 96 
3 35 96 97 
3 35 97 98 
3 48 26 99 
3 48 99 100 
3 48 100 101 
3 96 48 101 
3 96 101 102 
3 96 102 103 
3 39 49 104 
3 36 105 49 
3 104 49 105 
