ply
format ascii 1.0
comment VCGLIB generated
comment TextureFile LowPolyTexture_Variant1.png
element vertex 255
property float x
property float y
property float z
property float nx
property float ny
property float nz
property uchar red
property uchar green
property uchar blue
property uchar alpha
property float texture_u
property float texture_v
element face 484
property list uchar int vertex_indices
end_header
0.386003 2.3731 -4.75463 1.07573 -2.68759 -0.712271 54 154 68 255 0.341573 0.854185
0.289545 2.38534 -4.85678 -0.116183 -2.71527 -1.19357 54 154 68 255 0.341573 0.854185
0.171703 2.42629 -4.88336 -0.983762 -2.66885 -1.07445 54 154 68 255 0.341573 0.854185
0.059965 2.44863 -4.80471 -1.16943 -2.69644 -0.852143 54 154 68 255 0.341573 0.854185
0.016825 2.44 -4.66949 -1.09542 -2.82431 -0.201262 54 154 68 255 0.341573 0.854185
0.059965 2.4327 -4.51442 -0.587296 -2.81223 0.874865 54 154 68 255 0.341573 0.854185
0.172906 2.46876 -4.38994 0.122531 -2.69701 1.43467 54 154 68 255 0.341573 0.854185
0.31251 2.49842 -4.36578 0.736939 -2.58779 1.47206 54 154 68 255 0.341573 0.854185
0.424797 2.46709 -4.47463 1.18046 -2.52423 1.26499 54 154 68 255 0.341573 0.854185
0.445627 2.4079 -4.62028 1.46143 -2.58742 0.397151 54 154 68 255 0.341573 0.854185
0.476744 2.42692 -4.81205 3.25382 -4.45361 -1.66541 54 154 68 255 0.341573 0.854185
0.319722 2.46325 -5.03055 0.999004 -4.67941 -3.06954 54 154 68 255 0.341573 0.854185
0.109937 2.53625 -5.09446 -1.68259 -4.76162 -2.93651 54 154 68 255 0.341573 0.854185
-0.10489 2.57269 -4.94182 -3.07002 -4.60963 -1.93208 54 154 68 255 0.341573 0.854185
-0.186947 2.51932 -4.68009 -3.47246 -4.40493 -0.24467 54 154 68 255 0.341573 0.854185
-0.10489 2.4939 -4.41287 -2.74571 -4.15721 2.14421 54 154 68 255 0.341573 0.854185
0.109937 2.58901 -4.16214 -1.12002 -3.92561 3.80348 54 154 68 255 0.341573 0.854185
0.375479 2.68108 -4.0705 1.53035 -3.99734 3.55594 54 154 68 255 0.341573 0.854185
0.590306 2.61945 -4.33468 3.23562 -4.07608 2.49119 54 154 68 255 0.341573 0.854185
0.616606 2.51043 -4.60107 3.64637 -4.24069 0.426393 54 154 68 255 0.341573 0.854185
0.676799 2.78962 -5.00451 4.36406 -2.86747 -2.74426 54 154 68 255 0.341573 0.854185
0.423333 2.80654 -5.35141 1.89948 -2.64377 -4.2552 54 154 68 255 0.341573 0.854185
0.018072 2.81129 -5.37183 -1.58509 -2.71306 -4.55226 54 154 68 255 0.341573 0.854185
-0.319718 2.84246 -5.13472 -4.10398 -2.62539 -2.62127 54 154 68 255 0.341573 0.854185
-0.449114 2.8797 -4.72748 -5.126 -2.12785 0.071323 54 154 68 255 0.341573 0.854185
-0.319717 2.89265 -4.31704 -4.41199 -1.57546 3.03167 54 154 68 255 0.341573 0.854185
0.027881 2.97387 -4.01963 -2.49602 -0.952646 4.9769 54 154 68 255 0.341573 0.854185
0.457536 2.98535 -3.88643 1.35825 -1.06987 4.68088 54 154 68 255 0.341573 0.854185
0.805134 2.9506 -4.27197 4.62801 -1.86985 2.70302 54 154 68 255 0.341573 0.854185
0.903702 2.8883 -4.69529 4.86745 -2.57819 -0.442625 54 154 68 255 0.341573 0.854185
0.726329 3.01156 -5.08244 4.38628 -0.0764606 -3.47732 54 154 68 255 0.341573 0.854185
0.444175 2.97668 -5.41598 1.82092 0.243323 -4.66736 54 154 68 255 0.341573 0.854185
-0.036223 2.98284 -5.36912 -1.71244 0.540359 -5.27484 54 154 68 255 0.341573 0.854185
-0.352462 3.00942 -5.16701 -4.32687 0.536261 -3.15429 54 154 68 255 0.341573 0.854185
-0.46387 3.06403 -4.75172 -5.49043 0.889036 -0.139946 54 154 68 255 0.341573 0.854185
-0.345339 3.1131 -4.32481 -4.55525 1.30718 2.82001 54 154 68 255 0.341573 0.854185
0.016825 3.15459 -4.03654 -2.32272 1.90119 4.68827 54 154 68 255 0.341573 0.854185
0.468591 3.15436 -3.93036 1.25341 2.1564 4.52305 54 154 68 255 0.341573 0.854185
0.834077 3.11997 -4.29982 4.74887 1.38397 2.57069 54 154 68 255 0.341573 0.854185
0.958199 3.0658 -4.73824 5.16788 0.339435 -0.82251 54 154 68 255 0.341573 0.854185
0.615367 3.38402 -5.07142 3.80362 2.49017 -3.67789 54 154 68 255 0.341573 0.854185
0.335507 3.35388 -5.26403 1.25812 2.39027 -4.86298 54 154 68 255 0.341573 0.854185
-0.060942 3.35512 -5.18515 -1.81015 2.64843 -4.92286 54 154 68 255 0.341573 0.854185
-0.251632 3.3503 -5.0706 -3.71502 3.01821 -2.96289 54 154 68 255 0.341573 0.854185
-0.289621 3.39264 -4.79684 -4.67559 3.40216 -0.38967 54 154 68 255 0.341573 0.854185
-0.212394 3.4311 -4.44976 -3.74675 3.84375 1.82931 54 154 68 255 0.341573 0.854185
0.059965 3.45746 -4.23618 -1.65843 4.20961 3.44439 54 154 68 255 0.341573 0.854185
0.425451 3.45743 -4.22408 1.0858 4.38422 3.38926 54 154 68 255 0.341573 0.854185
0.721136 3.42945 -4.44918 3.70772 3.93762 1.84363 54 154 68 255 0.341573 0.854185
0.79229 3.39346 -4.76429 4.59348 3.12451 -0.928163 54 154 68 255 0.341573 0.854185
0.392928 3.68138 -5.0232 1.83847 1.71295 -1.57318 54 154 68 255 0.341573 0.854185
0.276419 3.67338 -5.09104 0.746103 1.42109 -2.40892 54 154 68 255 0.341573 0.854185
0.138036 3.67285 -5.07653 -0.770689 1.43634 -2.49303 54 154 68 255 0.341573 0.854185
0.050918 3.67762 -5.01014 -1.62202 1.80424 -1.62454 54 154 68 255 0.341573 0.854185
0.032914 3.69286 -4.90842 -2.06751 2.15912 -0.352387 54 154 68 255 0.341573 0.854185
0.070399 3.70968 -4.7766 -1.71181 2.39171 0.523055 54 154 68 255 0.341573 0.854185
0.173666 3.71996 -4.69284 -0.784524 2.61253 1.25683 54 154 68 255 0.341573 0.854185
0.31251 3.71989 -4.69279 0.348833 2.65144 1.36738 54 154 68 255 0.341573 0.854185
0.424091 3.70864 -4.77348 1.3931 2.50873 0.822664 54 154 68 255 0.341573 0.854185
0.449898 3.69477 -4.89711 1.99296 2.16511 -0.297345 54 154 68 255 0.341573 0.854185
0.242708 2.39746 -4.65091 -0.0233683 -0.318803 0.0496561 54 154 68 255 0.341573 0.854185
0.242708 3.70367 -4.93798 -0.000899317 0.257997 -0.0308787 54 154 68 255 0.341573 0.854185
0.327134 2.41933 -5.33951 1.34296 -2.67996 -0.186358 54 154 68 255 0.341573 0.854185
0.230691 2.39707 -5.44982 0.357116 -2.88478 -0.631378 54 154 68 255 0.341573 0.854185
0.134073 2.42608 -5.50217 -0.983734 -2.75356 -0.504322 54 154 68 255 0.341573 0.854185
0.041462 2.47168 -5.4265 -1.75543 -2.47343 -0.0805207 54 154 68 255 0.341573 0.854185
0.010176 2.51035 -5.27997 -1.91343 -2.2328 0.678548 54 154 68 255 0.341573 0.854185
0.052832 2.54517 -5.14802 -1.10703 -1.80237 1.9803 54 154 68 255 0.341573 0.854185
0.161974 2.59909 -5.08316 -0.23697 -1.65549 2.53215 54 154 68 255 0.341573 0.854185
0.296319 2.62273 -5.09459 0.706358 -1.75362 2.34763 54 154 68 255 0.341573 0.854185
0.411094 2.57136 -5.16029 1.39267 -1.88578 1.92601 54 154 68 255 0.341573 0.854185
0.40971 2.48642 -5.24234 1.62435 -2.32386 0.794236 54 154 68 255 0.341573 0.854185
0.567685 2.5588 -5.5336 3.60428 -4.42713 -0.97424 54 154 68 255 0.341573 0.854185
0.352538 2.52136 -5.88683 1.94989 -4.83593 -2.24457 54 154 68 255 0.341573 0.854185
0.076016 2.54518 -6.02112 -1.54051 -4.75625 -2.16851 54 154 68 255 0.341573 0.854185
-0.150911 2.6281 -5.79565 -4.00447 -4.01594 -0.985306 54 154 68 255 0.341573 0.854185
-0.273372 2.72973 -5.38793 -4.6661 -3.20885 0.649724 54 154 68 255 0.341573 0.854185
-0.220372 2.82508 -5.04693 -3.57002 -2.36496 3.323 54 154 68 255 0.341573 0.854185
0.059965 2.99587 -4.85539 -1.38093 -2.11675 5.21786 54 154 68 255 0.341573 0.854185
0.425451 3.02757 -4.80536 1.35003 -2.42653 4.89538 54 154 68 255 0.341573 0.854185
0.769315 2.94011 -5.06995 3.76286 -2.25064 3.21188 54 154 68 255 0.341573 0.854185
0.825781 2.75212 -5.33637 4.14681 -3.2411 0.833764 54 154 68 255 0.341573 0.854185
0.677319 2.7408 -5.69745 4.58914 -2.35725 -2.63425 54 154 68 255 0.341573 0.854185
0.423333 2.67362 -6.02128 2.58758 -2.44227 -3.99319 54 154 68 255 0.341573 0.854185
0.053081 2.65403 -6.138 -1.2205 -2.47541 -4.28562 54 154 68 255 0.341573 0.854185
-0.190719 2.74273 -5.90913 -4.5384 -2.74192 -2.27167 54 154 68 255 0.341573 0.854185
-0.34285 2.90609 -5.47693 -5.50334 -1.75278 0.193142 54 154 68 255 0.341573 0.854185
-0.293625 3.05319 -5.09181 -4.81208 -0.488636 2.92708 54 154 68 255 0.341573 0.854185
0.027881 3.20324 -4.83693 -2.24369 -0.0289888 5.27574 54 154 68 255 0.341573 0.854185
0.457536 3.17795 -4.74288 1.54038 -0.162707 5.01637 54 154 68 255 0.341573 0.854185
0.803682 3.10863 -5.06995 4.83227 -0.0861107 2.34771 54 154 68 255 0.341573 0.854185
0.847425 2.92682 -5.44836 5.56969 -0.737512 -0.671942 54 154 68 255 0.341573 0.854185
0.676632 3.09117 -5.91351 4.39127 0.323489 -3.46938 54 154 68 255 0.341573 0.854185
0.400954 2.99972 -6.10987 1.99697 0.0133556 -5.07893 54 154 68 255 0.341573 0.854185
-0.020044 3.00271 -6.11398 -1.16115 0.0998726 -5.52531 54 154 68 255 0.341573 0.854185
-0.27439 3.05285 -5.97269 -4.24731 -0.777907 -3.66709 54 154 68 255 0.341573 0.854185
-0.459603 3.14941 -5.66584 -5.29902 0.00760394 -0.642795 54 154 68 255 0.341573 0.854185
-0.318738 3.39246 -5.21238 -4.83941 1.68725 2.01717 54 154 68 255 0.341573 0.854185
0.027881 3.5058 -4.83804 -2.31971 1.90246 4.53259 54 154 68 255 0.341573 0.854185
0.457536 3.47279 -4.81931 1.81235 1.84859 4.61383 54 154 68 255 0.341573 0.854185
0.771411 3.41121 -5.14384 4.8414 1.96476 1.49816 54 154 68 255 0.341573 0.854185
0.769168 3.22701 -5.59702 5.45136 1.44241 -1.38385 54 154 68 255 0.341573 0.854185
0.605763 3.25405 -5.92782 3.73017 2.37749 -3.61791 54 154 68 255 0.341573 0.854185
0.335507 3.18216 -6.09032 1.17491 1.65353 -5.36709 54 154 68 255 0.341573 0.854185
-0.057281 3.18842 -6.05186 -1.18194 1.52977 -5.58476 54 154 68 255 0.341573 0.854185
-0.287905 3.19488 -5.97028 -3.3159 1.63802 -4.20067 54 154 68 255 0.341573 0.854185
-0.416073 3.26817 -5.74202 -4.56515 2.47345 -1.67983 54 154 68 255 0.341573 0.854185
-0.245836 3.48994 -5.30437 -4.11575 4.07257 0.520215 54 154 68 255 0.341573 0.854185
0.059965 3.62539 -4.92573 -2.17791 4.35788 2.60256 54 154 68 255 0.341573 0.854185
0.425451 3.61378 -4.86824 1.59893 3.87406 3.15905 54 154 68 255 0.341573 0.854185
0.705587 3.51643 -5.17721 4.25733 3.50976 0.636293 54 154 68 255 0.341573 0.854185
0.707248 3.34934 -5.60016 4.72186 3.10939 -1.77523 54 154 68 255 0.341573 0.854185
0.507064 3.40454 -5.88344 3.06195 3.70911 -3.24662 54 154 68 255 0.341573 0.854185
0.295007 3.36273 -6.03121 0.93631 3.03494 -4.79536 54 154 68 255 0.341573 0.854185
-0.017449 3.35174 -6.00096 -1.08444 2.86915 -4.99623 54 154 68 255 0.341573 0.854185
-0.206196 3.34304 -5.94008 -2.38906 3.46659 -3.89136 54 154 68 255 0.341573 0.854185
-0.253952 3.4106 -5.77978 -3.32533 4.3624 -1.98838 54 154 68 255 0.341573 0.854185
-0.126349 3.56235 -5.44518 -2.92905 5.09023 -0.602197 54 154 68 255 0.341573 0.854185
0.109937 3.69453 -5.11668 -1.51889 5.50429 0.306737 54 154 68 255 0.341573 0.854185
0.375479 3.70677 -5.00455 0.950684 5.44626 0.683439 54 154 68 255 0.341573 0.854185
0.589671 3.59586 -5.25513 3.10411 4.87405 -0.526188 54 154 68 255 0.341573 0.854185
0.616232 3.46184 -5.60249 3.65012 4.29596 -1.84856 54 154 68 255 0.341573 0.854185
0.199484 2.47088 -5.25939 -0.024954 -0.228195 0.122714 54 154 68 255 0.341573 0.854185
0.240365 3.59244 -5.73249 0.0168439 0.215874 -0.0709889 54 154 68 255 0.341573 0.854185
0.431442 3.47688 -5.83984 2.5196 4.71343 -2.55468 54 154 68 255 0.341573 0.854185
0.347127 3.53735 -5.79207 1.02629 2.45868 -1.4064 54 154 68 255 0.341573 0.854185
0.282541 3.45455 -5.95115 1.20364 4.297 -3.80861 54 154 68 255 0.341573 0.854185
0.266075 3.52627 -5.86038 0.265436 2.34399 -1.83743 54 154 68 255 0.341573 0.854185
0.077611 3.45 -5.94486 -0.625471 4.19306 -4.15423 54 154 68 255 0.341573 0.854185
0.15349 3.52134 -5.86812 -0.378479 2.40705 -1.7893 54 154 68 255 0.341573 0.854185
-0.040459 3.46421 -5.88848 -1.57973 4.56029 -3.43955 54 154 68 255 0.341573 0.854185
0.052724 3.52379 -5.83167 -0.73744 2.54294 -1.45494 54 154 68 255 0.341573 0.854185
-0.070568 3.51194 -5.77668 -2.15657 5.05726 -2.26035 54 154 68 255 0.341573 0.854185
0.040333 3.54689 -5.77866 -0.863008 2.73016 -0.987033 54 154 68 255 0.341573 0.854185
-7.5e-005 3.59615 -5.56517 -2.02143 5.46638 -1.26595 54 154 68 255 0.341573 0.854185
0.089666 3.6035 -5.63547 -0.708301 2.89681 -0.662363 54 154 68 255 0.341573 0.854185
0.160044 3.67205 -5.36399 -1.03723 5.77874 -0.880668 54 154 68 255 0.341573 0.854185
0.187229 3.65064 -5.49226 -0.150563 2.99651 -0.519721 54 154 68 255 0.341573 0.854185
0.325275 3.68132 -5.27579 0.645881 5.83779 -0.856531 54 154 68 255 0.341573 0.854185
0.299545 3.66004 -5.41444 0.616008 2.9179 -0.576617 54 154 68 255 0.341573 0.854185
0.463609 3.60953 -5.41359 2.05748 5.46875 -1.25471 54 154 68 255 0.341573 0.854185
0.373486 3.61899 -5.49525 1.05746 2.76478 -0.754562 54 154 68 255 0.341573 0.854185
0.499591 3.52105 -5.64217 2.63476 5.07277 -1.76657 54 154 68 255 0.341573 0.854185
0.396295 3.56408 -5.65799 1.21658 2.63066 -0.937259 54 154 68 255 0.341573 0.854185
0.102097 1e-006 -5.00854 2.5121 0.163915 -1.4333 128 96 73 255 0.317979 0.991772
0.059608 1e-006 -5.06222 1.41982 -0.0383326 -2.53241 128 96 73 255 0.317979 0.991772
-0.004519 1e-006 -5.08751 -0.0227129 -0.191436 -2.90804 128 96 73 255 0.317979 0.991772
-0.073104 1e-006 -5.07763 -1.42204 -0.273136 -2.5349 128 96 73 255 0.317979 0.991772
-0.127766 1e-006 -5.03521 -2.47373 -0.272287 -1.51795 128 96 73 255 0.317979 0.991772
-0.15386 1e-006 -4.97164 -2.89873 -0.175027 -0.0556729 128 96 73 255 0.317979 0.991772
-0.144396 1e-006 -4.90394 -2.50229 0.0126431 1.46082 128 96 73 255 0.317979 0.991772
-0.101906 1e-006 -4.85025 -1.39466 0.2364 2.53472 128 96 73 255 0.317979 0.991772
-0.037779 1e-006 -4.82496 0.0322925 0.419562 2.88316 128 96 73 255 0.317979 0.991772
0.030805 1e-006 -4.83485 1.39846 0.510383 2.51069 128 96 73 255 0.317979 0.991772
0.085468 1e-006 -4.87726 2.43586 0.489589 1.52241 128 96 73 255 0.317979 0.991772
0.111562 1e-006 -4.94083 2.87886 0.361707 0.0845712 128 96 73 255 0.317979 0.991772
0.319405 2.83794 -5.27849 2.39301 -0.616523 -1.5312 128 96 73 255 0.317979 0.991772
0.297168 2.84646 -5.29625 1.37884 -0.218829 -2.56078 128 96 73 255 0.317979 0.991772
0.268965 2.85507 -5.29984 0.0631543 0.251453 -2.90813 128 96 73 255 0.317979 0.991772
0.242354 2.86146 -5.2883 -1.25125 0.697069 -2.53831 128 96 73 255 0.317979 0.991772
0.224465 2.86394 -5.26471 -2.27285 1.00974 -1.5008 128 96 73 255 0.317979 0.991772
0.220092 2.86182 -5.23541 -2.69394 1.07206 -0.00639385 128 96 73 255 0.317979 0.991772
0.230404 2.85569 -5.20823 -2.34031 0.83571 1.50425 128 96 73 255 0.317979 0.991772
0.252641 2.84717 -5.19047 -1.34197 0.388958 2.55797 128 96 73 255 0.317979 0.991772
0.280842 2.83857 -5.18689 -0.020589 -0.111152 2.91597 128 96 73 255 0.317979 0.991772
0.307454 2.83217 -5.19843 1.31624 -0.539919 2.54072 128 96 73 255 0.317979 0.991772
0.325342 2.82969 -5.22201 2.36064 -0.806552 1.48202 128 96 73 255 0.317979 0.991772
0.329718 2.83181 -5.25132 2.77543 -0.836753 -0.0311573 128 96 73 255 0.317979 0.991772
0.274906 2.84682 -5.24336 0.00547943 0.0188578 0.00217904 128 96 73 255 0.317979 0.991772
0.04177 1.65622 -5.03224 4.93032 -0.908119 -2.69545 128 96 73 255 0.317979 0.991772
0.008385 1.67124 -5.06926 2.85054 -0.895202 -4.844 128 96 73 255 0.317979 0.991772
-0.04027 1.68185 -5.08452 0.112564 -0.598892 -5.70395 128 96 73 255 0.317979 0.991772
-0.091157 1.6852 -5.07394 -2.66196 -0.0769255 -5.12967 128 96 73 255 0.317979 0.991772
-0.130641 1.6804 -5.04034 -4.79899 0.557369 -3.1477 128 96 73 255 0.317979 0.991772
-0.14814 1.66873 -4.99274 -5.59237 1.07021 -0.227304 128 96 73 255 0.317979 0.991772
-0.138969 1.65332 -4.94388 -4.79112 1.27467 2.70234 128 96 73 255 0.317979 0.991772
-0.105583 1.6383 -4.90687 -2.74378 1.18049 4.80059 128 96 73 255 0.317979 0.991772
-0.056929 1.6277 -4.89161 -0.0545085 0.884487 5.635 128 96 73 255 0.317979 0.991772
-0.006042 1.62435 -4.90219 2.68003 0.446905 5.07659 128 96 73 255 0.317979 0.991772
0.03344 1.62915 -4.93578 4.83203 -0.0915683 3.16161 128 96 73 255 0.317979 0.991772
0.050942 1.64082 -4.98339 5.69948 -0.608356 0.2748 128 96 73 255 0.317979 0.991772
0.015708 0.688551 -5.07522 5.18902 0.255237 -2.47903 128 96 73 255 0.317979 0.991772
-0.021095 0.706413 -5.11467 3.19244 0.12485 -4.81318 128 96 73 255 0.317979 0.991772
-0.074383 0.718376 -5.1305 0.369328 0.0127939 -5.77893 128 96 73 255 0.317979 0.991772
-0.129879 0.721236 -5.11845 -2.48487 -0.0610677 -5.22715 128 96 73 255 0.317979 0.991772
-0.172714 0.714227 -5.08177 -4.71026 -0.0935374 -3.33744 128 96 73 255 0.317979 0.991772
-0.191406 0.699225 -5.03027 -5.73734 -0.0749622 -0.510229 128 96 73 255 0.317979 0.991772
-0.180953 0.680252 -4.97776 -5.18023 0.00919029 2.52423 128 96 73 255 0.317979 0.991772
-0.14415 0.66239 -4.93831 -3.16008 0.146823 4.83309 128 96 73 255 0.317979 0.991772
-0.090863 0.650427 -4.92249 -0.345555 0.287479 5.76472 128 96 73 255 0.317979 0.991772
-0.035368 0.647566 -4.93454 2.47276 0.381623 5.20259 128 96 73 255 0.317979 0.991772
0.007467 0.654576 -4.97122 4.67129 0.407389 3.34063 128 96 73 255 0.317979 0.991772
0.026162 0.669578 -5.02272 5.71051 0.36128 0.549097 128 96 73 255 0.317979 0.991772
0.017613 1.68555 -5.02081 2.78443 0.66823 -2.60929 128 96 73 255 0.317979 0.991772
-0.019813 1.72655 -5.02873 0.673371 1.18835 -2.57619 128 96 73 255 0.317979 0.991772
-0.066654 1.74135 -5.02338 -0.785848 1.50856 -2.35547 128 96 73 255 0.317979 0.991772
-0.110358 1.72598 -5.0062 -2.06942 1.43587 -1.42809 128 96 73 255 0.317979 0.991772
-0.139217 1.68456 -4.98179 -2.73527 0.959217 -0.0672911 128 96 73 255 0.317979 0.991772
-0.145497 1.62818 -4.9567 -2.60852 0.26071 1.26861 128 96 73 255 0.317979 0.991772
-0.127515 1.57196 -4.93764 -1.82152 -0.43658 2.24177 128 96 73 255 0.317979 0.991772
-0.090089 1.53096 -4.92972 -0.599442 -0.978626 2.68662 128 96 73 255 0.317979 0.991772
-0.043249 1.51616 -4.93507 0.814052 -1.2554 2.50012 128 96 73 255 0.317979 0.991772
0.000454 1.53154 -4.95225 2.07947 -1.17743 1.64865 128 96 73 255 0.317979 0.991772
0.029314 1.57296 -4.97666 2.78591 -0.739483 0.319214 128 96 73 255 0.317979 0.991772
0.035593 1.62933 -5.00176 1.84272 -0.131399 -0.560397 128 96 73 255 0.317979 0.991772
0.34276 2.54594 -4.63004 2.06123 -0.572091 -1.97598 128 96 73 255 0.317979 0.991772
0.310034 2.55976 -4.64744 1.0615 0.28211 -2.68551 128 96 73 255 0.317979 0.991772
0.270958 2.56588 -4.64696 -0.294917 1.06029 -2.68068 128 96 73 255 0.317979 0.991772
0.236003 2.56267 -4.62872 -1.58755 1.51072 -1.9079 128 96 73 255 0.317979 0.991772
0.214535 2.55099 -4.59762 -2.41194 1.51019 -0.636334 128 96 73 255 0.317979 0.991772
0.212308 2.53397 -4.56199 -2.59752 1.10065 0.750519 128 96 73 255 0.317979 0.991772
0.229915 2.51617 -4.53136 -2.1397 0.385779 1.93757 128 96 73 255 0.317979 0.991772
0.262642 2.50235 -4.51396 -1.11007 -0.491304 2.63459 128 96 73 255 0.317979 0.991772
0.301717 2.49623 -4.51444 0.25419 -1.2877 2.58389 128 96 73 255 0.317979 0.991772
0.336672 2.49943 -4.53268 1.51918 -1.72902 1.77713 128 96 73 255 0.317979 0.991772
0.358139 2.51111 -4.56378 2.30969 -1.70436 0.523709 128 96 73 255 0.317979 0.991772
0.360366 2.52814 -4.59942 2.49298 -1.28096 -0.816919 128 96 73 255 0.317979 0.991772
0.286338 2.53105 -4.5807 0.00507106 0.0311572 0.0151996 128 96 73 255 0.317979 0.991772
0.15369 2.23172 -4.73637 3.17337 0.0395732 -3.59237 128 96 73 255 0.317979 0.991772
0.128319 2.24045 -4.75268 1.75208 1.5807 -5.26691 128 96 73 255 0.317979 0.991772
0.097326 2.2453 -4.75424 -1.05553 2.69093 -5.00621 128 96 73 255 0.317979 0.991772
0.069014 2.24495 -4.74065 -3.6109 3.06343 -3.32623 128 96 73 255 0.317979 0.991772
0.050967 2.23951 -4.71554 -5.14564 2.56756 -0.719173 128 96 73 255 0.317979 0.991772
0.048026 2.23043 -4.68564 -5.25514 1.39188 2.03074 128 96 73 255 0.317979 0.991772
0.060973 2.22014 -4.65897 -3.99905 -0.121104 4.21246 128 96 73 255 0.317979 0.991772
0.086343 2.21141 -4.64267 -1.70915 -1.61426 5.31035 128 96 73 255 0.317979 0.991772
0.117336 2.20657 -4.6411 1.05159 -2.68983 5.01286 128 96 73 255 0.317979 0.991772
0.145648 2.20691 -4.6547 3.53701 -3.02038 3.38327 128 96 73 255 0.317979 0.991772
0.163694 2.21236 -4.6798 5.06688 -2.5286 0.868358 128 96 73 255 0.317979 0.991772
0.166638 2.22144 -4.7097 6.10132 -1.33589 -2.36518 128 96 73 255 0.317979 0.991772
0.127772 2.1803 -5.1975 4.59266 -2.01204 -2.82779 128 96 73 255 0.317979 0.991772
0.135995 2.18303 -5.16818 5.58695 -1.26137 0.0218426 128 96 73 255 0.317979 0.991772
0.129691 2.19196 -5.1397 4.97394 -0.18755 2.83223 128 96 73 255 0.317979 0.991772
0.11055 2.2047 -5.11972 3.06044 0.893341 4.79141 128 96 73 255 0.317979 0.991772
0.083699 2.21784 -5.11357 0.434384 1.74434 5.50144 128 96 73 255 0.317979 0.991772
0.056334 2.22785 -5.12291 -2.30749 2.19532 4.84949 128 96 73 255 0.317979 0.991772
0.035785 2.23206 -5.14524 -4.53711 2.10595 2.91239 128 96 73 255 0.317979 0.991772
0.027561 2.22933 -5.17456 -5.57683 1.4169 0.095077 128 96 73 255 0.317979 0.991772
0.033865 2.2204 -5.20304 -5.02423 0.296902 -2.74704 128 96 73 255 0.317979 0.991772
0.053006 2.20766 -5.22302 -3.11964 -0.87991 -4.74458 128 96 73 255 0.317979 0.991772
0.079857 2.19452 -5.22917 -0.465825 -1.77823 -5.47047 128 96 73 255 0.317979 0.991772
0.107224 2.18451 -5.21983 2.32869 -2.19407 -4.81153 128 96 73 255 0.317979 0.991772
0.2017 2.44967 -5.30578 4.47101 -1.65021 -3.17706 128 96 73 255 0.317979 0.991772
0.217458 2.45896 -5.27226 5.53013 -1.56001 -0.406643 128 96 73 255 0.317979 0.991772
0.214613 2.47478 -5.23775 5.05521 -1.06465 2.52438 128 96 73 255 0.317979 0.991772
0.193923 2.4929 -5.21151 3.18096 -0.289525 4.74386 128 96 73 255 0.317979 0.991772
0.160933 2.50847 -5.20057 0.492678 0.54506 5.66252 128 96 73 255 0.317979 0.991772
0.124485 2.51731 -5.20786 -2.29451 1.22349 5.11296 128 96 73 255 0.317979 0.991772
0.09434 2.51705 -5.23143 -4.50152 1.58395 3.23367 128 96 73 255 0.317979 0.991772
0.078581 2.50777 -5.26495 -5.52834 1.51461 0.461282 128 96 73 255 0.317979 0.991772
0.081427 2.49195 -5.29946 -5.04324 0.999481 -2.44308 128 96 73 255 0.317979 0.991772
0.102116 2.47382 -5.3257 -3.19863 0.186459 -4.63796 128 96 73 255 0.317979 0.991772
0.135105 2.45826 -5.33664 -0.542523 -0.667128 -5.56357 128 96 73 255 0.317979 0.991772
0.171555 2.44942 -5.32935 2.24173 -1.32847 -5.03664 128 96 73 255 0.317979 0.991772
-0.02115 1e-006 -4.95624 0 -0.106069 0 128 96 73 255 0.317979 0.991772
3 0 1 11 
3 0 11 10 
3 1 2 12 
3 1 12 11 
3 2 3 13 
3 2 13 12 
3 3 4 14 
3 3 14 13 
3 4 5 15 
3 4 15 14 
3 5 6 16 
3 5 16 15 
3 6 7 17 
3 6 17 16 
3 7 8 18 
3 7 18 17 
3 8 9 19 
3 8 19 18 
3 9 0 10 
3 9 10 19 
3 10 11 21 
3 10 21 20 
3 11 12 22 
3 11 22 21 
3 12 13 23 
3 12 23 22 
3 13 14 24 
3 13 24 23 
3 14 15 25 
3 14 25 24 
3 15 16 26 
3 15 26 25 
3 16 17 27 
3 16 27 26 
3 17 18 28 
3 17 28 27 
3 18 19 29 
3 18 29 28 
3 19 10 20 
3 19 20 29 
3 20 21 31 
3 20 31 30 
3 21 22 32 
3 21 32 31 
3 22 23 33 
3 22 33 32 
3 23 24 34 
3 23 34 33 
3 24 25 35 
3 24 35 34 
3 25 26 36 
3 25 36 35 
3 26 27 37 
3 26 37 36 
3 27 28 38 
3 27 38 37 
3 28 29 39 
3 28 39 38 
3 29 20 30 
3 29 30 39 
3 30 31 41 
3 30 41 40 
3 31 32 42 
3 31 42 41 
3 32 33 43 
3 32 43 42 
3 33 34 44 
3 33 44 43 
3 34 35 45 
3 34 45 44 
3 35 36 46 
3 35 46 45 
3 36 37 47 
3 36 47 46 
3 37 38 48 
3 37 48 47 
3 38 39 49 
3 38 49 48 
3 39 30 40 
3 39 40 49 
3 40 41 51 
3 40 51 50 
3 41 42 52 
3 41 52 51 
3 42 43 53 
3 42 53 52 
3 43 44 54 
3 43 54 53 
3 44 45 55 
3 44 55 54 
3 45 46 56 
3 45 56 55 
3 46 47 57 
3 46 57 56 
3 47 48 58 
3 47 58 57 
3 48 49 59 
3 48 59 58 
3 49 40 50 
3 49 50 59 
3 1 0 60 
3 2 1 60 
3 3 2 60 
3 4 3 60 
3 5 4 60 
3 6 5 60 
3 7 6 60 
3 8 7 60 
3 9 8 60 
3 0 9 60 
3 50 51 61 
3 51 52 61 
3 52 53 61 
3 53 54 61 
3 54 55 61 
3 55 56 61 
3 56 57 61 
3 57 58 61 
3 58 59 61 
3 59 50 61 
3 62 63 73 
3 62 73 72 
3 63 64 74 
3 63 74 73 
3 64 65 75 
3 64 75 74 
3 65 66 76 
3 65 76 75 
3 66 67 77 
3 66 77 76 
3 67 68 78 
3 67 78 77 
3 68 69 79 
3 68 79 78 
3 69 70 80 
3 69 80 79 
3 70 71 81 
3 70 81 80 
3 71 62 72 
3 71 72 81 
3 72 73 83 
3 72 83 82 
3 73 74 84 
3 73 84 83 
3 74 75 85 
3 74 85 84 
3 75 76 86 
3 75 86 85 
3 76 77 87 
3 76 87 86 
3 77 78 88 
3 77 88 87 
3 78 79 89 
3 78 89 88 
3 79 80 90 
3 79 90 89 
3 80 81 91 
3 80 91 90 
3 81 72 82 
3 81 82 91 
3 82 83 93 
3 82 93 92 
3 83 84 94 
3 83 94 93 
3 84 85 95 
3 84 95 94 
3 85 86 96 
3 85 96 95 
3 86 87 97 
3 86 97 96 
3 87 88 98 
3 87 98 97 
3 88 89 99 
3 88 99 98 
3 89 90 100 
3 89 100 99 
3 90 91 101 
3 90 101 100 
3 91 82 92 
3 91 92 101 
3 92 93 103 
3 92 103 102 
3 93 94 104 
3 93 104 103 
3 94 95 105 
3 94 105 104 
3 95 96 106 
3 95 106 105 
3 96 97 107 
3 96 107 106 
3 97 98 108 
3 97 108 107 
3 98 99 109 
3 98 109 108 
3 99 100 110 
3 99 110 109 
3 100 101 111 
3 100 111 110 
3 101 92 102 
3 101 102 111 
3 102 103 113 
3 102 113 112 
3 103 104 114 
3 103 114 113 
3 104 105 115 
3 104 115 114 
3 105 106 116 
3 105 116 115 
3 106 107 117 
3 106 117 116 
3 107 108 118 
3 107 118 117 
3 108 109 119 
3 108 119 118 
3 109 110 120 
3 109 120 119 
3 110 111 121 
3 110 121 120 
3 111 102 112 
3 111 112 121 
3 63 62 122 
3 64 63 122 
3 65 64 122 
3 66 65 122 
3 67 66 122 
3 68 67 122 
3 69 68 122 
3 70 69 122 
3 71 70 122 
3 62 71 122 
3 124 125 143 
3 124 143 142 
3 125 124 126 
3 125 126 127 
3 127 126 128 
3 127 128 129 
3 129 128 130 
3 129 130 131 
3 131 130 132 
3 131 132 133 
3 133 132 134 
3 133 134 135 
3 135 134 136 
3 135 136 137 
3 137 136 138 
3 137 138 139 
3 139 138 140 
3 139 140 141 
3 141 140 142 
3 141 142 143 
3 112 113 126 
3 112 126 124 
3 113 114 128 
3 113 128 126 
3 114 115 130 
3 114 130 128 
3 115 116 132 
3 115 132 130 
3 116 117 134 
3 116 134 132 
3 117 118 136 
3 117 136 134 
3 118 119 138 
3 118 138 136 
3 119 120 140 
3 119 140 138 
3 120 121 142 
3 120 142 140 
3 121 112 124 
3 121 124 142 
3 125 127 123 
3 127 129 123 
3 129 131 123 
3 131 133 123 
3 133 135 123 
3 135 137 123 
3 137 139 123 
3 139 141 123 
3 141 143 123 
3 143 125 123 
3 169 170 241 
3 169 241 230 
3 170 171 240 
3 170 240 241 
3 171 172 239 
3 171 239 240 
3 172 173 238 
3 172 238 239 
3 173 174 237 
3 173 237 238 
3 174 175 236 
3 174 236 237 
3 175 176 235 
3 175 235 236 
3 176 177 234 
3 176 234 235 
3 177 178 233 
3 177 233 234 
3 178 179 232 
3 178 232 233 
3 179 180 231 
3 179 231 232 
3 180 169 230 
3 180 230 231 
3 156 157 168 
3 157 158 168 
3 158 159 168 
3 159 160 168 
3 160 161 168 
3 161 162 168 
3 162 163 168 
3 163 164 168 
3 164 165 168 
3 165 166 168 
3 166 167 168 
3 167 156 168 
3 181 182 170 
3 181 170 169 
3 182 183 171 
3 182 171 170 
3 183 184 172 
3 183 172 171 
3 184 185 173 
3 184 173 172 
3 185 186 174 
3 185 174 173 
3 186 187 175 
3 186 175 174 
3 187 188 176 
3 187 176 175 
3 188 189 177 
3 188 177 176 
3 189 190 178 
3 189 178 177 
3 190 191 179 
3 190 179 178 
3 191 192 180 
3 191 180 179 
3 192 181 169 
3 192 169 180 
3 144 145 182 
3 144 182 181 
3 145 146 183 
3 145 183 182 
3 146 147 184 
3 146 184 183 
3 147 148 185 
3 147 185 184 
3 148 149 186 
3 148 186 185 
3 149 150 187 
3 149 187 186 
3 150 151 188 
3 150 188 187 
3 151 152 189 
3 151 189 188 
3 152 153 190 
3 152 190 189 
3 153 154 191 
3 153 191 190 
3 154 155 192 
3 154 192 191 
3 155 144 181 
3 155 181 192 
3 218 219 206 
3 218 206 205 
3 219 220 207 
3 219 207 206 
3 220 221 208 
3 220 208 207 
3 221 222 209 
3 221 209 208 
3 222 223 210 
3 222 210 209 
3 223 224 211 
3 223 211 210 
3 224 225 212 
3 224 212 211 
3 225 226 213 
3 225 213 212 
3 226 227 214 
3 226 214 213 
3 227 228 215 
3 227 215 214 
3 228 229 216 
3 228 216 215 
3 229 218 205 
3 229 205 216 
3 205 206 217 
3 206 207 217 
3 207 208 217 
3 208 209 217 
3 209 210 217 
3 210 211 217 
3 211 212 217 
3 212 213 217 
3 213 214 217 
3 214 215 217 
3 215 216 217 
3 216 205 217 
3 219 218 193 
3 219 193 194 
3 220 219 194 
3 220 194 195 
3 221 220 195 
3 221 195 196 
3 222 221 196 
3 222 196 197 
3 223 222 197 
3 223 197 198 
3 224 223 198 
3 224 198 199 
3 225 224 199 
3 225 199 200 
3 226 225 200 
3 226 200 201 
3 227 226 201 
3 227 201 202 
3 228 227 202 
3 228 202 203 
3 229 228 203 
3 229 203 204 
3 193 218 229 
3 193 229 204 
3 231 230 242 
3 231 242 243 
3 232 231 243 
3 232 243 244 
3 233 232 244 
3 233 244 245 
3 234 233 245 
3 234 245 246 
3 235 234 246 
3 235 246 247 
3 236 235 247 
3 236 247 248 
3 237 236 248 
3 237 248 249 
3 238 237 249 
3 238 249 250 
3 239 238 250 
3 239 250 251 
3 240 239 251 
3 240 251 252 
3 241 240 252 
3 241 252 253 
3 230 241 253 
3 230 253 242 
3 243 242 156 
3 243 156 167 
3 244 243 167 
3 244 167 166 
3 245 244 166 
3 245 166 165 
3 246 245 165 
3 246 165 164 
3 247 246 164 
3 247 164 163 
3 248 247 163 
3 248 163 162 
3 249 248 162 
3 249 162 161 
3 250 249 161 
3 250 161 160 
3 251 250 160 
3 251 160 159 
3 252 251 159 
3 252 159 158 
3 253 252 158 
3 253 158 157 
3 242 253 157 
3 242 157 156 
3 145 144 254 
3 147 254 148 
3 254 154 153 
3 150 254 151 
3 149 254 150 
3 151 254 152 
3 254 153 152 
3 254 155 154 
3 254 144 155 
3 145 254 146 
3 146 254 147 
3 148 254 149 
