ply
format ascii 1.0
comment VCGLIB generated
comment TextureFile LowPolyTexture_Variant1.png
element vertex 256
property float x
property float y
property float z
property float nx
property float ny
property float nz
property uchar red
property uchar green
property uchar blue
property uchar alpha
property float texture_u
property float texture_v
element face 480
property list uchar int vertex_indices
end_header
0.019576 2.53094 -3.16895 1.82735 -2.36671 -0.39697 54 153 70 255 0.345744 0.853747
-0.07932 2.49248 -3.2404 1.11852 -2.40177 -1.38367 54 153 70 255 0.345744 0.853747
-0.211713 2.43792 -3.26654 0.46409 -2.24539 -1.97522 54 153 70 255 0.345744 0.853747
-0.341332 2.38138 -3.24039 -0.274097 -2.33826 -1.86954 54 153 70 255 0.345744 0.853747
-0.436715 2.36626 -3.16893 -0.937638 -2.68546 -0.708891 54 153 70 255 0.345744 0.853747
-0.473108 2.38672 -3.07127 -0.937181 -2.58849 0.987545 54 153 70 255 0.345744 0.853747
-0.442043 2.44024 -2.97357 -0.525021 -2.36623 1.835 54 153 70 255 0.345744 0.853747
-0.349476 2.5012 -2.90202 -0.0333941 -2.48472 1.76219 54 153 70 255 0.345744 0.853747
-0.219075 2.5646 -2.87585 0.287498 -2.6886 1.42803 54 153 70 255 0.345744 0.853747
-0.082383 2.55951 -2.90205 1.05465 -2.63812 1.01127 54 153 70 255 0.345744 0.853747
0.018212 2.56403 -2.97361 1.82234 -2.38332 0.380574 54 153 70 255 0.345744 0.853747
0.055167 2.56127 -3.07131 2.0771 -2.23566 0.209103 54 153 70 255 0.345744 0.853747
0.252238 2.72958 -3.26063 3.72586 -4.47463 -0.6229 54 153 70 255 0.345744 0.853747
0.06482 2.63119 -3.39869 2.33177 -4.48202 -2.80189 54 153 70 255 0.345744 0.853747
-0.196708 2.60505 -3.4492 0.745448 -4.21551 -4.08681 54 153 70 255 0.345744 0.853747
-0.449979 2.53937 -3.39869 -0.651371 -4.12845 -4.16558 54 153 70 255 0.345744 0.853747
-0.632202 2.46552 -3.26062 -2.33053 -4.61543 -2.39405 54 153 70 255 0.345744 0.853747
-0.698955 2.46687 -3.07193 -2.71115 -4.86931 1.0202 54 153 70 255 0.345744 0.853747
-0.640027 2.56538 -2.8832 -1.65466 -4.65205 3.30204 54 153 70 255 0.345744 0.853747
-0.455533 2.63778 -2.74496 -0.595058 -4.68524 3.66028 54 153 70 255 0.345744 0.853747
-0.199437 2.64188 -2.69456 0.441149 -4.92644 3.32457 54 153 70 255 0.345744 0.853747
0.062789 2.6634 -2.74498 1.88549 -5.06798 2.21338 54 153 70 255 0.345744 0.853747
0.251471 2.74825 -2.88322 3.3797 -4.77075 0.586351 54 153 70 255 0.345744 0.853747
0.316885 2.82687 -3.07196 3.98428 -4.44032 0.319537 54 153 70 255 0.345744 0.853747
0.445613 2.89069 -3.3392 3.64674 -4.26806 -0.914699 54 153 70 255 0.345744 0.853747
0.180936 2.80074 -3.53454 2.22461 -4.04797 -3.47175 54 153 70 255 0.345744 0.853747
-0.186997 2.7749 -3.60603 0.339937 -3.66957 -4.63642 54 153 70 255 0.345744 0.853747
-0.550907 2.72878 -3.53455 -1.307 -3.50229 -4.56997 54 153 70 255 0.345744 0.853747
-0.800703 2.63765 -3.33921 -3.1442 -3.73284 -2.9791 54 153 70 255 0.345744 0.853747
-0.882314 2.62448 -3.07232 -3.89236 -4.09971 0.385111 54 153 70 255 0.345744 0.853747
-0.796718 2.69044 -2.80542 -2.69576 -4.0669 3.24304 54 153 70 255 0.345744 0.853747
-0.518894 2.74113 -2.61016 -1.04462 -3.88326 4.26711 54 153 70 255 0.345744 0.853747
-0.17947 2.75318 -2.56278 0.20279 -3.79507 4.44007 54 153 70 255 0.345744 0.853747
0.178343 2.78318 -2.61233 2.19232 -3.99699 3.42454 54 153 70 255 0.345744 0.853747
0.415335 2.8652 -2.80543 3.99061 -3.98557 1.07132 54 153 70 255 0.345744 0.853747
0.524808 3.00963 -3.07233 4.29548 -4.04995 0.273071 54 153 70 255 0.345744 0.853747
0.570352 2.9845 -3.39922 4.20399 -2.72135 -1.63748 54 153 70 255 0.345744 0.853747
0.254393 2.96856 -3.6385 2.23527 -3.0414 -4.33938 54 153 70 255 0.345744 0.853747
-0.155552 2.93667 -3.71961 0.176995 -2.63796 -5.20565 54 153 70 255 0.345744 0.853747
-0.59394 2.88595 -3.62791 -1.90053 -2.29852 -4.96645 54 153 70 255 0.345744 0.853747
-0.9074 2.819 -3.39922 -3.90101 -2.33882 -3.3864 54 153 70 255 0.345744 0.853747
-1.01783 2.77618 -3.07236 -4.80342 -2.66482 0.134909 54 153 70 255 0.345744 0.853747
-0.904945 2.82651 -2.7455 -3.63484 -2.6911 3.44358 54 153 70 255 0.345744 0.853747
-0.559953 2.89349 -2.5138 -1.43741 -2.45319 5.04579 54 153 70 255 0.345744 0.853747
-0.167657 2.92249 -2.48161 0.124123 -2.27884 5.48398 54 153 70 255 0.345744 0.853747
0.232817 2.95231 -2.51634 2.46771 -2.10847 4.53037 54 153 70 255 0.345744 0.853747
0.472128 2.96997 -2.7455 4.66083 -1.58942 2.61038 54 153 70 255 0.345744 0.853747
0.596406 3.13063 -3.07236 5.37287 -1.73834 0.740477 54 153 70 255 0.345744 0.853747
0.607816 3.16973 -3.43692 4.93708 -0.38628 -2.1438 54 153 70 255 0.345744 0.853747
0.292495 3.15669 -3.7038 2.51453 -1.24243 -5.04555 54 153 70 255 0.345744 0.853747
-0.098255 3.12113 -3.78337 0.0868054 -1.30638 -5.68136 54 153 70 255 0.345744 0.853747
-0.589351 3.05281 -3.67884 -2.23911 -1.02203 -5.29355 54 153 70 255 0.345744 0.853747
-0.927743 3.03437 -3.43456 -4.40281 -0.817809 -3.63281 54 153 70 255 0.345744 0.853747
-1.09404 2.96192 -3.07236 -5.39768 -0.787221 -0.0364267 54 153 70 255 0.345744 0.853747
-0.943871 3.0397 -2.70779 -4.32413 -0.875319 3.62327 54 153 70 255 0.345744 0.853747
-0.577393 3.09021 -2.45552 -1.69777 -0.826727 5.41832 54 153 70 255 0.345744 0.853747
-0.16713 3.12076 -2.43107 -0.0145744 -0.869697 5.88009 54 153 70 255 0.345744 0.853747
0.259113 3.1525 -2.45306 2.6527 -0.526413 4.55766 54 153 70 255 0.345744 0.853747
0.43811 3.1571 -2.70779 5.05264 0.217264 3.03885 54 153 70 255 0.345744 0.853747
0.584324 3.21848 -3.07236 5.69839 0.519971 1.26759 54 153 70 255 0.345744 0.853747
0.570657 3.37824 -3.44978 4.93476 1.50527 -2.0317 54 153 70 255 0.345744 0.853747
0.294277 3.36784 -3.72608 2.62533 0.592635 -4.97845 54 153 70 255 0.345744 0.853747
-0.080563 3.31837 -3.80377 -0.0215054 -0.0517884 -5.83915 54 153 70 255 0.345744 0.853747
-0.591599 3.22688 -3.69548 -2.37867 -0.168515 -5.34249 54 153 70 255 0.345744 0.853747
-0.937264 3.20811 -3.44559 -4.5385 0.098735 -3.48397 54 153 70 255 0.345744 0.853747
-1.09544 3.16483 -3.07236 -5.4633 0.640161 -0.0422325 54 153 70 255 0.345744 0.853747
-0.929339 3.23184 -2.69493 -4.4971 0.746656 3.49377 54 153 70 255 0.345744 0.853747
-0.571551 3.30337 -2.44125 -1.77318 0.620816 5.36067 54 153 70 255 0.345744 0.853747
-0.177348 3.33272 -2.4435 -0.167286 0.602583 5.92655 54 153 70 255 0.345744 0.853747
0.250227 3.36456 -2.42946 2.54058 1.01447 4.16755 54 153 70 255 0.345744 0.853747
0.373312 3.37372 -2.69493 5.06845 1.37667 2.79492 54 153 70 255 0.345744 0.853747
0.573852 3.38824 -3.07236 5.34287 1.63672 1.09612 54 153 70 255 0.345744 0.853747
0.43617 3.54516 -3.43692 4.46233 3.31288 -1.8413 54 153 70 255 0.345744 0.853747
0.241351 3.56902 -3.7038 2.52348 2.44163 -4.28743 54 153 70 255 0.345744 0.853747
-0.127165 3.51053 -3.78335 -0.209512 1.19257 -5.70986 54 153 70 255 0.345744 0.853747
-0.616944 3.40454 -3.67915 -2.55598 0.687085 -5.19806 54 153 70 255 0.345744 0.853747
-0.937866 3.36764 -3.4342 -4.61794 1.00884 -3.0547 54 153 70 255 0.345744 0.853747
-1.04906 3.3312 -3.07236 -5.38433 1.74025 0.146679 54 153 70 255 0.345744 0.853747
-0.870953 3.41787 -2.70779 -4.4306 2.01339 3.17956 54 153 70 255 0.345744 0.853747
-0.552932 3.51693 -2.48788 -1.81958 1.93086 5.01595 54 153 70 255 0.345744 0.853747
-0.197342 3.54371 -2.49462 -0.248851 1.92552 5.63549 54 153 70 255 0.345744 0.853747
0.196058 3.57325 -2.47166 2.28155 2.24535 3.74257 54 153 70 255 0.345744 0.853747
0.268038 3.57861 -2.70779 4.7178 2.66175 2.43086 54 153 70 255 0.345744 0.853747
0.525366 3.59486 -3.07236 4.48579 2.98929 0.723846 54 153 70 255 0.345744 0.853747
0.266379 3.69098 -3.39922 3.80983 4.29158 -1.6194 54 153 70 255 0.345744 0.853747
0.143467 3.74256 -3.6385 2.36691 3.74625 -3.22407 54 153 70 255 0.345744 0.853747
-0.213632 3.69149 -3.71992 -0.439395 2.59825 -5.18003 54 153 70 255 0.345744 0.853747
-0.65115 3.58009 -3.62896 -2.74533 2.032 -4.63681 54 153 70 255 0.345744 0.853747
-0.915909 3.52204 -3.39901 -4.56779 2.17151 -2.42355 54 153 70 255 0.345744 0.853747
-0.960117 3.51028 -3.07236 -5.19665 2.60647 0.399411 54 153 70 255 0.345744 0.853747
-0.790804 3.60487 -2.7455 -4.22172 2.85734 2.84149 54 153 70 255 0.345744 0.853747
-0.525698 3.69566 -2.56927 -1.74792 3.06003 4.44935 54 153 70 255 0.345744 0.853747
-0.212982 3.70639 -2.5725 -0.357361 3.17982 5.00519 54 153 70 255 0.345744 0.853747
0.109182 3.75367 -2.56452 1.91808 3.17199 3.64172 54 153 70 255 0.345744 0.853747
0.16344 3.76905 -2.74621 4.44276 3.3525 2.16441 54 153 70 255 0.345744 0.853747
0.370355 3.77275 -3.07236 3.85227 3.83058 0.22348 54 153 70 255 0.345744 0.853747
0.118338 3.81801 -3.33924 3.36384 4.62682 -1.56064 54 153 70 255 0.345744 0.853747
0.023383 3.87276 -3.53461 2.31208 4.57949 -2.25595 54 153 70 255 0.345744 0.853747
-0.263778 3.86078 -3.60612 -0.52229 3.96566 -4.18208 54 153 70 255 0.345744 0.853747
-0.622644 3.76004 -3.53461 -2.77921 3.50387 -3.67742 54 153 70 255 0.345744 0.853747
-0.827793 3.69195 -3.33924 -4.29139 3.44808 -1.79969 54 153 70 255 0.345744 0.853747
-0.834126 3.70612 -3.07236 -4.7558 3.47725 0.444267 54 153 70 255 0.345744 0.853747
-0.701946 3.78809 -2.80548 -3.71915 3.67413 2.47125 54 153 70 255 0.345744 0.853747
-0.485056 3.81628 -2.66185 -1.43862 3.91846 3.95695 54 153 70 255 0.345744 0.853747
-0.222807 3.80727 -2.66571 -0.414605 4.05345 4.36379 54 153 70 255 0.345744 0.853747
0.035016 3.8649 -2.66207 0.971035 4.15575 3.606 54 153 70 255 0.345744 0.853747
0.117471 3.90872 -2.80548 3.59519 4.20568 1.86703 54 153 70 255 0.345744 0.853747
0.220737 3.90246 -3.07236 3.41963 4.3618 -0.346892 54 153 70 255 0.345744 0.853747
1.6e-005 3.93039 -3.26107 2.67149 5.102 -1.39682 54 153 70 255 0.345744 0.853747
-0.093946 3.96583 -3.39922 2.23464 5.17004 -1.46704 54 153 70 255 0.345744 0.853747
-0.280176 3.98836 -3.44978 -0.24828 5.07526 -2.75932 54 153 70 255 0.345744 0.853747
-0.515085 3.93462 -3.39922 -2.42589 4.68628 -2.52712 54 153 70 255 0.345744 0.853747
-0.659085 3.88784 -3.26107 -3.52199 4.54371 -1.29015 54 153 70 255 0.345744 0.853747
-0.67212 3.90546 -3.07236 -3.66586 4.54256 0.331997 54 153 70 255 0.345744 0.853747
-0.583082 3.93146 -2.88364 -2.63282 4.68383 2.00003 54 153 70 255 0.345744 0.853747
-0.421337 3.90934 -2.76475 -0.916738 4.7763 3.27836 54 153 70 255 0.345744 0.853747
-0.223823 3.89074 -2.74995 -0.423028 4.69588 3.61034 54 153 70 255 0.345744 0.853747
-0.03065 3.94684 -2.76327 -0.140265 4.96011 2.99259 54 153 70 255 0.345744 0.853747
0.057064 3.99304 -2.88364 1.67453 5.31692 1.28591 54 153 70 255 0.345744 0.853747
0.06633 3.97642 -3.07236 2.38869 5.25367 -0.768418 54 153 70 255 0.345744 0.853747
-0.128855 4.01364 -3.17004 1.06711 2.75047 -0.635868 54 153 70 255 0.345744 0.853747
-0.192286 4.03064 -3.24155 1.13129 2.73611 -0.517301 54 153 70 255 0.345744 0.853747
-0.282918 4.05097 -3.26773 0.210933 2.80008 -0.941289 54 153 70 255 0.345744 0.853747
-0.386453 4.04676 -3.24155 -0.955611 2.68123 -0.987922 54 153 70 255 0.345744 0.853747
-0.457175 4.03296 -3.17004 -1.49293 2.57292 -0.567499 54 153 70 255 0.345744 0.853747
-0.468352 4.02852 -3.07236 -1.51856 2.59964 0.0217777 54 153 70 255 0.345744 0.853747
-0.422817 4.01004 -2.97467 -1.04851 2.68721 0.808572 54 153 70 255 0.345744 0.853747
-0.337177 3.98612 -2.90316 -0.322037 2.66941 1.39614 54 153 70 255 0.345744 0.853747
-0.230954 3.9775 -2.87759 -0.149651 2.58809 1.57367 54 153 70 255 0.345744 0.853747
-0.135174 3.99936 -2.90316 -0.320839 2.6811 1.33377 54 153 70 255 0.345744 0.853747
-0.088471 4.01482 -2.97467 0.213493 2.91334 0.561687 54 153 70 255 0.345744 0.853747
-0.091502 4.01405 -3.07236 0.727759 2.90231 -0.370252 54 153 70 255 0.345744 0.853747
-0.2207 2.41331 -3.07094 0.099449 -0.30994 0.0919064 54 153 70 255 0.345744 0.853747
-0.256536 4.05535 -3.07236 0.00557786 0.224324 0.031762 54 153 70 255 0.345744 0.853747
0.10804 0 -2.96466 2.37892 0.0800024 -1.67219 128 96 73 255 0.321247 0.987189
0.062377 0 -3.01032 1.22411 0.0800019 -2.63763 128 96 73 255 0.321247 0.987189
0 0 -3.02703 -0.258684 0.0800012 -2.89631 128 96 73 255 0.321247 0.987189
-0.062377 0 -3.01032 -1.67217 0.0800026 -2.37894 128 96 73 255 0.321247 0.987189
-0.10804 0 -2.96466 -2.63762 0.0800013 -1.22412 128 96 73 255 0.321247 0.987189
-0.124753 0 -2.90228 -2.89631 0.0800006 0.258692 128 96 73 255 0.321247 0.987189
-0.10804 0 -2.83991 -2.37894 0.0800027 1.67217 128 96 73 255 0.321247 0.987189
-0.062377 0 -2.79424 -1.22411 0.0800035 2.63762 128 96 73 255 0.321247 0.987189
0 0 -2.77753 0.258677 0.0800035 2.89632 128 96 73 255 0.321247 0.987189
0.062377 0 -2.79424 1.67218 0.0800036 2.37892 128 96 73 255 0.321247 0.987189
0.10804 0 -2.83991 2.63762 0.0800017 1.22412 128 96 73 255 0.321247 0.987189
0.124753 0 -2.90228 2.89631 0.0800006 -0.258678 128 96 73 255 0.321247 0.987189
0.054405 2.30233 -3.01754 4.97229 -0.871658 -2.81657 128 96 73 255 0.321247 0.987189
0.031411 2.30233 -3.04053 2.95308 -0.666244 -4.94086 128 96 73 255 0.321247 0.987189
0 2.30233 -3.04895 0.155354 -0.29636 -5.79585 128 96 73 255 0.321247 0.987189
-0.031411 2.30233 -3.04053 -2.74196 0.160148 -5.11247 128 96 73 255 0.321247 0.987189
-0.054405 2.30233 -3.01754 -4.91899 0.586818 -2.99906 128 96 73 255 0.321247 0.987189
-0.062822 2.30233 -2.98613 -5.71788 0.852925 -0.0691893 128 96 73 255 0.321247 0.987189
-0.054405 2.30233 -2.95472 -4.97275 0.887087 2.81937 128 96 73 255 0.321247 0.987189
-0.031411 2.30233 -2.93172 -2.95244 0.694226 4.94036 128 96 73 255 0.321247 0.987189
0 2.30233 -2.92331 -0.156204 0.320698 5.79616 128 96 73 255 0.321247 0.987189
0.031411 2.30233 -2.93172 2.73675 -0.152238 5.11631 128 96 73 255 0.321247 0.987189
0.054405 2.30233 -2.95472 4.91129 -0.591573 3.00745 128 96 73 255 0.321247 0.987189
0.062822 2.30233 -2.98613 5.71342 -0.853806 0.0773095 128 96 73 255 0.321247 0.987189
0 0 -2.90228 0 -0.0933807 0 128 96 73 255 0.321247 0.987189
0.091186 0.589802 -2.95493 5.01769 0.091945 -2.89712 128 96 73 255 0.321247 0.987189
0.052646 0.589802 -2.99347 2.89685 0.0611463 -5.01769 128 96 73 255 0.321247 0.987189
0 0.589802 -3.00758 -0.000109613 0.0528928 -5.79379 128 96 73 255 0.321247 0.987189
-0.052646 0.589802 -2.99347 -2.8971 0.0694 -5.01764 128 96 73 255 0.321247 0.987189
-0.091186 0.589802 -2.95493 -5.0178 0.106246 -2.89691 128 96 73 255 0.321247 0.987189
-0.105293 0.589802 -2.90228 -5.79346 0.153536 -1.5378e-005 128 96 73 255 0.321247 0.987189
-0.091186 0.589802 -2.84964 -5.01638 0.198581 2.896 128 96 73 255 0.321247 0.987189
-0.052646 0.589802 -2.8111 -2.8958 0.229319 5.01518 128 96 73 255 0.321247 0.987189
0 0.589802 -2.79699 -0.000146776 0.237549 5.79084 128 96 73 255 0.321247 0.987189
0.052646 0.589802 -2.8111 2.89576 0.221088 5.0156 128 96 73 255 0.321247 0.987189
0.091186 0.589802 -2.84964 5.01676 0.184309 2.89622 128 96 73 255 0.321247 0.987189
0.105293 0.589802 -2.90228 5.79372 0.137036 -0.000184029 128 96 73 255 0.321247 0.987189
0.086487 0.905989 -2.9623 5.01224 0.187865 -2.89539 128 96 73 255 0.321247 0.987189
0.099866 0.905989 -2.91236 5.76847 0.45291 -0.000815332 128 96 73 255 0.321247 0.987189
0.086487 0.905989 -2.86243 4.97431 0.64907 2.87442 128 96 73 255 0.321247 0.987189
0.049933 0.905989 -2.82588 2.86295 0.727368 4.96966 128 96 73 255 0.321247 0.987189
-0 0.905989 -2.8125 -0.00654072 0.669118 5.74649 128 96 73 255 0.321247 0.987189
-0.049933 0.905989 -2.82588 -2.8891 0.487204 4.99477 128 96 73 255 0.321247 0.987189
-0.086487 0.905989 -2.86243 -5.01422 0.227024 2.89337 128 96 73 255 0.321247 0.987189
-0.099866 0.905989 -2.91236 -5.79283 -0.0407315 0.000510991 128 96 73 255 0.321247 0.987189
-0.086486 0.905989 -2.9623 -5.01088 -0.241704 -2.89301 128 96 73 255 0.321247 0.987189
-0.049933 0.905989 -2.99885 -2.88969 -0.322106 -5.00806 128 96 73 255 0.321247 0.987189
-0 0.905989 -3.01223 0.00180912 -0.261214 -5.7868 128 96 73 255 0.321247 0.987189
0.049933 0.905989 -2.99885 2.89691 -0.074486 -5.01701 128 96 73 255 0.321247 0.987189
0.001024 1.51105 -3.01954 5.00321 0.0993583 -2.89218 128 96 73 255 0.321247 0.987189
0.009976 1.51105 -2.98613 5.7546 0.26299 -0.00563312 128 96 73 255 0.321247 0.987189
0.001024 1.51105 -2.95272 4.97094 0.40019 2.8632 128 96 73 255 0.321247 0.987189
-0.023432 1.51105 -2.92826 2.87224 0.478204 4.96741 128 96 73 255 0.321247 0.987189
-0.056839 1.51105 -2.91931 0.000675201 0.476595 5.75697 128 96 73 255 0.321247 0.987189
-0.090246 1.51105 -2.92826 -2.89007 0.391867 5.00362 128 96 73 255 0.321247 0.987189
-0.114702 1.51105 -2.95272 -5.01237 0.244721 2.89299 128 96 73 255 0.321247 0.987189
-0.123653 1.51105 -2.98613 -5.78293 0.0770199 0.000508249 128 96 73 255 0.321247 0.987189
-0.114702 1.51105 -3.01954 -5.00337 -0.0644086 -2.88765 128 96 73 255 0.321247 0.987189
-0.090246 1.51105 -3.04399 -2.88998 -0.142649 -5.00549 128 96 73 255 0.321247 0.987189
-0.056839 1.51105 -3.05294 0.000718057 -0.137035 -5.7895 128 96 73 255 0.321247 0.987189
-0.023432 1.51105 -3.04399 2.896 -0.048012 -5.01662 128 96 73 255 0.321247 0.987189
0.274258 3.2639 -3.11529 2.58151 -0.706877 -1.1525 128 96 73 255 0.321247 0.987189
0.248953 3.25868 -3.14025 1.68811 -0.623991 -2.29852 128 96 73 255 0.321247 0.987189
0.215908 3.26353 -3.15265 0.385759 -0.394983 -2.8623 128 96 73 255 0.321247 0.987189
0.183977 3.27714 -3.14915 -1.0556 -0.0660686 -2.70493 128 96 73 255 0.321247 0.987189
0.161717 3.29588 -3.1307 -2.2625 0.291486 -1.78713 128 96 73 255 0.321247 0.987189
0.155091 3.31471 -3.10224 -2.82648 0.571241 -0.340898 128 96 73 255 0.321247 0.987189
0.165875 3.3286 -3.07139 -2.58492 0.686841 1.15795 128 96 73 255 0.321247 0.987189
0.19118 3.33382 -3.04643 -1.68857 0.619782 2.29951 128 96 73 255 0.321247 0.987189
0.224225 3.32897 -3.03403 -0.386151 0.393464 2.86241 128 96 73 255 0.321247 0.987189
0.256156 3.31536 -3.03753 1.05197 0.0512954 2.70693 128 96 73 255 0.321247 0.987189
0.278417 3.29662 -3.05598 2.25417 -0.322313 1.79303 128 96 73 255 0.321247 0.987189
0.285042 3.27779 -3.08444 2.81839 -0.604638 0.349427 128 96 73 255 0.321247 0.987189
-0.044516 1.9859 -3.00592 -2.66085 -1.12661 -0.0636241 128 96 73 255 0.321247 0.987189
-0.043623 1.99283 -2.98544 -2.40344 -0.928966 1.37848 128 96 73 255 0.321247 0.987189
-0.032597 2.00229 -2.96754 -1.63601 -0.533277 2.37841 128 96 73 255 0.321247 0.987189
-0.014395 2.01175 -2.95703 -0.515017 -0.0104111 2.88156 128 96 73 255 0.321247 0.987189
0.006108 2.01868 -2.95672 0.869389 0.587664 2.70134 128 96 73 255 0.321247 0.987189
0.023417 2.02122 -2.9667 2.11067 1.0669 1.62991 128 96 73 255 0.321247 0.987189
0.032894 2.01868 -2.98428 2.63156 1.19565 0.0417404 128 96 73 255 0.321247 0.987189
0.032001 2.01175 -3.00477 2.37103 0.990754 -1.39313 128 96 73 255 0.321247 0.987189
0.020975 2.00229 -3.02266 1.60582 0.593992 -2.38548 128 96 73 255 0.321247 0.987189
0.002773 1.99283 -3.03317 0.489858 0.0766476 -2.88583 128 96 73 255 0.321247 0.987189
-0.01773 1.9859 -3.03348 -0.889677 -0.513033 -2.71122 128 96 73 255 0.321247 0.987189
-0.035039 1.98336 -3.02351 -2.13296 -0.99057 -1.65011 128 96 73 255 0.321247 0.987189
-0.883107 3.2591 -3.24137 -2.13931 -1.87513 -0.549375 128 96 73 255 0.321247 0.987189
-0.886793 3.26887 -3.21077 -2.12953 -1.76081 0.968805 128 96 73 255 0.321247 0.987189
-0.878898 3.28909 -3.18403 -1.64606 -1.2435 2.08994 128 96 73 255 0.321247 0.987189
-0.861538 3.31435 -3.16832 -0.840009 -0.458335 2.76118 128 96 73 255 0.321247 0.987189
-0.839363 3.33789 -3.16786 0.254211 0.530832 2.82761 128 96 73 255 0.321247 0.987189
-0.818316 3.35338 -3.18277 1.40403 1.46933 2.02665 128 96 73 255 0.321247 0.987189
-0.804037 3.35669 -3.20904 2.1032 1.92228 0.530464 128 96 73 255 0.321247 0.987189
-0.800351 3.34693 -3.23965 2.11751 1.77306 -0.973823 128 96 73 255 0.321247 0.987189
-0.808246 3.32671 -3.26639 1.63936 1.25071 -2.09202 128 96 73 255 0.321247 0.987189
-0.825606 3.30145 -3.28209 0.81536 0.491486 -2.76552 128 96 73 255 0.321247 0.987189
-0.84778 3.27791 -3.28255 -0.299231 -0.458616 -2.83962 128 96 73 255 0.321247 0.987189
-0.868827 3.26241 -3.26765 -1.45449 -1.38723 -2.05007 128 96 73 255 0.321247 0.987189
-0.843572 3.3079 -3.22521 -0.0160275 0.0152356 -0.00679086 128 96 73 255 0.321247 0.987189
-0.608448 2.93941 -3.21225 -4.54188 -3.53783 -0.439448 128 96 73 255 0.321247 0.987189
-0.606987 2.95074 -3.17876 -4.4169 -2.92487 2.41218 128 96 73 255 0.321247 0.987189
-0.588962 2.96621 -3.1495 -3.32233 -1.72987 4.4773 128 96 73 255 0.321247 0.987189
-0.559203 2.98168 -3.13232 -1.49686 -0.152298 5.6232 128 96 73 255 0.321247 0.987189
-0.525683 2.99301 -3.13182 0.938561 1.63456 5.44689 128 96 73 255 0.321247 0.987189
-0.497385 2.99716 -3.14812 3.32307 3.03463 3.52664 128 96 73 255 0.321247 0.987189
-0.48189 2.99301 -3.17688 4.61584 3.39303 0.496238 128 96 73 255 0.321247 0.987189
-0.483351 2.98168 -3.21037 4.51013 2.76634 -2.36963 128 96 73 255 0.321247 0.987189
-0.501376 2.96621 -3.23962 3.39838 1.57486 -4.44811 128 96 73 255 0.321247 0.987189
-0.531135 2.95074 -3.25681 1.53885 0.0182607 -5.59326 128 96 73 255 0.321247 0.987189
-0.564655 2.93941 -3.25731 -0.916526 -1.74857 -5.40805 128 96 73 255 0.321247 0.987189
-0.592953 2.93527 -3.24101 -3.28741 -3.15714 -3.47446 128 96 73 255 0.321247 0.987189
-0.148485 2.23225 -3.01999 -5.02777 -2.69191 -0.541127 128 96 73 255 0.321247 0.987189
-0.147666 2.2386 -3.00121 -4.86405 -2.15094 2.36912 128 96 73 255 0.321247 0.987189
-0.137562 2.24727 -2.98481 -3.58765 -1.17401 4.47472 128 96 73 255 0.321247 0.987189
-0.120879 2.25594 -2.97518 -1.53233 0.0523573 5.61789 128 96 73 255 0.321247 0.987189
-0.102089 2.26229 -2.9749 1.12802 1.37534 5.4587 128 96 73 255 0.321247 0.987189
-0.086225 2.26462 -2.98404 3.70745 2.37583 3.60133 128 96 73 255 0.321247 0.987189
-0.077539 2.26229 -3.00015 5.09807 2.59774 0.576972 128 96 73 255 0.321247 0.987189
-0.078358 2.25594 -3.01893 4.92282 2.05501 -2.34986 128 96 73 255 0.321247 0.987189
-0.088463 2.24727 -3.03533 3.63374 1.06764 -4.45541 128 96 73 255 0.321247 0.987189
-0.105145 2.2386 -3.04496 1.57158 -0.171506 -5.58371 128 96 73 255 0.321247 0.987189
-0.123936 2.23225 -3.04525 -1.0816 -1.49686 -5.40209 128 96 73 255 0.321247 0.987189
-0.139799 2.22992 -3.0361 -3.64208 -2.48244 -3.54278 128 96 73 255 0.321247 0.987189
3 0 1 13 
3 0 13 12 
3 1 2 14 
3 1 14 13 
3 2 3 15 
3 2 15 14 
3 3 4 16 
3 3 16 15 
3 4 5 17 
3 4 17 16 
3 5 6 18 
3 5 18 17 
3 6 7 19 
3 6 19 18 
3 7 8 20 
3 7 20 19 
3 8 9 21 
3 8 21 20 
3 9 10 22 
3 9 22 21 
3 10 11 23 
3 10 23 22 
3 11 0 12 
3 11 12 23 
3 12 13 25 
3 12 25 24 
3 13 14 26 
3 13 26 25 
3 14 15 27 
3 14 27 26 
3 15 16 28 
3 15 28 27 
3 16 17 29 
3 16 29 28 
3 17 18 30 
3 17 30 29 
3 18 19 31 
3 18 31 30 
3 19 20 32 
3 19 32 31 
3 20 21 33 
3 20 33 32 
3 21 22 34 
3 21 34 33 
3 22 23 35 
3 22 35 34 
3 23 12 24 
3 23 24 35 
3 24 25 37 
3 24 37 36 
3 25 26 38 
3 25 38 37 
3 26 27 39 
3 26 39 38 
3 27 28 40 
3 27 40 39 
3 28 29 41 
3 28 41 40 
3 29 30 42 
3 29 42 41 
3 30 31 43 
3 30 43 42 
3 31 32 44 
3 31 44 43 
3 32 33 45 
3 32 45 44 
3 33 34 46 
3 33 46 45 
3 34 35 47 
3 34 47 46 
3 35 24 36 
3 35 36 47 
3 36 37 49 
3 36 49 48 
3 37 38 50 
3 37 50 49 
3 38 39 51 
3 38 51 50 
3 39 40 52 
3 39 52 51 
3 40 41 53 
3 40 53 52 
3 41 42 54 
3 41 54 53 
3 42 43 55 
3 42 55 54 
3 43 44 56 
3 43 56 55 
3 44 45 57 
3 44 57 56 
3 45 46 58 
3 45 58 57 
3 46 47 59 
3 46 59 58 
3 47 36 48 
3 47 48 59 
3 48 49 61 
3 48 61 60 
3 49 50 62 
3 49 62 61 
3 50 51 63 
3 50 63 62 
3 51 52 64 
3 51 64 63 
3 52 53 65 
3 52 65 64 
3 53 54 66 
3 53 66 65 
3 54 55 67 
3 54 67 66 
3 55 56 68 
3 55 68 67 
3 56 57 69 
3 56 69 68 
3 57 58 70 
3 57 70 69 
3 58 59 71 
3 58 71 70 
3 59 48 60 
3 59 60 71 
3 60 61 73 
3 60 73 72 
3 61 62 74 
3 61 74 73 
3 62 63 75 
3 62 75 74 
3 63 64 76 
3 63 76 75 
3 64 65 77 
3 64 77 76 
3 65 66 78 
3 65 78 77 
3 66 67 79 
3 66 79 78 
3 67 68 80 
3 67 80 79 
3 68 69 81 
3 68 81 80 
3 69 70 82 
3 69 82 81 
3 70 71 83 
3 70 83 82 
3 71 60 72 
3 71 72 83 
3 72 73 85 
3 72 85 84 
3 73 74 86 
3 73 86 85 
3 74 75 87 
3 74 87 86 
3 75 76 88 
3 75 88 87 
3 76 77 89 
3 76 89 88 
3 77 78 90 
3 77 90 89 
3 78 79 91 
3 78 91 90 
3 79 80 92 
3 79 92 91 
3 80 81 93 
3 80 93 92 
3 81 82 94 
3 81 94 93 
3 82 83 95 
3 82 95 94 
3 83 72 84 
3 83 84 95 
3 84 85 97 
3 84 97 96 
3 85 86 98 
3 85 98 97 
3 86 87 99 
3 86 99 98 
3 87 88 100 
3 87 100 99 
3 88 89 101 
3 88 101 100 
3 89 90 102 
3 89 102 101 
3 90 91 103 
3 90 103 102 
3 91 92 104 
3 91 104 103 
3 92 93 105 
3 92 105 104 
3 93 94 106 
3 93 106 105 
3 94 95 107 
3 94 107 106 
3 95 84 96 
3 95 96 107 
3 96 97 109 
3 96 109 108 
3 97 98 110 
3 97 110 109 
3 98 99 111 
3 98 111 110 
3 99 100 112 
3 99 112 111 
3 100 101 113 
3 100 113 112 
3 101 102 114 
3 101 114 113 
3 102 103 115 
3 102 115 114 
3 103 104 116 
3 103 116 115 
3 104 105 117 
3 104 117 116 
3 105 106 118 
3 105 118 117 
3 106 107 119 
3 106 119 118 
3 107 96 108 
3 107 108 119 
3 108 109 121 
3 108 121 120 
3 109 110 122 
3 109 122 121 
3 110 111 123 
3 110 123 122 
3 111 112 124 
3 111 124 123 
3 112 113 125 
3 112 125 124 
3 113 114 126 
3 113 126 125 
3 114 115 127 
3 114 127 126 
3 115 116 128 
3 115 128 127 
3 116 117 129 
3 116 129 128 
3 117 118 130 
3 117 130 129 
3 118 119 131 
3 118 131 130 
3 119 108 120 
3 119 120 131 
3 1 0 132 
3 2 1 132 
3 3 2 132 
3 4 3 132 
3 5 4 132 
3 6 5 132 
3 7 6 132 
3 8 7 132 
3 9 8 132 
3 10 9 132 
3 11 10 132 
3 0 11 132 
3 120 121 133 
3 121 122 133 
3 122 123 133 
3 123 124 133 
3 124 125 133 
3 125 126 133 
3 126 127 133 
3 127 128 133 
3 128 129 133 
3 129 130 133 
3 130 131 133 
3 131 120 133 
3 159 160 182 
3 159 182 171 
3 160 161 181 
3 160 181 182 
3 161 162 180 
3 161 180 181 
3 162 163 179 
3 162 179 180 
3 163 164 178 
3 163 178 179 
3 164 165 177 
3 164 177 178 
3 165 166 176 
3 165 176 177 
3 166 167 175 
3 166 175 176 
3 167 168 174 
3 167 174 175 
3 168 169 173 
3 168 173 174 
3 169 170 172 
3 169 172 173 
3 170 159 171 
3 170 171 172 
3 135 134 158 
3 136 135 158 
3 137 136 158 
3 138 137 158 
3 139 138 158 
3 140 139 158 
3 141 140 158 
3 142 141 158 
3 143 142 158 
3 144 143 158 
3 145 144 158 
3 134 145 158 
3 134 135 160 
3 134 160 159 
3 135 136 161 
3 135 161 160 
3 136 137 162 
3 136 162 161 
3 137 138 163 
3 137 163 162 
3 138 139 164 
3 138 164 163 
3 139 140 165 
3 139 165 164 
3 140 141 166 
3 140 166 165 
3 141 142 167 
3 141 167 166 
3 142 143 168 
3 142 168 167 
3 143 144 169 
3 143 169 168 
3 144 145 170 
3 144 170 169 
3 145 134 159 
3 145 159 170 
3 172 171 183 
3 172 183 184 
3 173 172 184 
3 173 184 185 
3 174 173 185 
3 174 185 186 
3 175 174 186 
3 175 186 187 
3 176 175 187 
3 176 187 188 
3 177 176 188 
3 177 188 189 
3 178 177 189 
3 178 189 190 
3 179 178 190 
3 179 190 191 
3 180 179 191 
3 180 191 192 
3 181 180 192 
3 181 192 193 
3 182 181 193 
3 182 193 194 
3 171 182 194 
3 171 194 183 
3 184 183 146 
3 184 146 157 
3 185 184 157 
3 185 157 156 
3 186 185 156 
3 186 156 155 
3 187 186 155 
3 187 155 154 
3 188 187 154 
3 188 154 153 
3 189 188 153 
3 189 153 152 
3 190 189 152 
3 190 152 151 
3 191 190 151 
3 191 151 150 
3 192 191 150 
3 192 150 149 
3 193 192 149 
3 193 149 148 
3 194 193 148 
3 194 148 147 
3 183 194 147 
3 183 147 146 
3 146 147 196 
3 146 196 195 
3 147 148 197 
3 147 197 196 
3 148 149 198 
3 148 198 197 
3 149 150 199 
3 149 199 198 
3 150 151 200 
3 150 200 199 
3 151 152 201 
3 151 201 200 
3 152 153 202 
3 152 202 201 
3 153 154 203 
3 153 203 202 
3 154 155 204 
3 154 204 203 
3 155 156 205 
3 155 205 204 
3 156 157 206 
3 156 206 205 
3 157 146 195 
3 157 195 206 
3 232 233 220 
3 232 220 219 
3 233 234 221 
3 233 221 220 
3 234 235 222 
3 234 222 221 
3 235 236 223 
3 235 223 222 
3 236 237 224 
3 236 224 223 
3 237 238 225 
3 237 225 224 
3 238 239 226 
3 238 226 225 
3 239 240 227 
3 239 227 226 
3 240 241 228 
3 240 228 227 
3 241 242 229 
3 241 229 228 
3 242 243 230 
3 242 230 229 
3 243 232 219 
3 243 219 230 
3 219 220 231 
3 220 221 231 
3 221 222 231 
3 222 223 231 
3 223 224 231 
3 224 225 231 
3 225 226 231 
3 226 227 231 
3 227 228 231 
3 228 229 231 
3 229 230 231 
3 230 219 231 
3 244 245 233 
3 244 233 232 
3 245 246 234 
3 245 234 233 
3 246 247 235 
3 246 235 234 
3 247 248 236 
3 247 236 235 
3 248 249 237 
3 248 237 236 
3 249 250 238 
3 249 238 237 
3 250 251 239 
3 250 239 238 
3 251 252 240 
3 251 240 239 
3 252 253 241 
3 252 241 240 
3 253 254 242 
3 253 242 241 
3 254 255 243 
3 254 243 242 
3 255 244 232 
3 255 232 243 
3 207 208 245 
3 207 245 244 
3 208 209 246 
3 208 246 245 
3 209 210 247 
3 209 247 246 
3 210 211 248 
3 210 248 247 
3 211 212 249 
3 211 249 248 
3 212 213 250 
3 212 250 249 
3 213 214 251 
3 213 251 250 
3 214 215 252 
3 214 252 251 
3 215 216 253 
3 215 253 252 
3 216 217 254 
3 216 254 253 
3 217 218 255 
3 217 255 254 
3 218 207 244 
3 218 244 255 
